<svg xmlns="http://www.w3.org/2000/svg" xmlns:xlink="http://www.w3.org/1999/xlink" width="294.339" height="155.65" viewBox="0 0 294.339 155.65">
  <defs>
    <linearGradient id="linear-gradient" y1="0.603" x2="1" y2="0.575" gradientUnits="objectBoundingBox">
      <stop offset="0" stop-color="#be22bd"/>
      <stop offset="1" stop-color="#004f15"/>
    </linearGradient>
  </defs>
  <g id="intro2" transform="translate(-131.719 -158.03)">
    <path id="Path_12531" data-name="Path 12531" d="M142.5,312.866c.064-1.216-25.1-40.5,1.231-78.727s57.13-17.629,63.447-44.529c7.9-33.628,43.642-36.739,66.58-26.231s65.9-9.236,101.081,7.518,9.029,65.218,22.334,72.184,37.622,29,20.187,69.371Z" transform="translate(0 0)" fill="url(#linear-gradient)"/>
    <g id="Group_5315" data-name="Group 5315" transform="translate(225.872 198.56)">
      <path id="Path_12532" data-name="Path 12532" d="M1102.964,599.33s-2.477-17.11-12.6-27.128-19.9-12.3-20.183-8.393,15.737,9.7,22.227,18.329A112.763,112.763,0,0,1,1102.964,599.33Z" transform="translate(-1070.173 -562.007)" fill="#afcdfb" opacity="0.3"/>
      <path id="Path_12533" data-name="Path 12533" d="M1142.394,755.077s-2.883-12.278-10.877-18.918-15.241-7.677-15.2-4.823,12.051,6.054,17.314,11.914A82.258,82.258,0,0,1,1142.394,755.077Z" transform="translate(-1111.688 -713.004)" fill="#afcdfb" opacity="0.3"/>
    </g>
    <path id="Path_12534" data-name="Path 12534" d="M593.078,758.195c1.449-10.386,18.792-9.392,18.792-9.392S625.6,764.921,629,764.915s-9.048-16.073-9.048-16.073c6.406-1.448,23.94,4.411,23.94,4.411s1.548,20.635,4.843,19.793-2.3-18.2-2.3-18.2c6.515,1.089,13.3,7.67,13.3,7.67,8.831,11-5.748,21.771-5.748,21.771a33.642,33.642,0,0,0,6.116,14.743h0a24.4,24.4,0,0,1,2.514,3.814l-1.711.217q-.3-.662-.632-1.269a.01.01,0,0,0,0-.007l-.01-.018c-.151-.25-.367-.6-.635-1.036v0s0,0,0,0c-.652-.957-1.1-1.668-1.393-2.186l0,0c-1.973-3.014-4.759-6.914-6.375-7.6a3.341,3.341,0,0,0,.267-.831l-.267.831c-2.135,6.647-16.647,9.546-25.019,8.9s-5.106-3.393-1.185-7.684,13.251-4.471,15.785-6.28-1.626-2.77-7.012-1.664-7.418,6.89-16.1,8.839-17.467-13.732-17.467-13.732c6.305,1.115,16.761-3.609,16.915-5.754s-15.929.1-18.519-.208S591.629,768.581,593.078,758.195Z" transform="translate(-414.841 -531.331)" fill="#cde0fb" opacity="0.4"/>
    <path id="Path_12535" data-name="Path 12535" d="M840.481,1349.276a22.7,22.7,0,0,0,.6,5.141l-26.919.03c.643-.568,1.415-1.184,2.221-1.858,3.689-3.084,11.358-2.2,13.636-3.4s-1.026-2.451-5.565-2.14-6.844,4.827-14.177,5.464-12.8-13.192-12.8-13.192c5.047,1.613,14.141-1.1,14.5-2.844s-13.07-1.68-15.159-2.221-5.717-4.758-3.379-13.113,16.446-5.62,16.446-5.62,9.472,14.734,12.261,15.106-5.639-14.178-5.639-14.178c5.412-.478,19.138,6.266,19.138,6.266s-1.015,17.089,1.778,16.764.127-15.176.127-15.176c5.22,1.614,10.054,7.76,10.054,7.76C853.626,1342.058,840.481,1349.276,840.481,1349.276Z" transform="translate(-594.65 -1040.979)" fill="#afcdfb" opacity="0.3"/>
    <path id="Path_12536" data-name="Path 12536" d="M1721.368,1227.018c-2.483.942-18.934,2.669-18.256,4.753s12.175,4.185,18.135,1.535c0,0-4.836,17.658-13.9,17.864s-12.489-5.014-18.085-4.785-9.474,2.2-6.525,3.366,12.218-.947,17.147,2.331c.724.481,1.426.934,2.07,1.362.388.259.756.509,1.1.753H1670.1c0-.267,0-.519-.007-.753a19.417,19.417,0,0,0-.147-2.182s-17.056-7.069-11.028-20.11c0,0,5.091-8.171,11.264-10.847,0,0-1.271,18.535,2.193,18.558s-.073-20.756-.073-20.756,15.894-10.1,22.583-10.238c0,0-8.361,18.941-5,18.11s12.978-20.134,12.978-20.134,16.9-5.24,20.884,4.67S1723.853,1226.076,1721.368,1227.018Z" transform="translate(-1372.815 -941.444)" fill="#cde0fb" opacity="0.4"/>
    <path id="Path_12537" data-name="Path 12537" d="M1695.681,424.643c-2.123-7.858-15.382-5.411-15.382-5.411s-9.01,13.743-11.629,14.068,5.409-13.254,5.409-13.254c-5.074-.494-18.007,5.717-18.007,5.717s.808,16.04-1.81,15.711.009-14.239.009-14.239c-4.911,1.47-9.5,7.2-9.5,7.2-5.734,9.326,6.537,16.207,6.537,16.207a26.11,26.11,0,0,1-3.281,11.946h0a18.945,18.945,0,0,0-1.566,3.181h1.339q.164-.538.364-1.039a.008.008,0,0,1,0-.006l.006-.014c.092-.207.224-.5.388-.86h0v0c.409-.8.686-1.392.861-1.818v0c1.227-2.512,2.994-5.786,4.172-6.472a2.588,2.588,0,0,1-.286-.614l.286.614c2.288,4.912,13.745,5.737,20.129,4.432s3.6-3.108.167-6.032-10.637-2.158-12.764-3.305.984-2.291,5.239-1.961,6.38,4.587,13.254,5.246,12.119-12.268,12.119-12.268c-4.747,1.47-13.256-1.154-13.583-2.791s12.276-1.465,14.24-1.955S1697.8,432.5,1695.681,424.643Z" transform="translate(-1359.88 -234.672)" fill="#afcdfb" opacity="0.3"/>
    <g id="Group_5316" data-name="Group 5316" transform="translate(157.979 303.253)">
      <path id="Path_12538" data-name="Path 12538" d="M398.113,1614.96s-6.685-6.437-4.019-9.062,4.019,9.063,4.019,9.063Z" transform="translate(-393.466 -1605.514)" fill="#82b378"/>
      <path id="Path_12539" data-name="Path 12539" d="M437.74,1615.005c3.261-.135-1.618,8.5-1.618,8.5S434.478,1615.14,437.74,1615.005Z" transform="translate(-431.47 -1614.051)" fill="#82b378"/>
    </g>
    <g id="Group_5317" data-name="Group 5317" transform="translate(352.132 245.862)">
      <path id="Path_12540" data-name="Path 12540" d="M2328.648,1039.049s1.351-6.135,3.809-5.525-3.809,5.525-3.809,5.525Z" transform="translate(-2328.648 -1033.481)" fill="#a8d29f"/>
      <path id="Path_12541" data-name="Path 12541" d="M2334.124,1063.977c1.232,1.835-5.476,2.071-5.476,2.071S2332.893,1062.143,2334.124,1063.977Z" transform="translate(-2328.648 -1060.477)" fill="#a8d29f"/>
    </g>
    <g id="Group_5318" data-name="Group 5318" transform="translate(250.843 201.143)">
      <path id="Path_12542" data-name="Path 12542" d="M1325.686,600.648s-8.2-4.355-6.352-7.611,6.352,7.611,6.352,7.611Z" transform="translate(-1319.063 -591.959)" fill="#a8d29f"/>
      <path id="Path_12543" data-name="Path 12543" d="M1366.617,587.83c3.1-1.025.776,8.614.776,8.614S1363.518,588.856,1366.617,587.83Z" transform="translate(-1360.765 -587.754)" fill="#a8d29f"/>
    </g>
    <g id="Group_5319" data-name="Group 5319" transform="translate(167.798 245.95)">
      <path id="Path_12544" data-name="Path 12544" d="M502.144,1041.579s-3.972,7.206-6.833,5.529,6.833-5.529,6.833-5.529Z" transform="translate(-494.437 -1040.75)" fill="#a8d29f"/>
      <path id="Path_12545" data-name="Path 12545" d="M491.4,1035.756c-.867-2.761,7.647-.572,7.647-.572S492.265,1038.517,491.4,1035.756Z" transform="translate(-491.336 -1034.361)" fill="#a8d29f"/>
    </g>
    <g id="Group_5321" data-name="Group 5321" transform="translate(340.397 200.278)">
      <g id="Group_5320" data-name="Group 5320">
        <path id="Path_12546" data-name="Path 12546" d="M2253.507,588.693a6.323,6.323,0,0,1-2.86.764,6.324,6.324,0,0,1,1.29-2.665,1.232,1.232,0,0,1,1.57,1.9Z" transform="translate(-2246.726 -585.771)" fill="#a3b3ce"/>
        <path id="Path_12547" data-name="Path 12547" d="M2229.375,579.792a1.628,1.628,0,1,1-2.183,1.145,1.232,1.232,0,0,1,2.183-1.145Z" transform="translate(-2225.509 -579.132)" fill="#a3b3ce"/>
        <path id="Path_12548" data-name="Path 12548" d="M2212.775,605.255a6.32,6.32,0,0,1,2.81.932,6.322,6.322,0,0,1-2.542,1.518,1.232,1.232,0,0,1-.268-2.45Z" transform="translate(-2211.676 -602.63)" fill="#a3b3ce"/>
        <path id="Path_12549" data-name="Path 12549" d="M2232.373,616.169a1.628,1.628,0,1,1,2.386.618,1.232,1.232,0,1,1-2.386-.618Z" transform="translate(-2230.261 -610.386)" fill="#a3b3ce"/>
        <path id="Path_12550" data-name="Path 12550" d="M2253.176,616.964a6.325,6.325,0,0,1-1.422-2.6,6.325,6.325,0,0,1,2.895.621,1.232,1.232,0,1,1-1.473,1.976Z" transform="translate(-2247.725 -610.799)" fill="#a3b3ce"/>
      </g>
      <path id="Path_12551" data-name="Path 12551" d="M2248.6,611.054a.406.406,0,1,0-.406.406A.406.406,0,0,0,2248.6,611.054Z" transform="translate(-2244.169 -607.486)" fill="#f9ddbf"/>
    </g>
    <path id="Path_12552" data-name="Path 12552" d="M1180.616,869.786a43.705,43.705,0,0,0-87.41,0c0,9.979,10.787,34.237,14.156,41.571a3.664,3.664,0,0,0,3.331,2.135h52.8a3.665,3.665,0,0,0,3.325-2.121C1170.141,904.21,1180.616,880.77,1180.616,869.786Z" transform="translate(-865.023 -601.027)" fill="#c9ddff"/>
    <path id="Path_12553" data-name="Path 12553" d="M1218.339,1077.345c0,9.883-8.066,27.816-11.889,35.184-1.35,2.6-8.828,1.749-10.112,1.749l-35.937-.425c-1.288,0-7.435,2.067-7.973.9-3.032-6.6-12.738-28.425-12.738-37.4a39.141,39.141,0,0,1,5.329-19.779,111.911,111.911,0,0,1,26.3,0c13.639,1.756,32.255-2.926,42.446,1.365h0A39.152,39.152,0,0,1,1218.339,1077.345Z" transform="translate(-906.844 -808.585)" fill="#a3b3ce"/>
    <path id="Rectangle_2188" data-name="Rectangle 2188" d="M5.195,0H22.687a5.195,5.195,0,0,1,5.195,5.195v0a5.195,5.195,0,0,1-5.195,5.195H5.195A5.195,5.195,0,0,1,0,5.195v0A5.195,5.195,0,0,1,5.195,0Z" transform="translate(257.994 216.986)" fill="#eff5ff"/>
    <path id="Path_12554" data-name="Path 12554" d="M1441.546,746.9v7.93a1.23,1.23,0,0,1-1.23,1.23h-22.823a1.229,1.229,0,0,1-1.228-1.23V746.9a1.229,1.229,0,0,1,1.228-1.23h22.823A1.23,1.23,0,0,1,1441.546,746.9Z" transform="translate(-1155.67 -528.68)" fill="#a3b3ce"/>
    <path id="Path_12555" data-name="Path 12555" d="M1503.1,488.579a3.286,3.286,0,0,1-2.223,3.109l-.018.006a3.224,3.224,0,0,1-1.047.172,3.288,3.288,0,1,1,3.288-3.287Z" transform="translate(-1227.874 -294.428)" fill="#eff5ff"/>
    <path id="Path_12556" data-name="Path 12556" d="M1515.533,488.579a3.286,3.286,0,0,1-2.223,3.109l-.019.006a4.244,4.244,0,0,1-2.949-4.09,4.37,4.37,0,0,1,.473-1.987,3.287,3.287,0,0,1,4.718,2.962Z" transform="translate(-1240.31 -294.428)" fill="#a3b3ce"/>
    <path id="Path_12557" data-name="Path 12557" d="M1468.707,662.611h-12.531a1.193,1.193,0,0,1-1.184-1.309,1.16,1.16,0,0,1,.4-.766,1.258,1.258,0,0,1,.82-.305,3.246,3.246,0,0,0,3.246-3.246v-3.636h5.964v3.636a3.246,3.246,0,0,0,3.246,3.246,1.214,1.214,0,0,1,1.21.987A1.193,1.193,0,0,1,1468.707,662.611Z" transform="translate(-1190.507 -445.625)" fill="#eff5ff"/>
    <path id="Path_12558" data-name="Path 12558" d="M1501.477,662.611h-10.066a5.844,5.844,0,0,0,2-4.491v-4.772h4.782v3.636a3.246,3.246,0,0,0,3.246,3.246,1.214,1.214,0,0,1,1.21.987A1.193,1.193,0,0,1,1501.477,662.611Z" transform="translate(-1223.277 -445.625)" fill="#a3b3ce"/>
    <g id="Group_5322" data-name="Group 5322" transform="translate(271.935 202.391)">
      <path id="Path_12559" data-name="Path 12559" d="M1572.4,615.721l-19.928-11.8a11.153,11.153,0,0,0-5.678-1.555h-17.5v-2.179h17.5a13.333,13.333,0,0,1,6.789,1.859l19.928,11.8Z" transform="translate(-1529.298 -600.188)" fill="#9db8f4"/>
    </g>
    <path id="Path_12560" data-name="Path 12560" d="M1884.9,691.777h0a1,1,0,0,1-.3-1.384l1.573-2.437a1,1,0,0,1,1.384-.3h0a1,1,0,0,1,.3,1.384l-1.573,2.436A1,1,0,0,1,1884.9,691.777Z" transform="translate(-1576.875 -476.349)" fill="#eff5ff"/>
    <path id="Path_12561" data-name="Path 12561" d="M1479.036,554.477a6.3,6.3,0,1,1-5.055-6.183A6.309,6.309,0,0,1,1479.036,554.477Z" transform="translate(-1200.792 -350.997)" fill="#eff5ff"/>
    <ellipse id="Ellipse_439" data-name="Ellipse 439" cx="5.055" cy="6.184" rx="5.055" ry="6.184" transform="translate(268.134 197.297)" fill="#a3b3ce"/>
    <path id="Path_12562" data-name="Path 12562" d="M1507.349,668.714s-.008-1.453,2.286-1.472l-2.734-.746Z" transform="translate(-1237.214 -457.453)" fill="#eff5ff"/>
    <path id="Path_12563" data-name="Path 12563" d="M1921.863,688.28a19.926,19.926,0,0,1-32.608.017l-.023-.032c-.027-.04-.054-.082-.081-.122l-7.764-11.5h0a14.174,14.174,0,0,1,15.428-22.537l0,0,12.557,3.208a19.6,19.6,0,0,1,2.283.583l.011,0a19.918,19.918,0,0,1,10.193,30.384Z" transform="translate(-1571.135 -445.622)" fill="#eff5ff"/>
    <path id="Path_12564" data-name="Path 12564" d="M1931.011,675.167c-.147.3-.3.587-.459.874l0,0a19.71,19.71,0,0,1-1.325,2.062q-.169.231-.344.455a19.669,19.669,0,0,1-2.664,2.8q-.17.148-.344.291a19.785,19.785,0,0,1-2.662,1.856q-.171.1-.344.2-.518.291-1.051.546-.475.229-.961.432c-.229.1-.46.187-.692.273-.115.043-.228.086-.344.126a19.919,19.919,0,0,1-2.663.742c-.115.024-.229.046-.344.067q-.668.125-1.345.205h0c-.188.022-.375.041-.564.057-.25.023-.5.04-.751.052q-.172.01-.344.014a19.527,19.527,0,0,1-2.662-.093l-.144-.015-.2-.023c-.082-.009-.164-.02-.245-.031a19.907,19.907,0,0,1-2.8-.582c-.115-.033-.229-.067-.344-.1a.019.019,0,0,1-.01,0c-.125-.037-.251-.077-.376-.117h0q-.7-.227-1.382-.508c-.3-.124-.6-.254-.892-.391q-.174-.079-.344-.164c-.03-.014-.061-.03-.091-.045-.11-.054-.218-.109-.326-.165a19.8,19.8,0,0,1-2.246-1.359c-.037-.025-.075-.052-.112-.079-.078-.054-.156-.11-.233-.167l-.052-.038a19.583,19.583,0,0,1-1.534-1.255v0l-.029-.028c-.037-.033-.071-.068-.107-.1l-.654-.614-.252-.236-.034-.033-.344-.322-1.567-1.47-.251-.236-1.352-1.269-.344-.323-.249-.234-.251-.235-1.944-1.825-.218-.2-.034-.033-.31-.29-2.007-1.884-.251-.235-.054-.052h0q-.177-.134-.351-.275c-.116-.093-.232-.189-.344-.288a13.741,13.741,0,0,1-1.222-1.187q-.117-.127-.228-.258a14.041,14.041,0,0,1-1.213-1.619q-.179-.277-.344-.563l0-.006c-.059-.1-.117-.205-.173-.309a14.119,14.119,0,0,1-1.106-2.616c-.039-.123-.074-.245-.109-.368-.06-.21-.113-.421-.163-.634a14.167,14.167,0,0,1,1.554-3.373q.166-.263.344-.52l.042-.062a14.18,14.18,0,0,1,2.621-2.831c.114-.094.228-.185.344-.274a14.087,14.087,0,0,1,2.662-1.613c.114-.054.229-.1.344-.155a14.179,14.179,0,0,1,2.662-.849c.114-.025.229-.048.344-.07s.233-.042.349-.062h0q.292-.048.588-.083a14.087,14.087,0,0,1,2.232-.092q.172,0,.344.017.624.038,1.248.133h0c.142.021.284.045.427.071.331.061.66.133.988.219.115.029.229.06.344.093q.347.1.689.216l0,0,1.027.263.4.1.548.14.344.088,2.164.553.394.1h0l.1.027.344.087,3.046.779.146.037.2.05.2.051,2.465.63.344.088.247.063.395.1.2.051c.611.119,1.219.264,1.823.442.115.033.229.068.344.106.039.01.077.023.116.035l.011,0c.175.057.35.117.525.18h0c.122.041.242.086.363.132.555.209,1.106.444,1.647.707.116.054.23.111.344.17q.309.157.616.326c.1.057.21.117.313.178q.765.439,1.5.957.136.094.27.193c.116.084.23.168.344.256.155.116.306.235.455.356.091.072.181.146.27.22a19.827,19.827,0,0,1,1.929,1.84l.008.009c.076.081.149.165.221.248.042.046.083.093.123.139a19.588,19.588,0,0,1,1.512,1.98c.065.1.128.194.19.291q.523.814.961,1.668c.119.233.235.468.344.705.007.013.012.025.018.038.051.11.1.221.149.333a19.961,19.961,0,0,1,.986,2.784c.034.126.068.252.1.38a19.88,19.88,0,0,1,.531,3.156C1931.01,675.15,1931.01,675.159,1931.011,675.167Z" transform="translate(-1576.749 -445.625)" fill="#a3b3ce"/>
    <g id="Group_5362" data-name="Group 5362" transform="translate(307.715 207.735)">
      <g id="Group_5342" data-name="Group 5342" transform="translate(1.391 0)">
        <g id="Group_5327" data-name="Group 5327" transform="translate(12.535)">
          <g id="Group_5323" data-name="Group 5323">
            <path id="Path_12565" data-name="Path 12565" d="M2025.071,653.469v26.7l-.344-.322v-26.4C2024.842,653.455,2024.957,653.461,2025.071,653.469Z" transform="translate(-2024.727 -653.452)" fill="#eff5ff"/>
          </g>
          <g id="Group_5324" data-name="Group 5324" transform="translate(3.007 0.44)">
            <path id="Path_12566" data-name="Path 12566" d="M2055.046,657.935v28.734c-.037-.025-.074-.052-.111-.079-.078-.054-.156-.11-.233-.167v-28.58Q2054.874,657.885,2055.046,657.935Z" transform="translate(-2054.702 -657.842)" fill="#eff5ff"/>
          </g>
          <g id="Group_5325" data-name="Group 5325" transform="translate(6.014 1.249)">
            <path id="Path_12567" data-name="Path 12567" d="M2085.011,665.989v29.663c-.116-.053-.23-.108-.344-.164V665.9Z" transform="translate(-2084.667 -665.901)" fill="#eff5ff"/>
          </g>
          <g id="Group_5326" data-name="Group 5326" transform="translate(9.02 2.017)">
            <path id="Path_12568" data-name="Path 12568" d="M2114.632,673.561l.344.087v30.017c-.115-.033-.23-.067-.344-.1Z" transform="translate(-2114.632 -673.561)" fill="#eff5ff"/>
          </g>
        </g>
        <g id="Group_5332" data-name="Group 5332" transform="translate(24.945 2.884)">
          <g id="Group_5328" data-name="Group 5328">
            <path id="Path_12569" data-name="Path 12569" d="M2148.77,682.28v29.8l-.144-.015-.2-.023V682.193l.146.037Z" transform="translate(-2148.426 -682.193)" fill="#eff5ff"/>
          </g>
          <g id="Group_5329" data-name="Group 5329" transform="translate(3.006 0.767)">
            <path id="Path_12570" data-name="Path 12570" d="M2178.735,689.929v29.112q-.172.01-.344.014V689.841Z" transform="translate(-2178.391 -689.841)" fill="#eff5ff"/>
          </g>
          <g id="Group_5330" data-name="Group 5330" transform="translate(6.013 1.512)">
            <path id="Path_12571" data-name="Path 12571" d="M2208.7,697.367v27.97c-.115.024-.229.046-.344.067V697.261C2208.47,697.294,2208.584,697.329,2208.7,697.367Z" transform="translate(-2208.355 -697.261)" fill="#eff5ff"/>
          </g>
          <g id="Group_5331" data-name="Group 5331" transform="translate(9.02 2.675)">
            <path id="Path_12572" data-name="Path 12572" d="M2238.675,709.024V734.9c-.115.044-.228.086-.344.126v-26.17C2238.447,708.908,2238.562,708.965,2238.675,709.024Z" transform="translate(-2238.331 -708.854)" fill="#eff5ff"/>
          </g>
        </g>
        <g id="Group_5336" data-name="Group 5336" transform="translate(37.013 7.381)">
          <g id="Group_5333" data-name="Group 5333">
            <path id="Path_12573" data-name="Path 12573" d="M2269.051,727.276v22.518q-.171.1-.344.2V727.02C2268.823,727.1,2268.938,727.189,2269.051,727.276Z" transform="translate(-2268.707 -727.02)" fill="#eff5ff"/>
          </g>
          <g id="Group_5334" data-name="Group 5334" transform="translate(3.006 2.681)">
            <path id="Path_12574" data-name="Path 12574" d="M2299.016,753.87v17.814q-.17.148-.344.291V753.738c.076.081.149.165.221.248Z" transform="translate(-2298.672 -753.738)" fill="#eff5ff"/>
          </g>
          <g id="Group_5335" data-name="Group 5335" transform="translate(6.014 7.006)">
            <path id="Path_12575" data-name="Path 12575" d="M2328.648,796.85c.119.233.235.468.344.705v9.655q-.168.231-.344.455Z" transform="translate(-2328.648 -796.85)" fill="#eff5ff"/>
          </g>
        </g>
        <g id="Group_5341" data-name="Group 5341" transform="translate(0 0.236)">
          <g id="Group_5337" data-name="Group 5337" transform="translate(0 5.853)">
            <path id="Path_12576" data-name="Path 12576" d="M1900.135,714.146v8.389q-.179-.277-.344-.563v-7.306Q1899.956,714.4,1900.135,714.146Z" transform="translate(-1899.791 -714.146)" fill="#eff5ff"/>
          </g>
          <g id="Group_5338" data-name="Group 5338" transform="translate(3.008 2.686)">
            <path id="Path_12577" data-name="Path 12577" d="M1930.112,682.582V697.49c-.116-.093-.232-.189-.344-.288V682.856C1929.881,682.762,1930,682.671,1930.112,682.582Z" transform="translate(-1929.768 -682.582)" fill="#eff5ff"/>
          </g>
          <g id="Group_5339" data-name="Group 5339" transform="translate(6.014 0.919)">
            <path id="Path_12578" data-name="Path 12578" d="M1960.076,664.964v19.445l-.034-.033-.31-.29V665.119C1959.846,665.065,1959.96,665.014,1960.076,664.964Z" transform="translate(-1959.732 -664.964)" fill="#eff5ff"/>
          </g>
          <g id="Group_5340" data-name="Group 5340" transform="translate(9.02)">
            <path id="Path_12579" data-name="Path 12579" d="M1990.041,655.807v23.185l-.344-.323V655.877C1989.811,655.852,1989.926,655.829,1990.041,655.807Z" transform="translate(-1989.697 -655.807)" fill="#eff5ff"/>
          </g>
        </g>
      </g>
      <g id="Group_5361" data-name="Group 5361" transform="translate(0 0.092)">
        <g id="Group_5347" data-name="Group 5347" transform="translate(7.715 2.829)">
          <g id="Group_5343" data-name="Group 5343">
            <path id="Path_12580" data-name="Path 12580" d="M1981.982,682.66l-.2.186-.344.323-3.046,2.864-.344.323-2.662,2.5-.344.323-2.662,2.5-.344.325-2.663,2.5-.344.323-3.17,2.981-.344.323-2.444,2.3-.218-.2-.034-.033.034-.032,2.662-2.5.344-.323,3.17-2.981.344-.323,2.663-2.505.344-.323,2.662-2.5.344-.323,2.662-2.5.344-.323,3.046-2.864.146-.138.2.051Z" transform="translate(-1962.819 -682.559)" fill="#eff5ff"/>
          </g>
          <g id="Group_5344" data-name="Group 5344" transform="translate(2.196 0.882)">
            <path id="Path_12581" data-name="Path 12581" d="M2004.734,691.35l.395.1-.641.6-.344.323-2.662,2.5-.344.323-3.046,2.865-.344.323-2.662,2.5-.344.323-2.662,2.5-.344.323-2.663,2.5-.344.323-3.17,2.981-.344.323-.249.234-.251-.235.5-.47.344-.323,3.17-2.981.344-.323,2.663-2.5.344-.323,2.662-2.5.344-.323,2.662-2.5.344-.323,3.046-2.864.344-.323,2.662-2.5.344-.323Z" transform="translate(-1984.712 -691.35)" fill="#eff5ff"/>
          </g>
          <g id="Group_5345" data-name="Group 5345" transform="translate(4.393 1.8)">
            <path id="Path_12582" data-name="Path 12582" d="M2028.207,700.628l-1.016.955-.344.323-2.662,2.5-.344.323-2.662,2.5-.344.323-3.047,2.864-.344.325-2.662,2.5-.344.323-2.662,2.5-.344.325-2.663,2.5-.344.324-1.567,1.473-.251-.236,1.818-1.71.344-.323,2.663-2.5.344-.323,2.662-2.5.344-.323,2.662-2.5.344-.323,3.047-2.865.344-.324,2.662-2.5.344-.323,2.662-2.5.344-.323.653-.614h0C2027.966,700.537,2028.086,700.582,2028.207,700.628Z" transform="translate(-2006.605 -700.496)" fill="#eff5ff"/>
          </g>
          <g id="Group_5346" data-name="Group 5346" transform="translate(6.59 3.134)">
            <path id="Path_12583" data-name="Path 12583" d="M2050.511,713.792c.1.057.21.117.313.178l-.929.873-.344.325-2.663,2.5-.344.323-2.662,2.5-.344.323-2.662,2.5-.344.323-3.047,2.864-.344.324-2.662,2.5-.344.324-2.662,2.5-.344.323-2.377,2.235-.252-.236,2.629-2.472.344-.323,2.662-2.5.344-.323,2.662-2.5.344-.325,3.047-2.864.344-.323,2.662-2.5.344-.325,2.662-2.5.344-.323,2.663-2.5.344-.325Z" transform="translate(-2028.499 -713.792)" fill="#eff5ff"/>
          </g>
        </g>
        <g id="Group_5352" data-name="Group 5352" transform="translate(16.882 7.901)">
          <g id="Group_5348" data-name="Group 5348">
            <path id="Path_12584" data-name="Path 12584" d="M2076.779,733.333l-.725.681-.344.323-2.7,2.542-.344.323L2070,739.708l-.344.323-2.662,2.5-.344.323-2.662,2.5-.344.323-3.046,2.864-.344.323-2.662,2.5-.344.323-2.662,2.5-.111.105c-.078-.054-.156-.11-.233-.167l-.052-.038.052-.048.344-.325,2.662-2.5.344-.323,2.662-2.5.344-.323,3.046-2.864.344-.323,2.662-2.5.344-.323,2.662-2.5.344-.324,2.663-2.5.344-.323,2.7-2.543.344-.323.456-.428C2076.6,733.185,2076.691,733.259,2076.779,733.333Z" transform="translate(-2054.188 -733.113)" fill="#eff5ff"/>
          </g>
          <g id="Group_5349" data-name="Group 5349" transform="translate(2.642 2.053)">
            <path id="Path_12585" data-name="Path 12585" d="M2102.626,753.842l-.222.208-2.662,2.5-.344.324-2.7,2.542-.344.323-2.664,2.5-.344.323-2.662,2.5-.344.323-2.662,2.5-.344.323-3.046,2.864-.344.323-2.662,2.5-.344.323-.09.085c-.11-.054-.218-.109-.326-.165l.416-.391.344-.323,2.662-2.5.344-.323,3.046-2.864.344-.325,2.662-2.5.344-.323,2.662-2.5.344-.323,2.664-2.5.344-.323,2.7-2.543.344-.323,2.654-2.5.008-.007v.016C2102.48,753.675,2102.553,753.759,2102.626,753.842Z" transform="translate(-2080.517 -753.578)" fill="#eff5ff"/>
          </g>
          <g id="Group_5350" data-name="Group 5350" transform="translate(5.678 4.436)">
            <path id="Path_12586" data-name="Path 12586" d="M2131.485,777.323c.065.1.128.194.19.291l-1.7,1.6-.344.324-2.662,2.5-.344.323-2.7,2.542-.344.323-2.663,2.505-.344.323-2.662,2.5-.344.325-2.662,2.5-.344.323-3.046,2.865-.344.323-.01.009c-.125-.037-.252-.077-.376-.117l.387-.365.344-.323,3.046-2.864.344-.323,2.662-2.5.344-.323,2.662-2.5.344-.323,2.663-2.505.344-.323,2.7-2.542.344-.323,2.662-2.5.344-.323Z" transform="translate(-2110.778 -777.323)" fill="#eff5ff"/>
          </g>
          <g id="Group_5351" data-name="Group 5351" transform="translate(9.209 7.138)">
            <path id="Path_12587" data-name="Path 12587" d="M2164.817,804.591l-.167.157-.344.323-2.663,2.505-.344.324-2.662,2.5-.344.323-2.7,2.543-.344.323-2.663,2.5-.344.323-2.662,2.5-.344.323-2.662,2.5-.143.135-.2-.023c-.082-.009-.164-.019-.246-.031l.246-.231.344-.323,2.662-2.5.344-.323,2.662-2.5.344-.324,2.663-2.5.344-.323,2.7-2.542.344-.323,2.662-2.5.344-.323,2.663-2.5.344-.323.019-.017C2164.719,804.368,2164.769,804.479,2164.817,804.591Z" transform="translate(-2145.979 -804.258)" fill="#eff5ff"/>
          </g>
        </g>
        <g id="Group_5355" data-name="Group 5355" transform="translate(30.438 18.155)">
          <g id="Group_5353" data-name="Group 5353">
            <path id="Path_12588" data-name="Path 12588" d="M2204.885,835.7l-1.253,1.178-.344.323-2.663,2.5-.344.325-2.662,2.5-.344.323-2.7,2.543-.344.324-2.663,2.5-.344.324-1.345,1.266h0c-.188.022-.375.041-.564.057l1.911-1.8.344-.323,2.663-2.505.344-.323,2.7-2.542.344-.323,2.662-2.5.344-.323,2.663-2.5.344-.323,1.154-1.085C2204.821,835.446,2204.854,835.572,2204.885,835.7Z" transform="translate(-2189.309 -835.32)" fill="#eff5ff"/>
          </g>
          <g id="Group_5354" data-name="Group 5354" transform="translate(5.954 3.536)">
            <path id="Path_12589" data-name="Path 12589" d="M2258.807,870.566c0,.008,0,.017,0,.025-.147.3-.3.587-.459.874l0,0-1.325,1.244-.344.325-2.663,2.5-.344.323-2.662,2.5-.344.325-1.051.988c-.316.153-.638.3-.961.432l2.012-1.891.344-.323,2.662-2.5.344-.323,2.663-2.5.344-.323Z" transform="translate(-2248.654 -870.566)" fill="#eff5ff"/>
          </g>
        </g>
        <g id="Group_5360" data-name="Group 5360">
          <g id="Group_5356" data-name="Group 5356">
            <path id="Path_12590" data-name="Path 12590" d="M1897.029,654.449h0l-.349.329-.344.323-2.662,2.5-.344.323-2.662,2.5-.344.323-2.663,2.5-.344.323-1.391,1.309c.034.123.07.245.109.368l1.282-1.205.344-.323,2.663-2.505.344-.323,2.662-2.5.344-.323,2.662-2.5.344-.323.938-.882Z" transform="translate(-1885.924 -654.366)" fill="#eff5ff"/>
          </g>
          <g id="Group_5357" data-name="Group 5357" transform="translate(1.215 0.058)">
            <path id="Path_12591" data-name="Path 12591" d="M1912.762,655.02l-1.676,1.576-.344.323-3.17,2.981-.344.323-2.662,2.5-.344.323-2.662,2.5-.344.323-2.663,2.505-.344.323,0,0c-.058-.1-.117-.205-.173-.308l.177-.166.344-.323,2.663-2.505.344-.323,2.662-2.5.344-.323,2.662-2.5.344-.323,3.17-2.981.344-.323,1.248-1.174h0C1912.478,654.97,1912.62,654.994,1912.762,655.02Z" transform="translate(-1898.031 -654.949)" fill="#eff5ff"/>
          </g>
          <g id="Group_5358" data-name="Group 5358" transform="translate(2.949 0.916)">
            <path id="Path_12592" data-name="Path 12592" d="M1931.363,663.5l.4.1-2.114,1.988-.344.323-2.663,2.5-.344.323-3.17,2.982-.344.323-2.662,2.5-.344.323-2.662,2.5-.344.323-1.222,1.148c-.078-.085-.154-.171-.228-.258l1.45-1.364.344-.323,2.662-2.5.344-.323,2.662-2.5.344-.323,3.17-2.981.344-.323,2.663-2.5.344-.323Z" transform="translate(-1915.316 -663.501)" fill="#eff5ff"/>
          </g>
          <g id="Group_5359" data-name="Group 5359" transform="translate(5.147 1.799)">
            <path id="Path_12593" data-name="Path 12593" d="M1954.523,672.292l.393.1-2.558,2.406-.344.323-2.662,2.5-.344.323-2.663,2.505-.344.323-3.171,2.981-.344.323-2.662,2.5-.344.323-2.007,1.888-.251-.235,2.258-2.123.344-.323,2.662-2.5.344-.323,3.171-2.981.344-.323,2.663-2.5.344-.325,2.662-2.5.344-.323Z" transform="translate(-1937.222 -672.292)" fill="#eff5ff"/>
          </g>
        </g>
      </g>
    </g>
    <path id="Path_12594" data-name="Path 12594" d="M1196.962,987.088c-1.333,1.084-4.157,5.47-4.157,5.47s32.909,5.541,48.814,4.623,19.937-3.259,19.937-3.259a31.421,31.421,0,0,0-6.441-6.835s-4.4-2.9-11.241,0c-5.924,2.51-12.218-3.059-21.8-2.523-5.206.291-8.754,3.451-13.682,2.145C1202.3,985.094,1199.032,985.405,1196.962,987.088Z" transform="translate(-954.63 -743.577)" fill="#a3b3ce"/>
    <g id="Group_5366" data-name="Group 5366" transform="translate(245.977 244.438)">
      <ellipse id="Ellipse_440" data-name="Ellipse 440" cx="25.911" cy="20.521" rx="25.911" ry="20.521" transform="translate(0 0)" fill="#c9ddff"/>
      <g id="Group_5363" data-name="Group 5363" transform="translate(3.013 2.339)">
        <path id="Path_12595" data-name="Path 12595" d="M1323.5,1078.97a26.048,26.048,0,0,1-16.171-5.308c-4.337-3.435-6.726-8.007-6.726-12.874s2.389-9.439,6.726-12.874a27.288,27.288,0,0,1,32.343,0c4.337,3.435,6.726,8.007,6.726,12.874s-2.389,9.439-6.726,12.874A26.048,26.048,0,0,1,1323.5,1078.97Zm0-35.911c-12.376,0-22.445,7.953-22.445,17.729s10.068,17.729,22.445,17.729,22.445-7.953,22.445-17.729S1335.877,1043.059,1323.5,1043.059Z" transform="translate(-1300.604 -1042.606)" fill="#a3b3ce"/>
      </g>
      <g id="Group_5364" data-name="Group 5364" transform="translate(7.786 18.046)">
        <path id="Path_12596" data-name="Path 12596" d="M1348.179,1199.433h1.77a1.513,1.513,0,0,1,1.708,1.513c0,1.007-.807,1.534-1.795,1.535h-.892v1.443h-.789Zm1.708,2.334c.6,0,.968-.334.968-.816,0-.526-.379-.8-.969-.8h-.917v1.617Z" transform="translate(-1348.179 -1199.405)" fill="#a3b3ce"/>
        <path id="Path_12597" data-name="Path 12597" d="M1397.291,1199.382l3.329,0v.705l-2.54,0v1.167l2.252,0v.706l-2.252,0v1.206l2.573,0v.706l-3.362,0Z" transform="translate(-1392.364 -1199.357)" fill="#a3b3ce"/>
        <path id="Path_12598" data-name="Path 12598" d="M1446.531,1199.352l2,0c1.052,0,1.668.563,1.669,1.429a1.347,1.347,0,0,1-1.07,1.361l1.214,1.7h-.93l-1.117-1.564h-.975v1.565h-.789Zm1.946,2.224c.565,0,.924-.3.923-.764s-.347-.744-.931-.743h-1.148v1.508Z" transform="translate(-1436.663 -1199.331)" fill="#a3b3ce"/>
        <path id="Path_12599" data-name="Path 12599" d="M1499.16,1199.3l3.342,0v.718l-2.553,0v1.225l2.265,0v.719l-2.264,0v1.828h-.789Z" transform="translate(-1484.012 -1199.282)" fill="#a3b3ce"/>
        <path id="Path_12600" data-name="Path 12600" d="M1546.8,1201.84l0-2.585h.789l0,2.553c0,.834.431,1.283,1.137,1.282s1.129-.424,1.128-1.252l0-2.585h.789l0,2.547a1.793,1.793,0,0,1-1.929,2.016A1.77,1.77,0,0,1,1546.8,1201.84Z" transform="translate(-1526.874 -1199.243)" fill="#a3b3ce"/>
        <path id="Path_12601" data-name="Path 12601" d="M1602.309,1199.2h.84l1.368,2.122,1.365-2.124h.84l0,4.491h-.789l0-3.22-1.416,2.118h-.026l-1.406-2.1,0,3.207h-.776Z" transform="translate(-1576.813 -1199.197)" fill="#a3b3ce"/>
        <path id="Path_12602" data-name="Path 12602" d="M1664.209,1199.163l3.329,0v.705l-2.54,0v1.168l2.251,0v.706l-2.251,0v1.206l2.572,0v.706l-3.362,0Z" transform="translate(-1632.502 -1199.16)" fill="#a3b3ce"/>
      </g>
      <g id="Group_5365" data-name="Group 5365" transform="translate(14.229 12.911)">
        <rect id="Rectangle_2189" data-name="Rectangle 2189" width="22.187" height="0.306" transform="translate(0 14.537)" fill="#eff5ff"/>
        <rect id="Rectangle_2190" data-name="Rectangle 2190" width="22.187" height="0.306" fill="#eff5ff"/>
      </g>
    </g>
    <path id="Path_12603" data-name="Path 12603" d="M1669.918,906.663c2.179,3.032,2.126,6.8-.118,8.409s-5.829.461-8.008-2.571-2.126-6.8.118-8.409S1667.739,903.631,1669.918,906.663Z" transform="translate(-1375.125 -670.555)" fill="#74828e"/>
    <path id="Path_12604" data-name="Path 12604" d="M1598.643,900.092c.468,1.575-.1,3.132-1.264,3.478s-2.489-.65-2.957-2.225.1-3.132,1.264-3.478S1598.175,898.517,1598.643,900.092Z" transform="translate(-1315.806 -665.549)" fill="#74828e"/>
    <g id="Group_5367" data-name="Group 5367" transform="translate(269.974 251.308)">
      <path id="Path_12605" data-name="Path 12605" d="M1537.151,1094.026a1.066,1.066,0,1,1-1.028-1.244.807.807,0,0,1,1.028,1.244Z" transform="translate(-1532.71 -1092.112)" fill="#a3b3ce"/>
      <path id="Path_12606" data-name="Path 12606" d="M1521.347,1088.2a1.066,1.066,0,1,1-1.429.75.807.807,0,0,1,1.429-.75Z" transform="translate(-1518.815 -1087.765)" fill="#a3b3ce"/>
      <path id="Path_12607" data-name="Path 12607" d="M1510.475,1104.872a1.066,1.066,0,1,1,.176,1.6.807.807,0,0,1-.176-1.6Z" transform="translate(-1509.755 -1103.153)" fill="#a3b3ce"/>
      <path id="Path_12608" data-name="Path 12608" d="M1523.31,1112.02a1.066,1.066,0,1,1,1.563.405.807.807,0,0,1-1.562-.405Z" transform="translate(-1521.927 -1108.233)" fill="#a3b3ce"/>
      <path id="Path_12609" data-name="Path 12609" d="M1536.934,1112.541a1.066,1.066,0,1,1,.965-1.294.807.807,0,1,1-.965,1.294Z" transform="translate(-1533.364 -1108.504)" fill="#a3b3ce"/>
      <path id="Path_12610" data-name="Path 12610" d="M1533.941,1108.67a.266.266,0,1,0-.266.266A.266.266,0,0,0,1533.941,1108.67Z" transform="translate(-1531.036 -1106.333)" fill="#fcecdb"/>
    </g>
    <g id="Group_5370" data-name="Group 5370" transform="translate(170.312 236.157)">
      <path id="Path_12611" data-name="Path 12611" d="M825.533,939.759s.145-2.508-3.026-2.951a3.849,3.849,0,0,0-3.54,1.309c-2.315,2.362-.964,7.4-1.738,8.409s-6.5-1.109-5.506,4.5c.571,3.22,5.161,8.5,11.063,9.019,0,0,4.9-.725,2.2-4.928-.72-1.124-2.42-2.525-.946-4.545C824.352,950.146,825.533,939.759,825.533,939.759Z" transform="translate(-781.988 -936.751)" fill="#2c3a64"/>
      <path id="Path_12612" data-name="Path 12612" d="M642.368,1226.282l.075.133c.6,1.042,1.975,3.6,3.491,6.391.717,1.326,1.467,2.707,2.179,4.006,1.227,2.241,2.343,4.238,2.994,5.293.662,1.073,1.15,1.826,1.347,2.128l0,0a.5.5,0,0,1,.064.311,16.261,16.261,0,0,0,.043,2.811,21.563,21.563,0,0,0,7.046,13.966l1.823.269s-2.58-9.558-3.34-14.962a10.394,10.394,0,0,1-.14-2.142,22.372,22.372,0,0,0-.588-5.848,130.973,130.973,0,0,0-3.728-13.536c-.085-.265-2.649-9.539-2.649-9.539-2.152,1.881-10,2.657-10,2.657S639.655,1221.457,642.368,1226.282Z" transform="translate(-628.193 -1187.591)" fill="#2b478b"/>
      <path id="Path_12613" data-name="Path 12613" d="M871.49,1110.512s-3.724-.11-3.913,3.168,3.8,15.961,4.627,17.112c1.5,2.095,7.757,7.633,7.757,7.633l1.644-.928s-5.434-9.376-6.369-10.216C873.768,1125.963,873.258,1111.528,871.49,1110.512Z" transform="translate(-832.338 -1093.079)" fill="#ffa8a7"/>
      <path id="Path_12614" data-name="Path 12614" d="M817.234,1659.359h-7.609a4.179,4.179,0,0,1,.215-2.04c.381-.844.924-.871.069-2.194a4.632,4.632,0,0,0,3.138.556,9.324,9.324,0,0,0,1.319,2.008C814.863,1658.046,817.081,1657.919,817.234,1659.359Z" transform="translate(-780.168 -1583.052)" fill="#233862"/>
      <path id="Path_12615" data-name="Path 12615" d="M657.69,1282.155l.075.133c.6,1.042,3.843,7.033,5.358,9.828a40.524,40.524,0,0,1-.535-14.447Z" transform="translate(-643.514 -1243.464)" fill="#2c3a64"/>
      <path id="Path_12616" data-name="Path 12616" d="M886.859,961.654a30.493,30.493,0,0,0-4.569,2.234c-2.062,2.287-1.474,5.271-.294,5.3.756.018.61,1.276.61,1.276l8.428-3.565S890.019,960.981,886.859,961.654Z" transform="translate(-844.352 -959.108)" fill="#2c3a64"/>
      <path id="Path_12617" data-name="Path 12617" d="M872.07,1106.885s1.122,1.163,1.122,4.641a8.064,8.064,0,0,1-5.557,3.059S871.083,1106.883,872.07,1106.885Z" transform="translate(-832.396 -1089.816)" fill="#aec3ff"/>
      <path id="Path_12618" data-name="Path 12618" d="M545.416,1204.547l.026-1.423c-2.835.358-9.776-3.388-9.776-3.388s-2.966,1.973-3.372,7.607c-.2,2.75-1.452,14.381-1.591,17.854-.051,1.259-.067,2.157-.073,2.516a.006.006,0,0,1,0,0,.5.5,0,0,1-.121.293,16.268,16.268,0,0,0-1.536,2.355c-4.327,8.05-2.094,18.832-2.094,18.832l1-.267s3.694-11.172,6.085-16.077a10.264,10.264,0,0,1,1.083-1.854,22.382,22.382,0,0,0,2.781-5.178C539.593,1221.6,545.416,1204.547,545.416,1204.547Z" transform="translate(-525.308 -1173.351)" fill="#2b478b"/>
      <path id="Path_12619" data-name="Path 12619" d="M524.046,1658.866h-7.609a4.179,4.179,0,0,1,.215-2.04c.381-.844.977-1.228.835-2.25a2.74,2.74,0,0,0,2.372.907,8.339,8.339,0,0,0,1.32,1.712C521.675,1657.553,523.893,1657.426,524.046,1658.866Z" transform="translate(-516.395 -1582.559)" fill="#233862"/>
      <path id="Path_12620" data-name="Path 12620" d="M643.992,1074.74c-1.022.174.167.987-1.239,1.14a25.408,25.408,0,0,0-5.149.8,5.049,5.049,0,0,0-1.262,1.071,28.423,28.423,0,0,0-2.332,3.709c-13.249-.6-14.387-6.738-14.387-6.738,8.6-8.352,16.506-13.277,22.543-13.928a7.353,7.353,0,0,1,3.27.958,8.985,8.985,0,0,1,3.5,3.655S647.875,1074.078,643.992,1074.74Z" transform="translate(-609.266 -1048.337)" fill="#aec3ff"/>
      <path id="Path_12621" data-name="Path 12621" d="M803.612,1114.624a25.4,25.4,0,0,0-5.149.8,21.1,21.1,0,0,1,2.676-11.578S803.174,1112.123,803.612,1114.624Z" transform="translate(-770.126 -1087.081)" fill="#94b0ed"/>
      <path id="Path_12622" data-name="Path 12622" d="M812.559,1092.641s-5.031-.275-5.925,2.884,1.677,15.768,2.232,17.069c1.009,2.369,5.92,9.131,5.92,9.131l1.806-.55s-3.275-10.33-4.006-11.353C811.438,1108.218,814.065,1094.015,812.559,1092.641Z" transform="translate(-777.346 -1076.995)" fill="#ffa8a7"/>
      <path id="Path_12623" data-name="Path 12623" d="M798.421,1091.383c.013.074,4.761.874,7.731-.634,0,0,2.481-7.772-1.064-7.4s-5.645,1.489-5.734,3.186A32.673,32.673,0,0,1,798.421,1091.383Z" transform="translate(-770.126 -1068.629)" fill="#aec3ff"/>
      <path id="Path_12624" data-name="Path 12624" d="M876.91,1046.78s1.4,5.219,3.5,3.655a4.311,4.311,0,0,1,.741-1.729c.553-.951,1.212-1.923,1.212-1.923l-2.848-2.495-.17-.149A7.521,7.521,0,0,1,876.91,1046.78Z" transform="translate(-840.74 -1033.365)" fill="#ffa8a7"/>
      <path id="Path_12625" data-name="Path 12625" d="M905.3,1048.12s-.658.97-1.212,1.922c-1.77-1.091-1.772-3.283-1.636-4.418Z" transform="translate(-863.672 -1034.701)" fill="#f19998"/>
      <path id="Path_12626" data-name="Path 12626" d="M904.319,1003.738s-4.3-2.391-2.767-5.045,2.006-4.749,4.815-3.335,2.753,2.732,2.458,3.742S905.477,1004.291,904.319,1003.738Z" transform="translate(-862.614 -989.068)" fill="#ffa8a7"/>
      <path id="Path_12627" data-name="Path 12627" d="M905.5,994.329c-.2-1.178-.8-1.291-1.213-1.212a3.437,3.437,0,0,0-4.18-1.6,5.851,5.851,0,0,1-3.387,2.035s.5.928,2.554,1.5a3.511,3.511,0,0,0,2.027-.162,11.473,11.473,0,0,1-2.916,1.1,8.36,8.36,0,0,0,5.435-1.741c.438.235.72.374.746.975a4.789,4.789,0,0,1-.87,2.478S905.8,996.1,905.5,994.329Z" transform="translate(-858.563 -985.845)" fill="#2c3a64"/>
      <g id="Group_5369" data-name="Group 5369" transform="translate(38.956 35.195)">
        <path id="Path_12628" data-name="Path 12628" d="M911.677,1287.789a.9.9,0,0,0-1.308.083,24.858,24.858,0,0,0,36.315,33.818.9.9,0,0,0-.01-1.31Z" transform="translate(-904.686 -1287.547)" fill="#a3b3ce"/>
        <g id="Group_5368" data-name="Group 5368" transform="translate(1.588 2.136)">
          <path id="Path_12629" data-name="Path 12629" d="M957.855,1476.29a1.447,1.447,0,0,0-.858,1.445,11.54,11.54,0,0,0,3.751,6.007,11.229,11.229,0,0,0,4.99,3.061,2.142,2.142,0,0,0,2.168-1.366l6.683-15.442c.363-.839-.241-1.445-1.059-1.061Z" transform="translate(-953.319 -1452.765)" fill="#c9ddff"/>
          <path id="Path_12630" data-name="Path 12630" d="M1070.219,1495.684a1.551,1.551,0,0,0,.258,1.654,10.27,10.27,0,0,0,6.271,2.2,8.93,8.93,0,0,0,5.088-1.064,2.281,2.281,0,0,0,.693-2.452l-4.466-16.047c-.243-.872-1.015-.934-1.354-.109Z" transform="translate(-1055.088 -1462.181)" fill="#c9ddff"/>
          <path id="Path_12631" data-name="Path 12631" d="M924.428,1421.562a1.515,1.515,0,0,1-1.658-.246,10.6,10.6,0,0,1-2.229-6.385,9.651,9.651,0,0,1,.919-5.333,2.233,2.233,0,0,1,2.441-.746l16.116,4.413c.876.24.95,1.037.13,1.4Z" transform="translate(-920.509 -1398.739)" fill="#c9ddff"/>
          <path id="Path_12632" data-name="Path 12632" d="M1158.459,1495.264c.18.6.733,1.164,1.207,1.155a11.59,11.59,0,0,0,5.5-1.246c1.967-.985,3.188-1.73,3.305-3.549.11-1.72-13.84-13.329-13.84-13.329-.715-.547-1.327-.146-1.072.7Z" transform="translate(-1130.128 -1461.067)" fill="#c9ddff"/>
          <path id="Path_12633" data-name="Path 12633" d="M936.82,1318.047c-.6-.174-1.188-.721-1.168-1.194a10.646,10.646,0,0,1,1.812-5.957c1-1.419,1.65-3.462,4.637-.68l11.729,11.471c.555.709.16,1.325-.691,1.079Z" transform="translate(-934.132 -1308.833)" fill="#c9ddff"/>
        </g>
      </g>
      <path id="Path_12634" data-name="Path 12634" d="M885.795,1374.274a4.417,4.417,0,0,0,.573,1.005,5.847,5.847,0,0,1,1.2,2.209s-.05.26-.261.213-.944-.774-1.321-.722a3.265,3.265,0,0,0-.19,1.336,3.874,3.874,0,0,1-.283,2.53c-.119.286-1.152-1.906-1.4-2.687a10.075,10.075,0,0,1-.213-2.714,3.626,3.626,0,0,0-.535-1.487Z" transform="translate(-846.549 -1330.094)" fill="#ffa8a7"/>
    </g>
    <g id="Group_5372" data-name="Group 5372" transform="translate(209.239 200.422)">
      <g id="Group_5371" data-name="Group 5371" transform="translate(0 0)">
        <path id="Path_12635" data-name="Path 12635" d="M936.425,581.874a8.85,8.85,0,0,1-.755,4.074,8.849,8.849,0,0,1-2.591-3.234,1.725,1.725,0,1,1,3.346-.84Z" transform="translate(-930.154 -580.569)" fill="#ffe0b6"/>
        <path id="Path_12636" data-name="Path 12636" d="M906.051,616.7a8.85,8.85,0,0,1,3.832,1.577,8.851,8.851,0,0,1-3.7,1.87,1.725,1.725,0,0,1-.134-3.447Z" transform="translate(-904.393 -613.075)" fill="#ffe0b6"/>
        <path id="Path_12637" data-name="Path 12637" d="M928.2,636.526a8.85,8.85,0,0,1,2.869-2.989,8.85,8.85,0,0,1,.388,4.125,1.725,1.725,0,1,1-3.258-1.136Z" transform="translate(-925.724 -628.22)" fill="#ffe0b6"/>
        <path id="Path_12638" data-name="Path 12638" d="M958.825,635.632a8.85,8.85,0,0,1-1.778-3.743,8.851,8.851,0,0,1,4,1.1,1.725,1.725,0,1,1-2.217,2.643Z" transform="translate(-951.75 -626.706)" fill="#ffe0b6"/>
        <path id="Path_12639" data-name="Path 12639" d="M962.6,600.621a8.85,8.85,0,0,1-4.137.233,8.849,8.849,0,0,1,2.527-3.284,1.725,1.725,0,0,1,1.61,3.051Z" transform="translate(-953.032 -595.685)" fill="#ffe0b6"/>
      </g>
      <path id="Path_12640" data-name="Path 12640" d="M953.667,626.489a.568.568,0,1,0,.269.757A.568.568,0,0,0,953.667,626.489Z" transform="translate(-947.993 -621.832)" fill="#a3b3ce"/>
    </g>
    <g id="Group_5382" data-name="Group 5382" transform="translate(274.313 289.663)">
      <g id="Group_5373" data-name="Group 5373" transform="translate(0 11.643)">
        <path id="Path_12641" data-name="Path 12641" d="M1575.5,1588.849c-2.8,0-9.821,6.408-11.346,7.8s-9.4.609-10.7.325a.524.524,0,0,1-.4-.4c-.342-1.166,1.345-4.548,5.328-7.644,4.735-3.678,17.041-2.708,17.041-2.708s1.186,1.082,1.294,1.86C1576.772,1588.51,1576.5,1588.848,1575.5,1588.849Z" transform="translate(-1553.004 -1586.103)" fill="#89c174"/>
        <path id="Path_12642" data-name="Path 12642" d="M1576.71,1588.079c-.354-.044-.74-.1-1.162-.175-11.855-2.063-22.1,9.071-22.1,9.071l-.4-.4c-.342-1.166,1.345-4.548,5.328-7.644,4.735-3.678,17.041-2.708,17.041-2.708S1576.6,1587.3,1576.71,1588.079Z" transform="translate(-1553.004 -1586.103)" fill="#89c174"/>
      </g>
      <g id="Group_5374" data-name="Group 5374" transform="translate(24.775 9.345)">
        <path id="Path_12643" data-name="Path 12643" d="M1801.052,1567.407c2.148-.612,8.937,2.753,10.412,3.486s7.339-1.6,8.274-2.1a.418.418,0,0,0,.22-.4c.006-.969-2.031-3.191-5.765-4.689-4.438-1.779-13.658,1.67-13.658,1.67a3.685,3.685,0,0,0-.583,1.711C1800,1567.427,1800.284,1567.626,1801.052,1567.407Z" transform="translate(-1799.944 -1563.193)" fill="#89c174"/>
        <path id="Path_12644" data-name="Path 12644" d="M1799.952,1567.083c.261-.112.545-.24.852-.389,8.634-4.187,18.933,2.1,18.933,2.1l.22-.4c.006-.969-2.031-3.191-5.765-4.689-4.438-1.779-13.658,1.67-13.658,1.67A3.685,3.685,0,0,0,1799.952,1567.083Z" transform="translate(-1799.944 -1563.193)" fill="#89c174"/>
      </g>
      <g id="Group_5375" data-name="Group 5375" transform="translate(24.316)">
        <path id="Path_12645" data-name="Path 12645" d="M1797.048,1481.937c1.283-1.828,8.676-3.488,10.284-3.847s4.694-5.864,5.1-6.843a.418.418,0,0,0-.08-.448c-.605-.756-3.587-1.2-7.431-.013-4.568,1.412-9.559,9.9-9.559,9.9a3.686,3.686,0,0,0,.624,1.7C1796.244,1482.616,1796.59,1482.591,1797.048,1481.937Z" transform="translate(-1795.366 -1470.053)" fill="#a8d29f"/>
        <path id="Path_12646" data-name="Path 12646" d="M1795.99,1482.378c.133-.251.273-.529.417-.839,4.071-8.69,16.029-10.293,16.029-10.293l-.08-.448c-.605-.756-3.587-1.2-7.431-.013-4.568,1.412-9.559,9.9-9.559,9.9A3.686,3.686,0,0,0,1795.99,1482.378Z" transform="translate(-1795.366 -1470.053)" fill="#9ac98f"/>
      </g>
      <path id="Path_12647" data-name="Path 12647" d="M1631.666,1498.33c.313-.288-3.534-6.545-6.688-7.144-3.448-.654-8.612.26-8.464,5.068.086,2.783,10.9,4.8,12.148,4.394A10.415,10.415,0,0,0,1631.666,1498.33Z" transform="translate(-1610.139 -1488.898)" fill="#fff3e1"/>
      <path id="Path_12648" data-name="Path 12648" d="M1754.211,1484.229s.635-6.716,5.279-7.591,7.27-.686,7.917,1.09a5.259,5.259,0,0,1-1.8,5.779,46.4,46.4,0,0,1-7.1,2.8Z" transform="translate(-1734.024 -1475.52)" fill="#fff3e1"/>
      <path id="Path_12649" data-name="Path 12649" d="M1760.01,1573.11c-.291.4,4.039,8.722,7.239,9.411,3.5.753,8.589-.683,8.069-7.183-.3-3.762-11.271-6.081-12.484-5.48S1760.01,1573.11,1760.01,1573.11Z" transform="translate(-1739.229 -1559.759)" fill="#fff3e1"/>
      <path id="Path_12650" data-name="Path 12650" d="M1644.91,1577.65s-2.27,8.826-7.037,9.066-7.295-.535-7.494-3.032,1.1-6.171,3.185-7.344,7.648-2.314,7.648-2.314Z" transform="translate(-1622.599 -1563.595)" fill="#fff3e1"/>
      <path id="Path_12651" data-name="Path 12651" d="M1739.483,1550.046l-.943.029a2.27,2.27,0,0,1-2.331-2.194l-.042-1.382a2.27,2.27,0,0,1,2.194-2.331l.943-.029a2.27,2.27,0,0,1,2.331,2.194l.042,1.383A2.27,2.27,0,0,1,1739.483,1550.046Z" transform="translate(-1717.79 -1536.705)" fill="#fff3e1"/>
      <g id="Group_5381" data-name="Group 5381" transform="translate(16.38 3.42)">
        <g id="Group_5376" data-name="Group 5376" transform="translate(4.595 1.648)">
          <path id="Path_12652" data-name="Path 12652" d="M1762.439,1526.874l-.371-.068a12.615,12.615,0,0,1,3.361-6.234l.26.275A12.449,12.449,0,0,0,1762.439,1526.874Z" transform="translate(-1762.068 -1520.572)" fill="#ffd1ae"/>
        </g>
        <g id="Group_5377" data-name="Group 5377" transform="translate(2.021)">
          <path id="Path_12653" data-name="Path 12653" d="M1738.892,1511.873l-.376-.018c.172-3.463-2.087-7.484-2.109-7.524l.328-.186C1736.829,1504.314,1739.07,1508.3,1738.892,1511.873Z" transform="translate(-1736.406 -1504.146)" fill="#ffd1ae"/>
        </g>
        <g id="Group_5378" data-name="Group 5378" transform="translate(0.187 2.135)">
          <path id="Path_12654" data-name="Path 12654" d="M1720.9,1530.547c-.241-2.425-2.75-4.82-2.775-4.844l.258-.275c.108.1,2.637,2.515,2.892,5.08Z" transform="translate(-1718.126 -1525.429)" fill="#ffd1ae"/>
        </g>
        <g id="Group_5379" data-name="Group 5379" transform="translate(4.867 5.089)">
          <path id="Path_12655" data-name="Path 12655" d="M1765.126,1558.645l-.356-.124c.713-2.062,4.135-3.591,4.281-3.655l.152.345C1769.169,1555.226,1765.786,1556.737,1765.126,1558.645Z" transform="translate(-1764.77 -1554.866)" fill="#ffd1ae"/>
        </g>
        <g id="Group_5380" data-name="Group 5380" transform="translate(0 5.069)">
          <path id="Path_12656" data-name="Path 12656" d="M1720.624,1558.511c-1.116-2.168-4.327-3.473-4.36-3.485l.14-.351c.137.056,3.375,1.372,4.555,3.665Z" transform="translate(-1716.264 -1554.675)" fill="#ffd1ae"/>
        </g>
        <path id="Path_12657" data-name="Path 12657" d="M1755.4,1578.741a1.052,1.052,0,1,1-1.046-.77A.932.932,0,0,1,1755.4,1578.741Z" transform="translate(-1749.632 -1570.563)" fill="#ffd1ae"/>
      </g>
      <path id="Path_12658" data-name="Path 12658" d="M1733.92,1499.658h0a.441.441,0,0,1-.583-.217l-.249-.543a.441.441,0,0,1,.217-.583h0a.441.441,0,0,1,.583.216l.249.543A.442.442,0,0,1,1733.92,1499.658Z" transform="translate(-1714.984 -1495.443)" fill="#f2cd64"/>
      <path id="Path_12659" data-name="Path 12659" d="M1715.47,1522.04h0a.441.441,0,0,1-.622-.014l-.413-.432a.442.442,0,0,1,.014-.622h0a.442.442,0,0,1,.622.014l.413.432A.441.441,0,0,1,1715.47,1522.04Z" transform="translate(-1698.129 -1515.755)" fill="#f2cd64"/>
      <path id="Path_12660" data-name="Path 12660" d="M1712.712,1551.729h0a.441.441,0,0,1-.584.215l-.542-.25a.442.442,0,0,1-.216-.584h0a.441.441,0,0,1,.584-.215l.543.25A.442.442,0,0,1,1712.712,1551.729Z" transform="translate(-1695.446 -1542.748)" fill="#f2cd64"/>
      <path id="Path_12661" data-name="Path 12661" d="M1790.214,1517.117h0a.442.442,0,0,1,.019.622l-.41.435a.441.441,0,0,1-.622.019h0a.441.441,0,0,1-.019-.622l.409-.435A.441.441,0,0,1,1790.214,1517.117Z" transform="translate(-1765.38 -1512.288)" fill="#f2cd64"/>
      <path id="Path_12662" data-name="Path 12662" d="M1802.5,1551.166h0a.442.442,0,0,1-.207.587l-.539.258a.442.442,0,0,1-.587-.207h0a.442.442,0,0,1,.207-.587l.539-.258A.442.442,0,0,1,1802.5,1551.166Z" transform="translate(-1776.233 -1542.803)" fill="#f2cd64"/>
    </g>
    <g id="Group_5395" data-name="Group 5395" transform="translate(333.798 214.487)">
      <path id="Path_12663" data-name="Path 12663" d="M2344.617,1136.263h0s-1.2.9-1.493,1.188-.148.276.233.349a1.349,1.349,0,0,0,.694-.164c-.155.663-.25,1.35-.343,1.643-.157.493-.435,1.986.388,1.944s1.911-1.717,2.184-2.547a3.982,3.982,0,0,1,1.235-1.552l-1.022-1.538A3.627,3.627,0,0,0,2344.617,1136.263Z" transform="translate(-2323.199 -1093.97)" fill="#ffa8a7"/>
      <g id="Group_5394" data-name="Group 5394" transform="translate(0 0)">
        <g id="Group_5383" data-name="Group 5383" transform="translate(10.878)">
          <path id="Path_12664" data-name="Path 12664" d="M2423.7,1191.96l1.714.638s7.446-10.327,8.363-19.413a14.655,14.655,0,0,0-.07-3.772,6.085,6.085,0,0,1,.021-2l0-.022c.059-.343.132-.756.214-1.229.242-1.387.575-3.285.956-5.446.876-4.973,2.011-11.33,2.893-16l-.462-.148-5-1.612-1.033-3.281-3.722-.98s-.831,1.626-1.574,9.309c-.137,1.008-.262,2.119-.355,3.324a65.777,65.777,0,0,0,.354,13.457q.256,2,.654,4.13a18.44,18.44,0,0,1,.143,4.079C2426.43,1180.417,2423.7,1191.96,2423.7,1191.96Z" transform="translate(-2406.71 -1096.76)" fill="#2b478b"/>
          <path id="Path_12665" data-name="Path 12665" d="M2443.151,1151.324l8.081,16.066c.059-.343.132-.756.214-1.229.242-1.387.575-3.285.956-5.446.876-4.973,2.011-11.33,2.893-16l-.462-.148-5-1.612-1.033-3.281-3.721-.98s-.832,1.626-1.575,9.309C2443.369,1149.007,2443.245,1150.119,2443.151,1151.324Z" transform="translate(-2424.206 -1096.76)" fill="#2c3a64"/>
          <path id="Path_12666" data-name="Path 12666" d="M2478.586,1124l.187-1.6c3.134.833,11.509-2.326,11.509-2.326s3.036,2.669,2.638,9.067c-.195,3.123-1.257,17.9-.016,20.654,4.259,9.456.17,26.484.17,26.484l-1.566.48s-2.393-13.307-4.337-19.185a11.653,11.653,0,0,0-.936-2.249,25.378,25.378,0,0,1-2.342-6.245,153.608,153.608,0,0,1-3.15-16.567C2480.642,1132.509,2478.586,1124,2478.586,1124Z" transform="translate(-2456.086 -1080.003)" fill="#2b478b"/>
          <path id="Path_12667" data-name="Path 12667" d="M2254.325,946.9l.234,1.57s.1,0,.285-.013c.571-.039,1.959-.117,3.529-.285,2.361-.234,5.164-.649,6.279-1.336,1.7-1.038,4.489-4.216,6.305-7.395a2.175,2.175,0,0,0,.13-.233,11.408,11.408,0,0,0,1.66-4.7,6.7,6.7,0,0,0-.22-2.128,5.424,5.424,0,0,0-.96-1.92.977.977,0,0,0-.182-.221,4.481,4.481,0,0,0-1.232-1.051c-.312-.13-.649.026-1,.4v.013a5.958,5.958,0,0,0-.9,1.323c-.013.013-.026.026-.026.039-.065.117-.13.246-.208.389a.329.329,0,0,0-.052.091q-.214.448-.428.934c-1.6,3.477-3.3,8.744-4.709,10.314-.61.675-3.4,2-5.618,2.984C2255.622,946.377,2254.325,946.9,2254.325,946.9Z" transform="translate(-2254.325 -908.236)" fill="#ffa8a7"/>
          <path id="Path_12668" data-name="Path 12668" d="M2401.418,903.48c.041.108.085.213.135.321,1.365,2.939,4.511,15.449,4.511,15.449,4.537.76,14.444-.491,15.763-2.3.084-.9-1.99-5.969-3.509-7.673a4.825,4.825,0,0,1-.509-.686,4.773,4.773,0,0,1-.688-2.01,69.481,69.481,0,0,1-.21-7.083h0c-.3-.22-.583-.423-.851-.616a7.592,7.592,0,0,1-1.036-.859,1.568,1.568,0,0,1-.5-.978,5.194,5.194,0,0,1,.021-.82c.013-.13.029-.26.049-.39a11.123,11.123,0,0,1,.781-2.608,10.881,10.881,0,0,0-4.21-.551c-8.281.6-10.2,4-10.2,4C2402.356,897.58,2400.343,900.629,2401.418,903.48Z" transform="translate(-2386.254 -875.411)" fill="#aec3ff"/>
          <path id="Path_12669" data-name="Path 12669" d="M2387.464,932.725s-1.31,2.284-1.505,2.871a2.728,2.728,0,0,1,2.384,1.241S2388.506,933.033,2387.464,932.725Z" transform="translate(-2372.752 -911.459)" fill="#aec3ff"/>
          <path id="Path_12670" data-name="Path 12670" d="M2477.32,962.963c3.316-.035,6.123-3.478,7.839-6.23a4.787,4.787,0,0,1-.688-2.01,69.614,69.614,0,0,1-.21-7.083h0c-.3-.22-.584-.423-.851-.616a7.583,7.583,0,0,1-1.036-.859C2479.659,950.754,2472.824,963.01,2477.32,962.963Z" transform="translate(-2453.604 -923.55)" fill="#94b0ed"/>
          <path id="Path_12671" data-name="Path 12671" d="M2555.014,1654.688h8.634a4.742,4.742,0,0,0-.244-2.314c-.432-.958-1.109-1.394-.947-2.552a3.109,3.109,0,0,1-2.691,1.03,9.452,9.452,0,0,1-1.5,1.942C2557.7,1653.2,2555.188,1653.054,2555.014,1654.688Z" transform="translate(-2524.846 -1556.61)" fill="#233862"/>
          <path id="Path_12672" data-name="Path 12672" d="M2370.23,1658.161h8.634a3.589,3.589,0,0,0-.244-2.314,1.664,1.664,0,0,1,.062-1.987,3.353,3.353,0,0,1-1.454.274,3.041,3.041,0,0,1-1.284-.452,31.015,31.015,0,0,1-2.46,2.584C2372.92,1656.671,2370.4,1656.526,2370.23,1658.161Z" transform="translate(-2358.601 -1560.082)" fill="#233862"/>
          <path id="Path_12673" data-name="Path 12673" d="M2358.79,938.727l.348,1.34s4.312-.9,5.259-1.112h.013c1.622-.389,3.438-.856,4.969-1.375a13.654,13.654,0,0,0,2.646-1.18,1.6,1.6,0,0,0,.182-.13c1.518-1.1,3.321-4.346,4.722-7.823.195-.48.376-.96.558-1.427a35.551,35.551,0,0,0,1.479-4.93,13.931,13.931,0,0,0,.35-2.348,5.7,5.7,0,0,0,.013-.662c-.026-3.762-3.944-2.322-4.424-1.271-.739,1.674-1.518,3.84-2.244,5.994-.4,1.18-.791,2.361-1.18,3.451-.221.662-.441,1.284-.649,1.855a17.807,17.807,0,0,1-1.09,2.53,6.276,6.276,0,0,1-1.6,1.44C2366.771,934.077,2358.79,938.727,2358.79,938.727Z" transform="translate(-2348.309 -896.986)" fill="#ffa8a7"/>
          <path id="Path_12674" data-name="Path 12674" d="M2500.076,903.7c2.5-.689,6.369,1.138,6.369,1.138,1.029-5.46-1.9-6.642-1.9-6.642C2503.791,897.888,2500.975,901.685,2500.076,903.7Z" transform="translate(-2475.42 -880.381)" fill="#aec3ff"/>
          <path id="Path_12675" data-name="Path 12675" d="M2396.67,723.639c.009-.234.189-2.751,4.024-2.882,0,0-1.885.225-2.211,1.054,0,0,1.284-1.024,2.33-.695s1.66,2.161,1.666,2.764-.575,2.545-1.238,2.71a2.028,2.028,0,0,1-.8,0,9.075,9.075,0,0,1,.515.92c1.53,3.141-.048,6.21-1.344,5.871-.83-.218-1.065,1.2-1.065,1.2l-8.071-6.534S2393.435,721.913,2396.67,723.639Z" transform="translate(-2376.812 -720.757)" fill="#2c3a64"/>
          <path id="Path_12676" data-name="Path 12676" d="M2433.868,856.157a19.69,19.69,0,0,1-1.953-5.049l-.232.108-3.888,1.828s.412,1.265.718,2.476c.238.948.29,2.061.71,2.224C2430.255,858.494,2433.881,857.141,2433.868,856.157Z" transform="translate(-2410.391 -838.03)" fill="#ffa8a7"/>
          <path id="Path_12677" data-name="Path 12677" d="M2427.793,854.019s.413,1.264.718,2.476c2.273-.634,2.963-3.023,3.17-4.3Z" transform="translate(-2410.389 -839.004)" fill="#f19998"/>
          <path id="Path_12678" data-name="Path 12678" d="M2392.022,795.074s5.437-1.258,4.6-4.632-.7-5.809-4.2-5.148-3.86,2.115-3.855,3.309S2390.586,795.314,2392.022,795.074Z" transform="translate(-2375.097 -778.721)" fill="#ffa8a7"/>
          <path id="Path_12679" data-name="Path 12679" d="M2383.347,781.172c.584-1.223,1.272-1.158,1.7-.941a3.9,3.9,0,0,1,5.061-.433,6.639,6.639,0,0,0,3.055,3.282s-.835.855-3.256.836a3.986,3.986,0,0,1-2.16-.813,13.019,13.019,0,0,0,2.835,2.115c-3.031-.58-4.956-3.592-5.164-3.964a2.146,2.146,0,0,0-1.075,1.391,6.442,6.442,0,0,0-.089,2.773S2382.47,783.006,2383.347,781.172Z" transform="translate(-2370.185 -773.206)" fill="#2c3a64"/>
        </g>
        <g id="Group_5393" data-name="Group 5393" transform="translate(0 24.23)">
          <g id="Group_5384" data-name="Group 5384" transform="translate(0 16.289)">
            <path id="Path_12680" data-name="Path 12680" d="M2163.023,1126.9c-2.453,1.072-6.162,9.363-6.967,11.167s-8.006,4.12-9.254,4.368a.5.5,0,0,1-.508-.2c-.745-.891-.557-4.5,1.753-8.733,2.746-5.03,13.9-8.876,13.9-8.876a4.416,4.416,0,0,1,1.844,1.137C2164.012,1126.116,2163.9,1126.517,2163.023,1126.9Z" transform="translate(-2145.905 -1124.625)" fill="#a8d29f"/>
            <path id="Path_12681" data-name="Path 12681" d="M2163.793,1125.762c-.326.1-.686.194-1.085.29-11.177,2.716-15.906,16.383-15.906,16.383l-.508-.2c-.745-.891-.557-4.5,1.753-8.733,2.746-5.03,13.9-8.876,13.9-8.876A4.416,4.416,0,0,1,2163.793,1125.762Z" transform="translate(-2145.905 -1124.625)" fill="#9ac98f"/>
          </g>
          <g id="Group_5385" data-name="Group 5385" transform="translate(13.77 15.081)">
            <path id="Path_12682" data-name="Path 12682" d="M2292.273,1114.1c-1.5,2.221-.183,11.208.1,13.161s-4.549,7.77-5.47,8.648a.5.5,0,0,1-.536.1c-1.106-.353-2.882-3.5-3.2-8.312-.379-5.719,6.977-14.945,6.977-14.945a4.419,4.419,0,0,1,2.166-.029C2292.687,1112.908,2292.808,1113.305,2292.273,1114.1Z" transform="translate(-2283.155 -1112.585)" fill="#a8d29f"/>
            <path id="Path_12683" data-name="Path 12683" d="M2292.313,1112.725c-.224.256-.476.532-.76.827-7.98,8.284-4.645,22.356-4.645,22.356l-.536.1c-1.106-.353-2.882-3.5-3.2-8.312-.379-5.719,6.977-14.945,6.977-14.945A4.419,4.419,0,0,1,2292.313,1112.725Z" transform="translate(-2283.155 -1112.585)" fill="#9ac98f"/>
          </g>
          <g id="Group_5392" data-name="Group 5392" transform="translate(3.79)">
            <g id="Group_5386" data-name="Group 5386">
              <path id="Path_12684" data-name="Path 12684" d="M2198.26,1042.628c.165-.372-5.6-4.388-8.588-3.709-3.272.742-7.448,3.514-5.484,7.671,1.137,2.406,11.388.049,12.324-.785A9.961,9.961,0,0,0,2198.26,1042.628Z" transform="translate(-2183.683 -1031.159)" fill="#ffdec0"/>
              <path id="Path_12685" data-name="Path 12685" d="M2309.69,973.611s-2.006-6.128,1.73-8.667,6.109-3.375,7.354-2.066a5.027,5.027,0,0,1,.624,5.753,44.337,44.337,0,0,1-5.156,5.162Z" transform="translate(-2296.564 -962.266)" fill="#ffdec0"/>
              <path id="Path_12686" data-name="Path 12686" d="M2337.351,1063.752c-.1.463,6.868,6.1,9.936,5.485,3.353-.675,7.267-3.876,4.33-9.375-1.7-3.183-12.2-1.029-13.032-.039S2337.351,1063.752,2337.351,1063.752Z" transform="translate(-2321.933 -1048.565)" fill="#ffdec0"/>
              <path id="Path_12687" data-name="Path 12687" d="M2251.367,1098.146s1.379,8.6-2.708,10.631-6.6,2.314-7.725.2-1.388-5.83-.011-7.652,5.82-4.947,5.82-4.947Z" transform="translate(-2234.338 -1082.925)" fill="#ffdec0"/>
              <path id="Path_12688" data-name="Path 12688" d="M2305.248,1062.43l-.815.385a2.17,2.17,0,0,1-2.88-1.033l-.564-1.2a2.17,2.17,0,0,1,1.033-2.88l.815-.385a2.17,2.17,0,0,1,2.88,1.033l.565,1.2A2.17,2.17,0,0,1,2305.248,1062.43Z" transform="translate(-2289.034 -1047.599)" fill="#ffdec0"/>
            </g>
            <g id="Group_5387" data-name="Group 5387" transform="translate(14.564 6.572)">
              <path id="Path_12689" data-name="Path 12689" d="M2329.085,1034.514a12.067,12.067,0,0,1,.567-6.747l.333.142a11.906,11.906,0,0,0-.548,6.523Z" transform="translate(-2328.843 -1027.767)" fill="#edae7a"/>
            </g>
            <g id="Group_5388" data-name="Group 5388" transform="translate(9.614 7.267)">
              <path id="Path_12690" data-name="Path 12690" d="M2284.224,1040.776c-1.171-3.1-4.685-5.761-4.719-5.787l.216-.29c.148.111,3.633,2.751,4.841,5.95Z" transform="translate(-2279.505 -1034.699)" fill="#edae7a"/>
            </g>
            <g id="Group_5389" data-name="Group 5389" transform="translate(8.855 9.865)">
              <path id="Path_12691" data-name="Path 12691" d="M2276.22,1064.115c-1.137-2.033-4.249-3.175-4.28-3.187l.123-.34c.133.049,3.269,1.2,4.472,3.349Z" transform="translate(-2271.94 -1060.589)" fill="#edae7a"/>
            </g>
            <g id="Group_5390" data-name="Group 5390" transform="translate(15.365 9.132)">
              <path id="Path_12692" data-name="Path 12692" d="M2336.837,1058.125c-.162-2.079,2.254-4.725,2.357-4.838l.266.245c-.024.026-2.413,2.642-2.264,4.566Z" transform="translate(-2336.83 -1053.288)" fill="#edae7a"/>
            </g>
            <path id="Path_12693" data-name="Path 12693" d="M2276.1,1031.149h0a.422.422,0,0,1-.594.033l-.425-.381a.422.422,0,0,1-.033-.594h0a.422.422,0,0,1,.594-.033l.425.381A.422.422,0,0,1,2276.1,1031.149Z" transform="translate(-2265.784 -1023.265)" fill="#f2cd64"/>
            <path id="Path_12694" data-name="Path 12694" d="M2268.463,1057.8h0a.422.422,0,0,1-.551.225l-.526-.221a.422.422,0,0,1-.225-.551h0a.422.422,0,0,1,.551-.225l.527.221A.422.422,0,0,1,2268.463,1057.8Z" transform="translate(-2258.756 -1047.493)" fill="#f2cd64"/>
            <g id="Group_5391" data-name="Group 5391" transform="translate(9.829 12.552)">
              <path id="Path_12695" data-name="Path 12695" d="M2286.815,1089.132c-1.8-1.478-5.117-1.4-5.151-1.394l-.01-.36c.136,0,3.481-.086,5.39,1.474Z" transform="translate(-2281.654 -1087.376)" fill="#edae7a"/>
            </g>
            <path id="Path_12696" data-name="Path 12696" d="M2277.377,1084.874h0a.422.422,0,0,1-.43.412l-.571-.012a.422.422,0,0,1-.411-.43h0a.422.422,0,0,1,.429-.411l.571.012A.422.422,0,0,1,2277.377,1084.874Z" transform="translate(-2266.707 -1072.175)" fill="#f2cd64"/>
            <path id="Path_12697" data-name="Path 12697" d="M2333.579,1023.564h0a.422.422,0,0,1,.254.538l-.192.538a.422.422,0,0,1-.538.254h0a.422.422,0,0,1-.254-.538l.193-.538A.422.422,0,0,1,2333.579,1023.564Z" transform="translate(-2317.861 -1017.392)" fill="#f2cd64"/>
            <path id="Path_12698" data-name="Path 12698" d="M2356.742,1048.278h0a.422.422,0,0,1,.043.594l-.374.432a.422.422,0,0,1-.594.043h0a.422.422,0,0,1-.043-.593l.374-.432A.422.422,0,0,1,2356.742,1048.278Z" transform="translate(-2338.417 -1039.557)" fill="#f2cd64"/>
            <path id="Path_12699" data-name="Path 12699" d="M2326.228,1089.633a1.006,1.006,0,1,1-1.21-.276A.891.891,0,0,1,2326.228,1089.633Z" transform="translate(-2310.284 -1076.502)" fill="#edae7a"/>
          </g>
        </g>
      </g>
    </g>
    <path id="Rectangle_2191" data-name="Rectangle 2191" d="M.608,0H290.462a.608.608,0,0,1,.608.608v0a.608.608,0,0,1-.608.608H.608A.608.608,0,0,1,0,.608v0A.608.608,0,0,1,.608,0Z" transform="translate(134.988 312.464)" fill="#2e3552"/>
    <g id="Group_5397" data-name="Group 5397" transform="translate(314.776 260.406)">
      <g id="Group_5396" data-name="Group 5396" transform="translate(4.885 17.913)">
        <path id="Path_12700" data-name="Path 12700" d="M2009.956,1388.417h0a3.018,3.018,0,0,1-3.217-2.806l-1.734-25.4a3.019,3.019,0,0,1,2.806-3.217h0a3.018,3.018,0,0,1,3.217,2.806l1.734,25.4A3.018,3.018,0,0,1,2009.956,1388.417Z" transform="translate(-2004.998 -1356.987)" fill="#c9ddff"/>
        <path id="Path_12701" data-name="Path 12701" d="M2043.873,1658.547h0a1.167,1.167,0,0,1-1.243-1.084l-.135-1.979a1.166,1.166,0,0,1,1.084-1.243h0a1.167,1.167,0,0,1,1.243,1.084l.135,1.979A1.167,1.167,0,0,1,2043.873,1658.547Z" transform="translate(-2038.73 -1624.416)" fill="#c9ddff"/>
      </g>
      <path id="Path_12702" data-name="Path 12702" d="M2028.839,1601.187a2.356,2.356,0,0,1-2.511-2.191l-.328-4.8a11.519,11.519,0,0,0,2.855.265,4.6,4.6,0,0,1,1.9.218l.273,4A2.357,2.357,0,0,1,2028.839,1601.187Z" transform="translate(-2019.008 -1552.485)" fill="#a3b3ce"/>
      <path id="Path_12703" data-name="Path 12703" d="M2048.342,1656.271h0a.61.61,0,0,1-.65-.567l-.172-2.523a.61.61,0,0,1,.567-.65h0a.61.61,0,0,1,.65.567l.172,2.523A.61.61,0,0,1,2048.342,1656.271Z" transform="translate(-2038.367 -1604.965)" fill="#a3b3ce"/>
      <path id="Path_12704" data-name="Path 12704" d="M1992.831,1197.869h0a3.521,3.521,0,0,1-3.742-3.264l-.847-12.408a3.521,3.521,0,0,1,3.264-3.742h0a3.521,3.521,0,0,1,3.742,3.264l.847,12.408A3.521,3.521,0,0,1,1992.831,1197.869Z" transform="translate(-1985.031 -1178.448)" fill="#a3b3ce"/>
      <path id="Path_12705" data-name="Path 12705" d="M1970.906,1309.329l-13.262.906a.637.637,0,0,1-.679-.593l-.655-9.591a.637.637,0,0,1,.593-.679l13.262-.906a.637.637,0,0,1,.679.592l.655,9.591A.637.637,0,0,1,1970.906,1309.329Z" transform="translate(-1956.308 -1286.424)" fill="#94b0ed"/>
    </g>
    <g id="Group_5398" data-name="Group 5398" transform="translate(330.09 282.621)">
      <path id="Path_12706" data-name="Path 12706" d="M2125.352,1406.822v19.5a3.51,3.51,0,0,1-3.511,3.511h-9.382a3.51,3.51,0,0,1-3.511-3.511v-19.5a3.511,3.511,0,0,1,3.511-3.512.909.909,0,0,0,.865-.632.931.931,0,0,0,.041-.273v-1.839a.679.679,0,0,1,.044-.243.7.7,0,0,1,.653-.454h6.267a.607.607,0,0,1,.607.607v1.929a.9.9,0,0,0,.905.9A3.511,3.511,0,0,1,2125.352,1406.822Z" transform="translate(-2108.949 -1399.869)" fill="#a3b3ce"/>
    </g>
    <g id="Group_5399" data-name="Group 5399" transform="translate(332.493 282.621)">
      <path id="Path_12707" data-name="Path 12707" d="M2146.9,1406.822v19.5a3.51,3.51,0,0,1-3.511,3.511h-6.978a3.51,3.51,0,0,1-3.511-3.511v-19.5a3.511,3.511,0,0,1,3.511-3.512.909.909,0,0,0,.865-.632.931.931,0,0,0,.041-.273v-1.839a.679.679,0,0,1,.043-.243.7.7,0,0,1,.653-.454h3.864a.607.607,0,0,1,.607.607v1.929a.9.9,0,0,0,.905.9A3.511,3.511,0,0,1,2146.9,1406.822Z" transform="translate(-2132.9 -1399.869)" fill="#c9ddff"/>
    </g>
    <g id="Group_5409" data-name="Group 5409" transform="translate(331.088 301.849)">
      <g id="Group_5400" data-name="Group 5400" transform="translate(10.172 5.481)">
        <path id="Path_12708" data-name="Path 12708" d="M2220.878,1647.511c1.353-.018,4.789,3.025,5.535,3.687s4.544.227,5.17.081a.254.254,0,0,0,.192-.2c.157-.565-.682-2.187-2.628-3.654-2.313-1.743-8.25-1.186-8.25-1.186s-.565.531-.612.908C2220.26,1647.356,2220.394,1647.517,2220.878,1647.511Z" transform="translate(-2220.283 -1646.155)" fill="#a8d29f"/>
        <path id="Path_12709" data-name="Path 12709" d="M2220.315,1647.147c.17-.024.356-.054.56-.093,5.711-1.081,10.738,4.223,10.738,4.223l.192-.2c.157-.565-.682-2.187-2.628-3.654-2.313-1.743-8.25-1.186-8.25-1.186S2220.361,1646.771,2220.315,1647.147Z" transform="translate(-2220.312 -1646.155)" fill="#9ac98f"/>
      </g>
      <g id="Group_5401" data-name="Group 5401" transform="translate(0 4.495)">
        <path id="Path_12710" data-name="Path 12710" d="M2128.017,1638.287c-1.042-.28-4.3,1.394-5,1.758s-3.556-.72-4.011-.957a.2.2,0,0,1-.109-.191c-.01-.468.958-1.556,2.751-2.306,2.13-.891,6.608.709,6.608.709a1.777,1.777,0,0,1,.294.822C2128.525,1638.29,2128.389,1638.388,2128.017,1638.287Z" transform="translate(-2118.893 -1636.323)" fill="#a8d29f"/>
        <path id="Path_12711" data-name="Path 12711" d="M2128.546,1638.123c-.127-.052-.265-.112-.414-.182-4.2-1.961-9.129,1.148-9.129,1.148l-.109-.191c-.01-.468.958-1.556,2.751-2.306,2.13-.891,6.608.709,6.608.709A1.777,1.777,0,0,1,2128.546,1638.123Z" transform="translate(-2118.893 -1636.323)" fill="#9ac98f"/>
      </g>
      <g id="Group_5402" data-name="Group 5402" transform="translate(1.531)">
        <path id="Path_12712" data-name="Path 12712" d="M2141.676,1597.174c-.633-.874-4.215-1.623-4.994-1.785s-2.309-2.8-2.514-3.269a.2.2,0,0,1,.036-.217c.287-.37,1.723-.605,3.589-.059,2.216.649,4.688,4.712,4.688,4.712a1.776,1.776,0,0,1-.289.823C2142.069,1597.5,2141.9,1597.487,2141.676,1597.174Z" transform="translate(-2134.15 -1591.522)" fill="#a8d29f"/>
        <path id="Path_12713" data-name="Path 12713" d="M2142.346,1597.38c-.066-.12-.135-.254-.207-.4-2.028-4.168-7.815-4.857-7.815-4.857l.035-.217c.287-.37,1.724-.605,3.589-.059,2.216.649,4.688,4.712,4.688,4.712A1.779,1.779,0,0,1,2142.346,1597.38Z" transform="translate(-2134.307 -1591.522)" fill="#9ac98f"/>
      </g>
      <g id="Group_5408" data-name="Group 5408" transform="translate(4.197 0.234)">
        <path id="Path_12714" data-name="Path 12714" d="M2230.427,1603.423c-.154-.137,1.66-3.186,3.179-3.5,1.661-.341,4.161.064,4.124,2.387-.021,1.344-5.231,2.4-5.836,2.209A5.031,5.031,0,0,1,2230.427,1603.423Z" transform="translate(-2223.426 -1599.22)" fill="#fff4eb"/>
        <path id="Path_12715" data-name="Path 12715" d="M2178.356,1597.695s-.354-3.239-2.6-3.628-3.516-.279-3.816.583a2.54,2.54,0,0,0,.912,2.778,22.4,22.4,0,0,0,3.45,1.3Z" transform="translate(-2170.714 -1593.852)" fill="#fff4eb"/>
        <path id="Path_12716" data-name="Path 12716" d="M2168.118,1640.272c.143.192-1.889,4.241-3.429,4.6-1.684.389-4.153-.268-3.948-3.411.119-1.819,5.4-3.018,5.99-2.736A5.5,5.5,0,0,1,2168.118,1640.272Z" transform="translate(-2160.729 -1634.183)" fill="#fff4eb"/>
        <path id="Path_12717" data-name="Path 12717" d="M2227.06,1642.115s1.159,4.246,3.463,4.328,3.519-.311,3.6-1.518a4.173,4.173,0,0,0-1.591-3.524,18.889,18.889,0,0,0-3.71-1.063Z" transform="translate(-2220.405 -1635.674)" fill="#fff4eb"/>
        <path id="Rectangle_2192" data-name="Rectangle 2192" d="M1.321,0h0A1.321,1.321,0,0,1,2.642,1.321v.213A1.321,1.321,0,0,1,1.321,2.855h0A1.321,1.321,0,0,1,0,1.534V1.321A1.321,1.321,0,0,1,1.321,0Z" transform="translate(8.497 6.115) rotate(-179.102)" fill="#fff4eb"/>
        <g id="Group_5403" data-name="Group 5403" transform="translate(5.49 2.115)">
          <path id="Path_12718" data-name="Path 12718" d="M2217.057,1617.952a6.022,6.022,0,0,0-1.612-2.888l.123-.134a6.1,6.1,0,0,1,1.668,2.987Z" transform="translate(-2215.445 -1614.93)" fill="#f9ddbf"/>
        </g>
        <g id="Group_5404" data-name="Group 5404" transform="translate(7.314 1.278)">
          <path id="Path_12719" data-name="Path 12719" d="M2233.64,1610.342a8.129,8.129,0,0,1,.987-3.748l.16.088a8.1,8.1,0,0,0-.965,3.648Z" transform="translate(-2233.632 -1606.594)" fill="#f9ddbf"/>
        </g>
        <g id="Group_5405" data-name="Group 5405" transform="translate(7.884 2.296)">
          <path id="Path_12720" data-name="Path 12720" d="M2239.489,1619.229l-.182-.015a4.75,4.75,0,0,1,1.36-2.474l.127.131A4.659,4.659,0,0,0,2239.489,1619.229Z" transform="translate(-2239.307 -1616.739)" fill="#f9ddbf"/>
        </g>
        <g id="Group_5406" data-name="Group 5406" transform="translate(4.991 3.785)">
          <path id="Path_12721" data-name="Path 12721" d="M2212.473,1633.373c-.332-.917-1.977-1.622-1.993-1.629l.071-.168c.071.03,1.735.743,2.094,1.734Z" transform="translate(-2210.48 -1631.576)" fill="#f9ddbf"/>
        </g>
        <path id="Path_12722" data-name="Path 12722" d="M2241.472,1604.415h0a.213.213,0,0,0,.281-.109l.116-.264a.213.213,0,0,0-.109-.28h0a.214.214,0,0,0-.281.109l-.116.264A.213.213,0,0,0,2241.472,1604.415Z" transform="translate(-2233.258 -1602.752)" fill="#f2cd64"/>
        <path id="Path_12723" data-name="Path 12723" d="M2249.83,1615.093h0a.213.213,0,0,0,.3-.011l.2-.212a.213.213,0,0,0-.011-.3h0a.213.213,0,0,0-.3.011l-.2.212A.213.213,0,0,0,2249.83,1615.093Z" transform="translate(-2240.83 -1612.441)" fill="#f2cd64"/>
        <g id="Group_5407" data-name="Group 5407" transform="translate(7.239 3.712)">
          <path id="Path_12724" data-name="Path 12724" d="M2233.043,1632.73l-.163-.081a4.753,4.753,0,0,1,2.174-1.8l.07.168A4.663,4.663,0,0,0,2233.043,1632.73Z" transform="translate(-2232.88 -1630.847)" fill="#f9ddbf"/>
        </g>
        <path id="Path_12725" data-name="Path 12725" d="M2250.8,1629.412h0a.214.214,0,0,0,.284.1l.26-.125a.214.214,0,0,0,.1-.284h0a.214.214,0,0,0-.284-.1l-.26.125A.213.213,0,0,0,2250.8,1629.412Z" transform="translate(-2241.743 -1625.458)" fill="#f2cd64"/>
        <path id="Path_12726" data-name="Path 12726" d="M2213.684,1613.276h0a.214.214,0,0,0,0,.3l.2.207a.213.213,0,0,0,.3,0h0a.213.213,0,0,0,0-.3l-.2-.207A.213.213,0,0,0,2213.684,1613.276Z" transform="translate(-2208.313 -1611.274)" fill="#f2cd64"/>
        <path id="Path_12727" data-name="Path 12727" d="M2207.43,1629.816h0a.213.213,0,0,0,.1.282l.262.121a.213.213,0,0,0,.282-.1h0a.213.213,0,0,0-.1-.282l-.262-.121A.213.213,0,0,0,2207.43,1629.816Z" transform="translate(-2202.727 -1626.097)" fill="#f2cd64"/>
        <path id="Path_12728" data-name="Path 12728" d="M2227.694,1642.8a.508.508,0,1,0,.5-.38A.45.45,0,0,0,2227.694,1642.8Z" transform="translate(-2220.975 -1637.548)" fill="#f9ddbf"/>
      </g>
    </g>
  </g>
</svg>
