<svg xmlns="http://www.w3.org/2000/svg" xmlns:xlink="http://www.w3.org/1999/xlink" width="86.57" height="47.644" viewBox="0 0 86.57 47.644">
  <defs>
    <linearGradient id="linear-gradient" y1="0.528" x2="1" y2="0.5" gradientUnits="objectBoundingBox">
      <stop offset="0" stop-color="#be22bd"/>
      <stop offset="1" stop-color="#004f15"/>
    </linearGradient>
  </defs>
  <g id="logo" transform="translate(4622.38 474.595)">
    <path id="Union_7" data-name="Union 7" d="M50,47.571a3.534,3.534,0,0,1-.572-.272l.066-.21a1.674,1.674,0,0,1,.367.066,1.107,1.107,0,0,0,1.674-1.07v-1.7c-.412-.033-.729-.045-1.058-.1a2.253,2.253,0,0,1-1.851-1.354,4.082,4.082,0,0,1-.119-2.8,1.925,1.925,0,0,1,2.152-1.259,1.847,1.847,0,0,1,1.8,1.588A13.834,13.834,0,0,1,52.51,42.2V44c.779,0,1.518,0,2.259-.021.09,0,.239-.284.239-.436.021-1.309,0-2.621,0-3.929,0-.824.021-.852.95-.687,0,.139.036.287.036.436v4.493c0,.379-.106.5-.493.493-.978-.024-1.962,0-3.037,0,0,.538.038,1.034,0,1.515A1.948,1.948,0,0,1,50,47.571Zm-.326-8.077a1.033,1.033,0,0,0-.3.764v1.885c-.049,1.39.687,2.015,2.14,1.806h.036V40.562a3.315,3.315,0,0,0,0-.412,1.039,1.039,0,0,0-1.115-.957H50.4A1.03,1.03,0,0,0,49.67,39.494ZM36.4,46.579a.618.618,0,0,1-.2-.478.638.638,0,0,1,.2-.485.632.632,0,0,1,.491-.173.677.677,0,0,1,.471,1.093.6.6,0,0,1-.459.2.621.621,0,0,1-.077,0A.629.629,0,0,1,36.4,46.579Zm18.633-.01a.578.578,0,0,1-.184-.464.646.646,0,1,1,1.292-.019.6.6,0,0,1-.634.637.582.582,0,0,1-.475-.154Zm-17.028-.038a.613.613,0,0,1-.166-.492.6.6,0,0,1,.67-.613.631.631,0,0,1,.643.66c-.057.383-.242.629-.661.634h-.041A.615.615,0,0,1,38.008,46.531Zm8.323-2.208H32.924c-1.691,0-2.4-.694-2.417-2.37V40.777a2.07,2.07,0,1,1,4.14,0c.033,1.037,0,2.057,0,3.151H37.17v-4.3c0-.855,0-.855.975-.691l.009,5.04H46A16.842,16.842,0,0,0,46,42.2c-.057-.54-.473-.824-1.127-.824H40.75a18.974,18.974,0,0,1,.024-2.7,2.62,2.62,0,0,1,5.147.3v.28h-.958v-.687A1.527,1.527,0,0,0,43.318,37,1.5,1.5,0,0,0,41.7,38.545c-.033.746,0,1.5,0,2.247a1.551,1.551,0,0,0,.05.248H44.4c2.547-.116,2.75,1.333,2.642,2.992,0,.106-.177.237-.3.291a1.091,1.091,0,0,1-.41,0ZM31.511,40.156c-.033.966-.028,1.938,0,2.905a.886.886,0,0,0,.824.912,9.633,9.633,0,0,0,1.342,0V40.538a3.119,3.119,0,0,0-.03-.507,1.028,1.028,0,0,0-1.12-.822H32.5A.992.992,0,0,0,31.511,40.156ZM49.38,32.778A7.336,7.336,0,0,1,44.944,29.9a.946.946,0,0,0-.613-.329,5.84,5.84,0,0,1-5.861-5.206,5.854,5.854,0,0,1,4.2-6.628c2.448-.791,4.765-.577,6.666,1.361a6.131,6.131,0,0,1-1.9,9.756c-.317.149-.649.275-1.077.457,1.274,1.885,2.748,3.312,5.234,3.153a2.849,2.849,0,0,1-1.559.376A3.466,3.466,0,0,1,49.38,32.778ZM40.433,20.293a7.135,7.135,0,0,0,1.189,7.258,4.267,4.267,0,0,0,7.407-1.333,15.945,15.945,0,0,0,.461-2.3,20.489,20.489,0,0,0-.346-2.173,4.944,4.944,0,0,0-3.48-3.794,5.27,5.27,0,0,0-1.464-.213A3.81,3.81,0,0,0,40.433,20.293ZM28.99,29.152a3.95,3.95,0,0,1-2.576-3.975c-.03-1.927,0-3.852,0-5.762v-.461c-.024-.885-.236-1.11-1.106-1.193l-.457-.057v-.128h4.478v.116a4.684,4.684,0,0,0-.49.066c-.824.093-1.034.317-1.046,1.143,0,1.058-.021,2.116,0,3.169a27.824,27.824,0,0,0,.149,3.82,3.636,3.636,0,0,0,5.871,2.341,3.441,3.441,0,0,0,1.235-2.7c.045-2.059.033-4.086,0-6.131,0-.98-.412-1.425-1.408-1.647a.354.354,0,0,1-.239-.182h3.762c-.137.1-.182.161-.227.161-.914.062-1.363.79-1.366,1.728v5.572a4.215,4.215,0,0,1-1.351,3.4,4.536,4.536,0,0,1-3.038,1.16A6.15,6.15,0,0,1,28.99,29.152Zm-12.279.4a5.869,5.869,0,0,1-5.93-6.152c0-3.473,2.9-6.115,6.654-6.082a5.852,5.852,0,0,1,5.939,5.975,6.448,6.448,0,0,1-6.638,6.259ZM13.1,19.675a5.919,5.919,0,0,0-.739,3.1,6.981,6.981,0,0,0,1.794,4.959,4.279,4.279,0,0,0,7.291-1.647,7.43,7.43,0,0,0-.312-5.431,4.73,4.73,0,0,0-2.271-2.391,4.943,4.943,0,0,0-2.186-.518A4.088,4.088,0,0,0,13.1,19.675ZM54.816,27.7a4.179,4.179,0,0,1-.753-2.55V19.28c0-1.345-.236-1.522-1.371-1.572a.254.254,0,0,1-.2-.152h4.486v.111c-.248.038-.49.074-.734.1a.821.821,0,0,0-.793.786,3.541,3.541,0,0,0-.033.559c.024,2.156-.062,4.328.111,6.477a3.6,3.6,0,0,0,5.189,3.065A3.177,3.177,0,0,0,62.651,25.7c.082-2.107.066-4.218.036-6.328,0-1.034-.41-1.441-1.453-1.647a1.162,1.162,0,0,1-.18-.062l.016-.085H64.74c-.042.078-.049.123-.069.132-1.235.41-1.465.772-1.461,2.057v4.938a7.865,7.865,0,0,1-.107,1.37,3.9,3.9,0,0,1-3.423,3.362,7.667,7.667,0,0,1-1.137.09A4.344,4.344,0,0,1,54.816,27.7ZM.3,29.32a.382.382,0,0,1-.3-.177c.242-.033.49-.057.732-.1.6-.1.824-.293.824-.9.028-.956.019-1.906.019-2.86V19.214c0-1.234-.1-1.33-1.3-1.465a.328.328,0,0,1-.251-.185c.138,0,.279-.029.41-.029,1.235-.019,2.445-.057,3.671-.045a7.416,7.416,0,0,1,1.814.177,2.372,2.372,0,0,1,1.141,3.993A11.034,11.034,0,0,1,5.781,22.7a3.8,3.8,0,0,1,2.358,1.169,3.27,3.27,0,0,1-1.184,5.061,5.267,5.267,0,0,1-2.012.44c-.378.011-.756.015-1.134.015C2.64,29.381,1.47,29.339.3,29.32Zm3.056-6.181c-.282,0-.386.12-.383.412.017.724.017,1.441.017,2.173v2.194c0,.727.26.978.939,1.044a7.76,7.76,0,0,0,1.724-.036,1.871,1.871,0,0,0,1.382-.954,3.207,3.207,0,0,0-2.35-4.832,4.339,4.339,0,0,0-.441-.02C3.95,23.119,3.654,23.139,3.357,23.139Zm.54-5.357c-.634.042-.869.239-.9.867s0,1.228,0,1.835v1.022c0,1.321,0,1.321,1.316,1.157,1.458-.182,2.223-1.276,2.059-2.962a2.008,2.008,0,0,0-2.232-1.926Q4.018,17.775,3.9,17.782ZM66.205,29.3a.342.342,0,0,1-.272-.182c.256-.033.511-.069.771-.1a.758.758,0,0,0,.753-.753c0-.2.036-.41.036-.608V19.19a4.357,4.357,0,0,0-.024-.561.826.826,0,0,0-.824-.855,5.59,5.59,0,0,1-.694-.087v-.126c.156,0,.317-.033.472-.033h6.741c.469,0,.637.138.613.608-.033.634,0,1.276,0,1.913l-.132.033c-.045-.156-.1-.312-.14-.469a1.957,1.957,0,0,0-1.851-1.645,15.022,15.022,0,0,0-2.033.045.71.71,0,0,0-.512.216.72.72,0,0,0-.2.519c-.019,1.392,0,2.782,0,4.277,1.013-.045,2-.059,2.971-.149a1.015,1.015,0,0,0,.935-.938.452.452,0,0,1,.2-.3v3.293h-.073a2.674,2.674,0,0,1-.1-.3c-.164-.793-.481-1.143-1.288-1.2s-1.728,0-2.621,0a3.309,3.309,0,0,0-.049.343V27.8c0,.772.218,1.023.979,1.073a15.091,15.091,0,0,0,1.939,0,2.359,2.359,0,0,0,2.1-1.617c.111-.26.2-.532.338-.921a1.6,1.6,0,0,1,.1.369c-.036.717-.1,1.428-.123,2.14,0,.329-.14.462-.457.462Zm12.641-.054v-.125l.8-.087c.753-.094.989-.291.992-1.028q.026-4.6,0-9.2c0-.661-.239-.864-.906-.912a8.513,8.513,0,0,0-.867,0,2.27,2.27,0,0,0-2.313,1.647c-.128.341-.227.694-.338,1.044l-.159-.021q.13-1.753.266-3.506a1.235,1.235,0,0,0,1.165.454H85.3a5.508,5.508,0,0,0,1.267-.329c-.048,1.053-.105,2.225-.159,3.4l-.153.021c-.033-.161-.074-.32-.095-.481a2.174,2.174,0,0,0-2.469-2.221c-1.569-.026-1.671.1-1.671,1.617v8.041c0,1.288.123,1.415,1.411,1.5a.474.474,0,0,1,.362.178ZM31.24,15.433a3.3,3.3,0,0,1,.05-.412c.367-1.477-.823-3.818-2.531-4.069a4.766,4.766,0,0,1-1.321-.746,2.2,2.2,0,0,0-1.262,1.718c-.042.234-.078.468-.1.706a2,2,0,0,1-1.053,1.647c-.646.341-1.317.625-1.984.921a1.573,1.573,0,0,1-.41.066l-.05-.144c.12-.057.236-.128.358-.177a3.762,3.762,0,0,0,2.382-2.848,3.6,3.6,0,0,0-.057-1.056c-.038-.573-.074-1.15-.119-1.873A1.981,1.981,0,0,0,23,9.009c-1.444.774-2.618.3-3.745-.618-.3-.251-.589-.521-.88-.786l.123-.156a2.316,2.316,0,0,1,.362.242c1.058,1.037,3.74,1.181,4.789-.18.26-.338.786-.474,1.288-.758a2.021,2.021,0,0,0-.58-1.678c-.3-.3-.687-.519-.95-.824a2.7,2.7,0,0,1-.72-1.234A18.964,18.964,0,0,1,22.834.338a.324.324,0,0,1,.086-.18c.033-.054.09-.066.206-.132a1.546,1.546,0,0,1,0,.312,3.6,3.6,0,0,0,.966,3.342,2.777,2.777,0,0,0,1.12.729c.6.222,1.234.353,1.546.975A2.326,2.326,0,0,0,28.236,3.36a2.5,2.5,0,0,1,.7-1.808A6.694,6.694,0,0,1,31.57.257a.266.266,0,0,1,.144.033c.028,0,.04.048.081.107a1.455,1.455,0,0,1-.242.138,3.541,3.541,0,0,0-2.341,2.379,4.9,4.9,0,0,0-.092,1.6c0,.559.062,1.12.107,1.839a2.009,2.009,0,0,0,1.536.338,3.719,3.719,0,0,0,.921-.287,2.442,2.442,0,0,1,2.732.255c.445.313.876.642,1.3.983A1.592,1.592,0,0,1,35.965,8l-.1.078a1.353,1.353,0,0,1-.236-.144,3.612,3.612,0,0,0-3.477-.795,4.3,4.3,0,0,0-1.181.675c-.472.3-.93.625-1.539,1.037a2,2,0,0,0,.576,1.608,9.877,9.877,0,0,0,.93.789,1.806,1.806,0,0,1,.786,1.428c0,.8-.09,1.593-.156,2.382a1.549,1.549,0,0,1-.173.412ZM26.433,8.441a.627.627,0,0,1-.1.152,2.058,2.058,0,0,0-.8,2.514,2.389,2.389,0,0,1-.248,1.925c-.213.412-.452.774-.679,1.165.038,0,.053.028.066.024a.815.815,0,0,0,.14-.054,2.1,2.1,0,0,0,1.073-1.851,2.575,2.575,0,0,1,1.321-2.227c.26-.137.251-.3.161-.544a4.164,4.164,0,0,1-.116-.727l.152-.026a.737.737,0,0,1,.071.182,2.027,2.027,0,0,0,1.752,1.91,2.312,2.312,0,0,1,1.491,1.086c.267.412.5.822.777,1.312a1.905,1.905,0,0,0-.869-1.97,2.947,2.947,0,0,1-1.46-2.436c0-.116-.194-.263-.331-.329a6.336,6.336,0,0,0-.8-.313c.131-.1.147-.119.155-.116a1.323,1.323,0,0,1,.242.054,2,2,0,0,0,2.4-.554,2.311,2.311,0,0,1,1.617-.783c.538-.042,1.082,0,1.7,0A1.9,1.9,0,0,0,32.2,6.5c-1.1.49-2.194.79-3.243,0l-.945.822c-.021-.177-.038-.213-.026-.234a.44.44,0,0,1,.1-.116A2.01,2.01,0,0,0,28.866,4.5a2.188,2.188,0,0,1,.156-1.74c.239-.473.511-.933.795-1.449a2.008,2.008,0,0,0-1.288,1.823A2.8,2.8,0,0,1,27.18,5.524c-.111.061-.153.32-.144.485a4.69,4.69,0,0,0,.135.762L27,6.8a1.482,1.482,0,0,1-.095-.26,1.953,1.953,0,0,0-1.614-1.8,2.752,2.752,0,0,1-1.86-1.48c-.177-.313-.338-.63-.564-1.058a2.077,2.077,0,0,0,.89,2.057A2.8,2.8,0,0,1,25.2,6.693c0,.111.2.26.338.329a7.647,7.647,0,0,0,.823.3c-.14.107-.164.14-.189.14a.376.376,0,0,1-.14-.054,2.056,2.056,0,0,0-2.535.559,2.5,2.5,0,0,1-1.885.774H20.27a2,2,0,0,0,2.235.2,2.782,2.782,0,0,1,2.741,0c.111.062.35-.036.488-.123a6.086,6.086,0,0,0,.6-.49Zm32.3,6.337A7.334,7.334,0,0,1,57.5,11.194c-1.016.218-2.059.445-3.066.654a2.78,2.78,0,0,1-.61.057c-.8-.021-1.255-.663-.873-1.357.63-1.141,1.235-2.329,2.469-2.845L53.26,5.289a2.505,2.505,0,0,1-.239-.332A.935.935,0,0,1,53.8,3.4a6.856,6.856,0,0,1,3.608.736c.322-.983.639-1.979.968-2.971A2.745,2.745,0,0,1,58.61.66.921.921,0,0,1,60.289.553a7,7,0,0,1,1.2,3.539l3.1-.651A2.507,2.507,0,0,1,65.2,3.4a.911.911,0,0,1,.861,1.342,6.881,6.881,0,0,1-2.466,2.843c.765.876,1.527,1.737,2.28,2.609a1.069,1.069,0,0,1,.2,1.234.942.942,0,0,1-1.049.469c-1.205-.074-2.469.057-3.435-.765-.331,1.016-.646,2.012-.971,3a2.993,2.993,0,0,1-.256.556.916.916,0,0,1-.784.538h-.051A.916.916,0,0,1,58.738,14.778Zm.234-5.473c-.251.383-.526.753-.762,1.144s-.407.772-.526,1.008a7.278,7.278,0,0,0,1.136,3.04c.412.745,1.115.7,1.44-.106.367-.911.646-1.856.926-2.8a1.1,1.1,0,0,0-.317-1.2,9.521,9.521,0,0,1-.93-1.144c-.165-.216-.321-.326-.474-.326S59.14,9.052,58.971,9.305ZM58,7.434a4.966,4.966,0,0,0-4.8,3.082c-.341.736-.024,1.234.79,1.164.708-.069,1.408-.242,2.112-.35a3.519,3.519,0,0,0,2.7-2.176.511.511,0,0,0-.113-.478,1.02,1.02,0,0,1-.455-1.189.5.5,0,0,0-.083-.052.444.444,0,0,0-.076-.007A.437.437,0,0,0,58,7.434Zm3.153.069c-.243,0-.412.054-.35.412a.981.981,0,0,1-.824.912A6.711,6.711,0,0,0,62.263,11.3a1.447,1.447,0,0,0,.474.173c.79.083,1.584.194,2.377.2s1.117-.6.627-1.267c-.442-.6-.956-1.15-1.425-1.725A3.376,3.376,0,0,0,61.5,7.495Q61.326,7.495,61.153,7.5Zm-2.5-.618L58.421,8l.847.772,1.094-.357.248-1.124-.861-.777ZM53.774,3.618c-.637.066-.975.627-.58,1.117a34.208,34.208,0,0,0,2.358,2.583,1.031,1.031,0,0,0,.741.135c.538-.052,1.07-.184,1.6-.255s.712-.329.448-.855a8.262,8.262,0,0,1-.592-1.234A1.824,1.824,0,0,0,56.207,3.82c-.618-.119-1.25-.161-1.872-.23v.028q-.14-.008-.281-.008T53.774,3.618Zm8.268.622a1.038,1.038,0,0,0-.823.824A10.891,10.891,0,0,1,60.684,6.5c-.224.53-.066.769.526.822.526.033,1.049.1,1.572.123a1.781,1.781,0,0,0,.682-.054c1.234-.461,1.745-1.609,2.355-2.628.386-.646,0-1.169-.765-1.24C64.05,3.758,63.042,3.976,62.041,4.239ZM60.325,6.675a7.818,7.818,0,0,0,.918-2.633,2.423,2.423,0,0,0-.036-1.058A17.854,17.854,0,0,0,60.19.82a1.083,1.083,0,0,0-.684-.514c-.379-.054-.646.251-.782.618-.255.7-.506,1.4-.765,2.107a3.59,3.59,0,0,0,.594,3.291c.132.21.258.3.514.087a.584.584,0,0,1,.371-.1A1.228,1.228,0,0,1,60.325,6.675ZM10.918,14.919a23.392,23.392,0,0,1-1.235-2.606,7.239,7.239,0,0,1-.235-1.683c-1.39,1-3.085.564-4.657.86C4.588,10.5,5.954,8.729,7.8,7.524A4.71,4.71,0,0,1,5.708,5.467c-.284-.412-.552-.824-.824-1.234s-.237-.568.23-.6a6.145,6.145,0,0,1,4.3.864.042.042,0,0,0,.022.021,13.719,13.719,0,0,1,.447-1.811c.326-.822.757-1.647,1.136-2.469.137-.287.317-.308.5-.087a3.893,3.893,0,0,1,.551.789A5.67,5.67,0,0,1,13,4.586,9.906,9.906,0,0,1,17.937,3.8,6.673,6.673,0,0,1,14.7,7.647a3.739,3.739,0,0,1,1.906,1.728c.362.516.7,1.049,1.056,1.565.289.41.256.58-.251.616a6.4,6.4,0,0,1-4.439-.951c.194,1.707-.942,2.935-1.494,4.361-.063.161-.146.22-.23.22C11.12,15.188,10.986,15.044,10.918,14.919ZM9.782,11.877a8.126,8.126,0,0,0,1.432,3.058c.41-.8.715-1.513,1.089-2.2a3,3,0,0,0-.183-3.316c-.322-.478-.568-.989-1.371-.824V8.585C10.222,9.6,9.472,10.59,9.782,11.877ZM12.494,7.79c-.325,0-.712.549-.573.791.7,1.235,1.432,2.424,3.037,2.609a9.324,9.324,0,0,0,2.7.118l.009-.036c-.753-1.025-1.4-1.979-2.131-2.86a1.825,1.825,0,0,0-1.058-.547,11.914,11.914,0,0,0-1.434-.087Q12.766,7.778,12.494,7.79ZM5.918,9.458c-.338.571-.7,1.115-1.049,1.65l.116.149c1.139-.119,2.291-.2,3.417-.388a1.81,1.81,0,0,0,1-.642A11.82,11.82,0,0,0,10.477,8.5a.684.684,0,0,0-.357-.852c-.176-.009-.351-.014-.523-.014A3.888,3.888,0,0,0,5.918,9.458ZM10.625,7.61a.727.727,0,0,0,.629.748.717.717,0,0,0,.708-.712V7.635a.713.713,0,0,0-.655-.724A.728.728,0,0,0,10.625,7.61ZM15,4.158A2.765,2.765,0,0,0,12.515,5.8a3.808,3.808,0,0,1-.223.41.956.956,0,0,0,.017,1.354h.009c1.19-.057,2.469.1,3.444-.852a8.494,8.494,0,0,0,1.91-2.744C16.691,4.042,15.848,4.12,15,4.158ZM4.959,3.874A18.863,18.863,0,0,1,6.017,5.521,3.3,3.3,0,0,0,9.63,7.4a.113.113,0,0,1,.048,0,.909.909,0,0,0,1.049-.637l.009-.021c-.684-1.115-1.234-2.358-2.7-2.675a8.119,8.119,0,0,0-3.082-.2Zm5.514-1.939a3.433,3.433,0,0,0,.218,4.252c.042.052.074.114.115.168.364.523.86.5,1.153-.05.144-.27.272-.551.431-.822.983-1.551.066-3.752-1.094-5.16V.311C11,.882,10.773,1.433,10.473,1.935ZM75.2,14.688a6.689,6.689,0,0,1-.978-4.4.815.815,0,0,0-.026-.171c-.509.365-.99.736-1.5,1.061a3.906,3.906,0,0,1-3.132.511c-.568-.145-.625-.3-.312-.786a6.645,6.645,0,0,1,3.587-3.186c-.559-.248-1.016-.436-1.461-.646a4.081,4.081,0,0,1-2.3-2.588c-.177-.6-.087-.712.526-.691a6.569,6.569,0,0,1,4.526,1.5c-.066-.691-.14-1.288-.173-1.886A3.989,3.989,0,0,1,75,.463c.448-.5.621-.478.93.114a6.665,6.665,0,0,1,.926,4.7c.23-.185.35-.281.466-.379A4.815,4.815,0,0,1,80.83,3.483a6.742,6.742,0,0,1,1.2.329,6.74,6.74,0,0,1-.445,1.034,6.984,6.984,0,0,1-3.2,2.753c.506.222.978.41,1.444.637A4.086,4.086,0,0,1,82.048,10.7c.221.663.107.822-.572.77a11.771,11.771,0,0,1-2.367-.35,14.948,14.948,0,0,1-2.078-.959c.057.539.14,1.127.168,1.719a4.008,4.008,0,0,1-1.041,2.905c-.216.248-.371.374-.508.374C75.5,15.165,75.367,15.007,75.2,14.688ZM74.862,9.15c-.888,2.057-.254,3.9.8,5.76,1.743-1.785,1.328-3.773.781-5.838,1.428,1.737,3.291,2.144,5.444,2.123-.679-2.4-2.6-3.033-4.661-3.584,2.218-.358,3.5-1.79,4.574-3.655-2.419-.616-3.928.738-5.444,2.239.824-2.111.185-3.937-.864-5.793-1.725,1.773-1.357,3.745-.786,5.811C73.278,4.483,71.415,4.083,69.258,4.1A3.662,3.662,0,0,0,71.065,6.57c.885.452,1.847.76,2.933,1.2-2.291.293-3.579,1.721-4.636,3.563a3.255,3.255,0,0,0,2.768-.189A20.543,20.543,0,0,0,74.369,9.4a4.408,4.408,0,0,0,.325-.3Zm-31.8,5.769a4.6,4.6,0,0,1-1.671-2.561c-.033-.126-.071-.258-.12-.431a4.9,4.9,0,0,1-4.145-.293.414.414,0,0,1-.284-.53,4.791,4.791,0,0,1,1.4-2.72,3.32,3.32,0,0,1,.412-.265A4.108,4.108,0,0,1,36.969,5.65a8,8,0,0,1-.248-1.5c0-.1.209-.275.355-.338a4.674,4.674,0,0,1,3.459,0A5.142,5.142,0,0,1,43.136.15a4.806,4.806,0,0,1,2.1,3.222A3.7,3.7,0,0,1,47.8,3.124a12.91,12.91,0,0,1,1.729.6c.09.038.144.317.119.474a4.621,4.621,0,0,1-1.434,2.753c-.061.057-.123.114-.18.177s-.03.057-.054.111a4.957,4.957,0,0,1,1.8,3.826c0,.123-.2.326-.35.388a4.527,4.527,0,0,1-3.267.094,17.717,17.717,0,0,1-1.183,2.143,7.719,7.719,0,0,1-1.456,1.335.167.167,0,0,1-.1.024A.608.608,0,0,1,43.063,14.919Zm.336-.107c.251-.173.481-.317.693-.49a4.391,4.391,0,0,0,1.575-2.374.595.595,0,0,0-.32-.791,2.716,2.716,0,0,1-.931-.772c-.481-.66-.888-1.371-1.312-2.059C41.794,9.783,41.9,12.91,43.4,14.811Zm-.736-.72c-1.214-1.937-.765-3.847.149-5.843C41.166,9.6,41.1,12.806,42.663,14.091Zm-5.518-2.774a4.531,4.531,0,0,0,3.7.523.559.559,0,0,0,.412-.544A7.642,7.642,0,0,1,41.7,9.434a11.412,11.412,0,0,1,.947-1.589v0q-.189-.013-.376-.013A5.518,5.518,0,0,0,37.145,11.317Zm11.4.08c-2.269.072-3.71-1.253-5-3.055C43.976,10.5,46.637,12.078,48.547,11.4Zm.98-.326a8.637,8.637,0,0,0-.1-.947,4.015,4.015,0,0,0-1.4-2.531.628.628,0,0,0-.556-.04,5.181,5.181,0,0,1-3.371.506l-.39-.05A5.519,5.519,0,0,0,49.527,11.071ZM37.393,10.33c1.073-2.017,2.957-2.556,5.127-2.774a3.216,3.216,0,0,0-1.107-.187C39.588,7.369,37.606,8.721,37.393,10.33Zm9.673-3.338c-.98.376-1.946.561-2.827.824a4.15,4.15,0,0,0,4.938-2.881A5.252,5.252,0,0,1,47.066,6.992ZM37.08,5.117A4.3,4.3,0,0,0,38.4,7.643a.516.516,0,0,0,.713.081A4.853,4.853,0,0,1,42.4,7.219l.391.048a5.575,5.575,0,0,0-5.807-3.073A9.254,9.254,0,0,0,37.08,5.117ZM45.7,3.441c-.251.078-.454.17-.441.519a4.809,4.809,0,0,1-1.235,3.168c-.078.094-.144.2-.234.333a5.543,5.543,0,0,0,5.578-3.523A5.387,5.387,0,0,0,46.9,3.255,4.009,4.009,0,0,0,45.7,3.441ZM42.244,1.116a4.244,4.244,0,0,0-1.425,2.358c-.045.248-.042.442.239.589A4.78,4.78,0,0,1,43.153,6.61c.061.144.12.284.192.466A5.557,5.557,0,0,0,43.1.487,8.936,8.936,0,0,0,42.244,1.116Zm.748,5.921c-.5-2.291-3.288-3.946-5.061-3.118V3.94c.083,0,.165-.006.246-.006C40.355,3.934,41.744,5.268,42.992,7.037ZM43.754,7c1.621-1.593,1.666-4.531.054-5.864C45.042,3.1,44.63,5.05,43.754,7ZM75.518,8.409a.666.666,0,0,1-.651-.717.692.692,0,0,1,.684-.727.713.713,0,0,1,.686.745.692.692,0,0,1-.693.7ZM75.184,7.7c.009.161.218.272.341.412.14-.14.371-.26.412-.412s-.2-.323-.39-.635C75.355,7.377,75.176,7.541,75.184,7.7Zm-47.17.526.027.009-.027.021Zm31.1-.164a.486.486,0,0,1-.163-.41.485.485,0,0,1,.563-.556c.227.028.412.26.639.41v.215c-.2.156-.384.412-.609.452a.485.485,0,0,1-.429-.111Zm.062-.422c0,.135.2.324.292.312a.5.5,0,0,0,.365-.3c.021-.12-.159-.272-.324-.511C59.345,7.371,59.181,7.5,59.181,7.64Z" transform="translate(-4622.38 -474.595)" fill="url(#linear-gradient)"/>
  </g>
</svg>
