<svg xmlns="http://www.w3.org/2000/svg" xmlns:xlink="http://www.w3.org/1999/xlink" width="220" height="208.228" viewBox="0 0 220 208.228">
  <defs>
    <linearGradient id="linear-gradient" y1="0.603" x2="1" y2="0.575" gradientUnits="objectBoundingBox">
      <stop offset="0" stop-color="#be22bd"/>
      <stop offset="1" stop-color="#004f15"/>
    </linearGradient>
  </defs>
  <g id="intro1" transform="translate(-16.384 -42.666)">
    <g id="freepik--Floor--inject-104" transform="translate(33.918 143.646)">
      <path id="freepik--floor--inject-104-2" data-name="freepik--floor--inject-104" d="M80.708,348.281c36.1,20.846,94.624,20.846,130.732,0s36.108-54.637,0-75.483-94.624-20.836-130.732,0S44.6,327.44,80.708,348.281Z" transform="translate(-53.629 -257.168)" stroke="rgba(0,0,0,0)" stroke-width="1" fill="url(#linear-gradient)"/>
    </g>
    <g id="freepik--Shadow--inject-104" transform="translate(80.705 191.048)">
      <path id="freepik--shadow--inject-104-2" data-name="freepik--shadow--inject-104" d="M166.387,402.859c17.833,10.291,46.738,10.291,64.57,0s17.833-26.984,0-37.28-46.743-10.3-64.57,0S148.554,392.564,166.387,402.859Z" transform="translate(-153.014 -357.857)" fill="#fafafa"/>
    </g>
    <g id="freepik--Plants--inject-104" transform="translate(16.384 91.948)">
      <g id="freepik--Leaves--inject-104" transform="translate(133.803 89.516)">
        <path id="Path_12352" data-name="Path 12352" d="M387.492,344.251a4.378,4.378,0,0,0,3.3-2.632,4.312,4.312,0,0,0-.56-4.119,6.173,6.173,0,0,0-2.923,3.22A4.4,4.4,0,0,0,387.492,344.251Z" transform="translate(-346.351 -337.5)" fill="#c9ddff"/>
        <path id="Path_12353" data-name="Path 12353" d="M342.6,345.394c-1.168,3.634-4.03,6.972-6.544,9.764a49.532,49.532,0,0,1-8.474,7.608,42.543,42.543,0,0,1-12.2,5.687,60.43,60.43,0,0,1-6.633,1.53c-2.6.447-5.277.584-7.857,1.125-.56.113-.207.942.235.97,4.656.254,9.717-.9,14.17-2.156a43.116,43.116,0,0,0,13.266-6.167c6.233-4.425,12.339-10.828,14.274-18.388.042-.165-.212-.08-.245.028Z" transform="translate(-300.607 -341.614)" fill="#37474f"/>
        <path id="Path_12354" data-name="Path 12354" d="M344.3,399.848s.4,3.3,4.6,3.272,7.706-3.907,7.706-3.907S352.265,397,349.5,397C346.192,397,345.2,398.412,344.3,399.848Z" transform="translate(-323.731 -368.989)" fill="#c9ddff"/>
        <path id="Path_12355" data-name="Path 12355" d="M332.858,371.945s2.49.2,3.531-3.87-1.831-8.446-1.831-8.446-3.244,3.634-3.945,6.313C329.779,369.144,331.375,371.324,332.858,371.945Z" transform="translate(-316.365 -349.212)" fill="#c9ddff"/>
        <path id="Path_12356" data-name="Path 12356" d="M366.72,384.136a4.623,4.623,0,0,0,4.289,1.615c2.858-.367,4.5-4.006,4.5-4.006s-3.39-2.175-6.078-1.139a4.039,4.039,0,0,0-2.712,3.531Z" transform="translate(-335.596 -360.165)" fill="#c9ddff"/>
        <path id="Path_12357" data-name="Path 12357" d="M352.95,361.061a4.632,4.632,0,0,0,3.5-2.956c1.069-2.679-1.3-5.885-1.3-5.885s-3.554,1.883-3.959,4.75A4.049,4.049,0,0,0,352.95,361.061Z" transform="translate(-327.344 -345.29)" fill="#c9ddff"/>
        <path id="Path_12358" data-name="Path 12358" d="M382.19,367.406a4.374,4.374,0,0,0,3.9,1.144c2.537-.4,4.4-3.691,4.4-3.691s-3.361-1.634-4.849-1.238S382.19,367.406,382.19,367.406Z" transform="translate(-343.783 -351.291)" fill="#c9ddff"/>
        <path id="Path_12359" data-name="Path 12359" d="M373.89,338.28a4.086,4.086,0,0,1,1.483,3.262c.038,2.264-2.354,4.284-2.354,4.284s-1.808-2.735-1.695-4.082S373.89,338.28,373.89,338.28Z" transform="translate(-338.03 -337.913)" fill="#c9ddff"/>
        <path id="Path_12360" data-name="Path 12360" d="M341.055,399.929c-.739.033-1.506-.028-2.255-.033s-1.511-.071-2.269-.132c-1.525-.127-3.055-.353-4.562-.621-1.412-.259-2.825-.57-4.237-.909-1.332-.325-2.608-.847-3.926-1.186-.386-.1-.424.527-.179.7a11.8,11.8,0,0,0,3.8,1.351q2.118.53,4.237.942a31.458,31.458,0,0,0,4.4.523c.862.038,1.709,0,2.57-.033a20.142,20.142,0,0,0,2.354-.348c.094,0,.221-.245.075-.235Z" transform="translate(-312.708 -369.009)" fill="#37474f"/>
        <path id="Path_12361" data-name="Path 12361" d="M364.257,385.6a6.574,6.574,0,0,1-2.891.607c-.913.071-1.944.193-2.919.254a24.673,24.673,0,0,1-3.008,0l-1.8-.137a4.84,4.84,0,0,0-1.685-.047c-.231.071-.325.532-.066.631a7.445,7.445,0,0,0,1.855.287c.617.071,1.238.16,1.883.207a24.334,24.334,0,0,0,3.3,0c1.883-.118,4.067-.25,5.466-1.629.1-.1.033-.245-.1-.16Z" transform="translate(-327.663 -362.949)" fill="#37474f"/>
        <path id="Path_12362" data-name="Path 12362" d="M336.716,372.068a18.218,18.218,0,0,0-.862,2.792,15.955,15.955,0,0,0-.518,2.7,12.122,12.122,0,0,0,.066,2.547,4.071,4.071,0,0,0,.814,2.316c.16.146.546.169.579-.127a3.9,3.9,0,0,0-.377-1.337,7.561,7.561,0,0,1-.2-1.083,15.391,15.391,0,0,1-.1-2.184,16.284,16.284,0,0,1,.843-5.621C337.041,371.87,336.773,371.931,336.716,372.068Z" transform="translate(-318.967 -355.728)" fill="#37474f"/>
        <path id="Path_12363" data-name="Path 12363" d="M355.671,358.752a5.478,5.478,0,0,0-.706,1.022,14.472,14.472,0,0,0-.626,1.53,16.887,16.887,0,0,0-.824,3.507,17.493,17.493,0,0,0-.1,3.366c.061.942-.137,2.307.636,3.008a.273.273,0,0,0,.438-.066,2.989,2.989,0,0,0,0-1.309,11.629,11.629,0,0,0-.052-1.351,22.565,22.565,0,0,1,.381-6.12,13.65,13.65,0,0,1,.471-1.667c.2-.593.386-1.215.626-1.794a.143.143,0,0,0-.25-.141Z" transform="translate(-328.534 -348.701)" fill="#37474f"/>
        <path id="Path_12364" data-name="Path 12364" d="M381.081,369.19a20,20,0,0,1-2.886.551c-.909.122-1.808.3-2.712.414-.81.1-1.624.169-2.434.264a6.993,6.993,0,0,0-2.33.471c-.292.151-.217.781.155.744.9-.085,1.784-.315,2.683-.414s1.723-.165,2.57-.325,1.629-.325,2.424-.546a17.331,17.331,0,0,0,2.537-.942c.1-.052.165-.25,0-.2Z" transform="translate(-337.618 -354.271)" fill="#37474f"/>
        <path id="Path_12365" data-name="Path 12365" d="M374.237,345.534a11.093,11.093,0,0,0-.508,1.332,12.851,12.851,0,0,0-.278,1.459,20.518,20.518,0,0,0-.311,2.787,15.629,15.629,0,0,0,.254,2.73,10.827,10.827,0,0,0,.527,2.6c.221.537.89.273.7-.273a10.659,10.659,0,0,1-.377-2.283,23.5,23.5,0,0,1-.268-2.429c0-.847.08-1.7.108-2.552,0-.391.033-.786.066-1.177a8.591,8.591,0,0,1,.348-2.133c.08-.231-.179-.254-.259-.061Z" transform="translate(-338.994 -341.683)" fill="#37474f"/>
      </g>
      <g id="freepik--leaves--inject-104-2" data-name="freepik--leaves--inject-104" transform="translate(39.453 89.516)">
        <path id="Path_12366" data-name="Path 12366" d="M107.971,344.251a4.378,4.378,0,0,1-3.3-2.632,4.312,4.312,0,0,1,.56-4.119,6.173,6.173,0,0,1,2.923,3.22A4.4,4.4,0,0,1,107.971,344.251Z" transform="translate(-102.411 -337.5)" fill="#c9ddff"/>
        <path id="Path_12367" data-name="Path 12367" d="M109.915,345.394c1.168,3.634,4.03,6.972,6.544,9.764a49.535,49.535,0,0,0,8.474,7.608,42.544,42.544,0,0,0,12.2,5.687,60.43,60.43,0,0,0,6.633,1.53c2.6.447,5.277.584,7.857,1.125.56.113.207.942-.235.97-4.656.254-9.717-.9-14.17-2.156a43.117,43.117,0,0,1-13.266-6.167c-6.233-4.425-12.339-10.828-14.274-18.388-.042-.165.212-.08.245.028Z" transform="translate(-105.207 -341.614)" fill="#37474f"/>
        <path id="Path_12368" data-name="Path 12368" d="M141.866,399.843s-.4,3.3-4.6,3.272-7.706-3.907-7.706-3.907,4.34-2.217,7.1-2.217C139.973,396.995,140.967,398.407,141.866,399.843Z" transform="translate(-115.734 -368.984)" fill="#c9ddff"/>
        <path id="Path_12369" data-name="Path 12369" d="M160.135,371.945s-2.49.2-3.531-3.87,1.831-8.446,1.831-8.446,3.244,3.634,3.945,6.313C163.214,369.144,161.618,371.324,160.135,371.945Z" transform="translate(-129.926 -349.212)" fill="#c9ddff"/>
        <path id="Path_12370" data-name="Path 12370" d="M123.4,384.136a4.623,4.623,0,0,1-4.289,1.615c-2.858-.367-4.5-4.006-4.5-4.006s3.39-2.175,6.078-1.139A4.039,4.039,0,0,1,123.4,384.136Z" transform="translate(-107.822 -360.165)" fill="#c9ddff"/>
        <path id="Path_12371" data-name="Path 12371" d="M140.752,361.061a4.632,4.632,0,0,1-3.5-2.956c-1.069-2.679,1.3-5.885,1.3-5.885s3.554,1.883,3.959,4.75A4.049,4.049,0,0,1,140.752,361.061Z" transform="translate(-119.656 -345.29)" fill="#c9ddff"/>
        <path id="Path_12372" data-name="Path 12372" d="M108.485,367.406a4.374,4.374,0,0,1-3.9,1.144c-2.537-.4-4.4-3.691-4.4-3.691s3.361-1.634,4.849-1.238S108.485,367.406,108.485,367.406Z" transform="translate(-100.19 -351.291)" fill="#c9ddff"/>
        <path id="Path_12373" data-name="Path 12373" d="M121.551,338.28a4.086,4.086,0,0,0-1.483,3.262c-.038,2.264,2.354,4.284,2.354,4.284s1.808-2.735,1.695-4.082S121.551,338.28,121.551,338.28Z" transform="translate(-110.709 -337.913)" fill="#c9ddff"/>
        <path id="Path_12374" data-name="Path 12374" d="M139.116,399.929c.739.033,1.506-.028,2.255-.033s1.511-.071,2.269-.132c1.525-.127,3.055-.353,4.562-.621,1.412-.259,2.825-.57,4.237-.909s2.608-.847,3.926-1.186c.386-.1.424.527.179.7a11.8,11.8,0,0,1-3.8,1.351q-2.118.53-4.237.942a31.457,31.457,0,0,1-4.4.523c-.862.038-1.709,0-2.57-.033a20.149,20.149,0,0,1-2.33-.348c-.094,0-.221-.245-.075-.235Z" transform="translate(-120.761 -369.009)" fill="#37474f"/>
        <path id="Path_12375" data-name="Path 12375" d="M121.488,385.61a6.574,6.574,0,0,0,2.891.607c.913.071,1.944.193,2.919.254a24.66,24.66,0,0,0,3.008,0l1.8-.137a4.841,4.841,0,0,1,1.685-.047c.231.071.325.532.066.631a7.448,7.448,0,0,1-1.831.3c-.617.071-1.238.16-1.883.207a24.329,24.329,0,0,1-3.3,0c-1.883-.118-4.067-.25-5.466-1.629-.1-.1-.033-.245.1-.16Z" transform="translate(-111.381 -362.961)" fill="#37474f"/>
        <path id="Path_12376" data-name="Path 12376" d="M161.395,372.068a18.216,18.216,0,0,1,.861,2.792,15.959,15.959,0,0,1,.518,2.7,12.123,12.123,0,0,1-.066,2.547,4.071,4.071,0,0,1-.814,2.316c-.16.146-.546.169-.579-.127a3.9,3.9,0,0,1,.377-1.337,7.563,7.563,0,0,0,.2-1.083,15.393,15.393,0,0,0,.1-2.184,16.283,16.283,0,0,0-.843-5.621c-.075-.2.193-.137.25,0Z" transform="translate(-132.442 -355.728)" fill="#37474f"/>
        <path id="Path_12377" data-name="Path 12377" d="M141.454,358.752a5.48,5.48,0,0,1,.706,1.022,14.471,14.471,0,0,1,.626,1.53,16.892,16.892,0,0,1,.824,3.507,17.5,17.5,0,0,1,.1,3.366c-.061.942.137,2.307-.636,3.008a.273.273,0,0,1-.438-.066,2.989,2.989,0,0,1,0-1.309c.024-.471,0-.9.052-1.351a22.565,22.565,0,0,0-.381-6.12,13.655,13.655,0,0,0-.471-1.667c-.2-.593-.386-1.215-.626-1.794a.143.143,0,1,1,.25-.141Z" transform="translate(-121.889 -348.701)" fill="#37474f"/>
        <path id="Path_12378" data-name="Path 12378" d="M106.971,369.19a20,20,0,0,0,2.886.551c.909.122,1.808.3,2.712.414.81.1,1.624.169,2.434.264a6.992,6.992,0,0,1,2.354.471c.292.151.217.781-.155.744-.9-.085-1.784-.315-2.683-.414s-1.723-.165-2.57-.325-1.629-.325-2.424-.546a17.331,17.331,0,0,1-2.537-.942c-.1-.052-.165-.25,0-.2Z" transform="translate(-103.732 -354.271)" fill="#37474f"/>
        <path id="Path_12379" data-name="Path 12379" d="M124.062,345.534a11.088,11.088,0,0,1,.508,1.332,12.855,12.855,0,0,1,.278,1.459,20.52,20.52,0,0,1,.311,2.787,15.629,15.629,0,0,1-.254,2.73,10.827,10.827,0,0,1-.527,2.6c-.221.537-.89.273-.7-.273a10.659,10.659,0,0,0,.377-2.283,23.512,23.512,0,0,0,.268-2.429c0-.847-.08-1.7-.108-2.552,0-.391-.033-.786-.066-1.177a8.591,8.591,0,0,0-.348-2.133c-.08-.231.179-.254.259-.061Z" transform="translate(-112.604 -341.683)" fill="#37474f"/>
      </g>
      <g id="freepik--leaves--inject-104-3" data-name="freepik--leaves--inject-104" transform="translate(186.925 0)">
        <g id="freepik--leaves--inject-104-4" data-name="freepik--leaves--inject-104" transform="translate(0 54.548)">
          <path id="Path_12380" data-name="Path 12380" d="M452.3,276.688a11.822,11.822,0,0,0,4.336-7.137c.942-4.086-.08-6.308-.523-6.332s-1.492,1.488-2.608,6.031C453.044,271.143,452.3,276.688,452.3,276.688Z" transform="translate(-434.01 -263.219)" fill="#f0f0f0"/>
          <path id="Path_12381" data-name="Path 12381" d="M443.126,293.532a26.922,26.922,0,0,0,2.307-8.662c.24-2.354-.339-3.639-.843-3.484-.3.094-1.323,1.615-1.681,5.207S442.867,293.88,443.126,293.532Z" transform="translate(-428.955 -272.827)" fill="#f0f0f0"/>
          <path id="Path_12382" data-name="Path 12382" d="M448.988,294.19c.2-.4,1.37-1.346,3.559-2.566,1.474-.824,3.135-1.883,3.512-1.483s-.767,2.26-2.476,3.22S448.777,294.591,448.988,294.19Z" transform="translate(-432.252 -277.421)" fill="#f0f0f0"/>
          <path id="Path_12383" data-name="Path 12383" d="M439.669,309.578c.282-.428,2.952-1.709,4.185-2.288s2.778-1,3.357-.593-.621,1.85-2.778,2.66S439.391,310.016,439.669,309.578Z" transform="translate(-427.315 -286.143)" fill="#f0f0f0"/>
          <path id="Path_12384" data-name="Path 12384" d="M433.691,307.313c.372-.179,1.12-2.58,1.634-4.924s.541-5.254-.3-5.033-1.539,1.808-1.827,4.326C432.877,304.475,433.324,307.488,433.691,307.313Z" transform="translate(-423.842 -281.28)" fill="#f0f0f0"/>
          <path id="Path_12385" data-name="Path 12385" d="M429.348,321.949c.08-.249,2.18-.636,4.3-1.2s3.008-.8,3.371-.245-.471,1.808-2.858,2.2S429.263,322.2,429.348,321.949Z" transform="translate(-421.861 -293.369)" fill="#f0f0f0"/>
          <path id="Path_12386" data-name="Path 12386" d="M435.363,268.616a45.287,45.287,0,0,1-2.683,9.279,53.876,53.876,0,0,1-4.406,8.62,33.424,33.424,0,0,1-6.2,7.471,18.368,18.368,0,0,1-8.6,4.373.038.038,0,0,1,0-.071,21.33,21.33,0,0,0,8.149-4.83,39.75,39.75,0,0,0,6.176-7.273,53.042,53.042,0,0,0,4.552-8.446,44.905,44.905,0,0,0,2.938-9.152.038.038,0,0,1,.042-.028S435.363,268.6,435.363,268.616Z" transform="translate(-413.448 -266.045)" fill="#e0e0e0"/>
        </g>
        <g id="freepik--leaves--inject-104-5" data-name="freepik--leaves--inject-104" transform="translate(12.339)">
          <path id="Path_12387" data-name="Path 12387" d="M448.661,180.215c-2.156-4.788-4.322-5.221-6.12-6.591a8.275,8.275,0,0,1-2.881-3.394c-.024,1.591,1.083,5.649,3.79,7.189C445.7,178.723,447.31,178.539,448.661,180.215Z" transform="translate(-439.659 -159.459)" fill="#e0e0e0"/>
          <path id="Path_12388" data-name="Path 12388" d="M459.423,160.315a8.116,8.116,0,0,0,3.743-7.786,10.526,10.526,0,0,1,.541-5.178A12.492,12.492,0,0,0,459.423,160.315Z" transform="translate(-449.885 -147.35)" fill="#e0e0e0"/>
        </g>
        <path id="freepik--Leavesz--inject-104" d="M459.461,231.291a18.123,18.123,0,0,0,1.412-6.12c.24-2.778.419-5.569.471-8.356V216a7.414,7.414,0,0,0,1.469-1.247,4.341,4.341,0,0,0,.72-1.215c.546-1.412,0-3.507,1.012-4.661.066-.075.042-.273-.085-.193a7.961,7.961,0,0,0-3.225,4.006c-.066-1.318-.184-2.632-.367-3.94-.1-.716-.193-1.459-.292-2.2.805-1.04,1.883-1.822,2.434-3.06a5.361,5.361,0,0,0,.174-3.079.094.094,0,0,0-.174-.042,9.847,9.847,0,0,1-1.488,1.977,5.9,5.9,0,0,0-.942,1.149,3.483,3.483,0,0,0-.358.894c-.1-.471-.221-.942-.358-1.412a24.2,24.2,0,0,0,.137-2.933,8.018,8.018,0,0,0-.141-.9c-.061-.282-.16-.541-.25-.819a8.582,8.582,0,0,0-.918-1.836,12.669,12.669,0,0,0-2.128-2.721c-.137-.127-.217.137-.165.231a2.6,2.6,0,0,1,.132.287,7.612,7.612,0,0,1,.593,2.222,3.912,3.912,0,0,1,.066.942,1.568,1.568,0,0,0-.033.367c0,.155.047.311.047.471a2.668,2.668,0,0,0,.066.546c.024.141.047.282.066.424,0,.061.047.174.024.226a.971.971,0,0,1-.245-.174c-.1-.08-.2-.155-.292-.24-.311-.287-.669-.5-.984-.786s-.7-.654-1.083-.942c-.146-.108-.471-.245-.381.066a4.348,4.348,0,0,0,.32.805l.226.494c.118.254.221.518.339.772a9.081,9.081,0,0,0,1.375,2.142,8.751,8.751,0,0,0,.805.862c.673.6,1.384,1.172,2,1.841a6.748,6.748,0,0,1,.546.678c.089.579.184,1.163.268,1.747a.416.416,0,0,1-.024.071.075.075,0,0,0,.052.094c.094.607.179,1.215.254,1.827a54.856,54.856,0,0,1,.3,7.09c-.108-.2-.231-.4-.325-.593a8.541,8.541,0,0,1-.687-1.855,10.6,10.6,0,0,0-3.884-8.229c-.113-.1-.217.085-.193.184a39.574,39.574,0,0,0,1.412,5.362c-.692-.984-1.445-1.935-2.161-2.872a11.1,11.1,0,0,0-1.064-1.271c0-.08-.113-.217-.146-.3s-.089-.207-.127-.315c-.174-.471-.33-.942-.471-1.412-.1-.287-.2-.57-.311-.852-.08-.207-.165-.4-.264-.593a3.964,3.964,0,0,0-.65-.984c-.3-.33-.636-.626-.942-.942a17.421,17.421,0,0,0-1.554-1.257,6.223,6.223,0,0,0-.871-.659c-.151-.08-.282-.2-.428-.292a3.769,3.769,0,0,0-.424-.188c-.071-.038-.118,0-.141.08-.118.118.038.287.1.4a3.346,3.346,0,0,1,.226.664c.075.24.132.471.2.72a8.534,8.534,0,0,0,.744,1.794,7.959,7.959,0,0,0,1.045,1.412,8.591,8.591,0,0,0,1.384,1.262,14.258,14.258,0,0,0,1.572.97c2.057,1.412,3.088,3.893,4.774,5.687.471.942,1.1,1.841,2.095,1.977a5.925,5.925,0,0,0,.471,1.412,11.08,11.08,0,0,0,.664,1.342c-.033,2.429-.16,4.849-.353,7.269-.061.777-.127,1.554-.217,2.33-.184-.471-.4-.942-.621-1.412a5.875,5.875,0,0,0-.127-3.418,14.782,14.782,0,0,0-.7-1.521,18.759,18.759,0,0,1-1.488-2.467c-.052-.169-.221-.056-.235.071-.33,3.455,1.93,6.153,3.112,9.2a14.594,14.594,0,0,1-1.182,4.43C458.882,231.235,459.325,231.588,459.461,231.291Zm-2.1-35.025a7.062,7.062,0,0,0-.443-1.671,16.136,16.136,0,0,1,1.116,1.474,18.7,18.7,0,0,1,1.045,1.648,4.92,4.92,0,0,1,.325.7c.057.16.108.32.169.471a4.277,4.277,0,0,1,.146.636,5.536,5.536,0,0,1,.042.734,6.514,6.514,0,0,1,0,.8,12.629,12.629,0,0,0-.066,1.582,1.37,1.37,0,0,0-.2-.5,3.91,3.91,0,0,0-.3-.433c-.094-.137-.184-.268-.268-.41a3.067,3.067,0,0,0-.273-.33c-.174-.217-.344-.433-.494-.664a4.288,4.288,0,0,1-.5-.942,5.309,5.309,0,0,1-.217-1.676A10.354,10.354,0,0,0,457.357,196.266Zm-.843,4.651-.089-.113c-.1-.132-.212-.264-.306-.41-.184-.287-.381-.565-.537-.866-.075-.137-.132-.282-.2-.424-.165-.353-.381-.687-.523-1.055-.024-.056-.151-.311-.038-.311s.259.2.311.245c.381.353.786.678,1.172,1.026.2.188.4.377.6.579a20.476,20.476,0,0,1,1.572,1.624,5.319,5.319,0,0,1,.471.669c.075.127.141.259.207.4a8.473,8.473,0,0,1,.7,2.264,1.294,1.294,0,0,0-.353-.471c-.1-.1-.278-.315-.428-.471-.273-.268-.565-.518-.829-.786a18.393,18.393,0,0,1-1.6-1.723A.508.508,0,0,0,456.514,200.917Zm3.8,4.011a4.43,4.43,0,0,1,1.459-2.462,8.09,8.09,0,0,0,.791-.861c.3-.4.273-1.017.5-.292.4,1.271-.669,2.763-1.45,3.644a13.462,13.462,0,0,0-1.1,1.215c-.061-.433-.127-.847-.2-1.262Zm-7.339,1-.494-.306a8.8,8.8,0,0,1-1.549-1.139,7.532,7.532,0,0,1-1.271-1.459,10.672,10.672,0,0,1-1.163-2.354c-.042-.127-.471-1.144-.25-1.172s.471.254.6.334a10.5,10.5,0,0,1,3.46,3.422,8.816,8.816,0,0,1,.574,1.295c.085.268.169.541.259.805.042.137.089.268.141.4s.047.132.075.193.042.155.075.179a2.527,2.527,0,0,0-.457-.217Zm4.948,5.988h0c-.056-.089-.118-.174-.169-.264a21.894,21.894,0,0,1-1.671-5.908,11.9,11.9,0,0,1,2.6,3.375,12.2,12.2,0,0,1,.9,4.4,4.148,4.148,0,0,1-1.667-1.624Zm3.385,3.672c0-.631,0-1.266-.033-1.883a7.033,7.033,0,0,1,1.535-3.2c.151-.184,1.078-1.05,1.313-1.412-.1.259-.32.8-.325.805-.155.678-.122,1.379-.217,2.062a4.76,4.76,0,0,1-1.1,2.617,13.436,13.436,0,0,1-1.172.989Zm-4.006,2.274c.193.339.443.645.654.97a13.956,13.956,0,0,1,1.168,2.189,6.544,6.544,0,0,1,.358,3.338C458.444,222.281,457.263,220.219,457.3,217.865Z" transform="translate(-431.506 -171.895)" fill="#e0e0e0"/>
      </g>
      <g id="freepik--leaves--inject-104-6" data-name="freepik--leaves--inject-104" transform="translate(0)">
        <g id="freepik--leaves--inject-104-7" data-name="freepik--leaves--inject-104" transform="translate(9.153 54.548)">
          <path id="Path_12389" data-name="Path 12389" d="M42.392,276.688a11.822,11.822,0,0,1-4.336-7.137c-.942-4.086.08-6.308.523-6.332s1.492,1.488,2.608,6.031C41.648,271.143,42.392,276.688,42.392,276.688Z" transform="translate(-36.803 -263.219)" fill="#f0f0f0"/>
          <path id="Path_12390" data-name="Path 12390" d="M53.794,293.532a26.922,26.922,0,0,1-2.307-8.662c-.24-2.354.339-3.639.843-3.484.3.094,1.323,1.615,1.681,5.207S54.053,293.88,53.794,293.532Z" transform="translate(-44.085 -272.827)" fill="#f0f0f0"/>
          <path id="Path_12391" data-name="Path 12391" d="M42.97,294.19c-.2-.4-1.37-1.346-3.559-2.566-1.474-.824-3.135-1.883-3.512-1.483s.767,2.26,2.476,3.22S43.182,294.591,42.97,294.19Z" transform="translate(-35.827 -277.421)" fill="#f0f0f0"/>
          <path id="Path_12392" data-name="Path 12392" d="M51.669,309.578c-.282-.428-2.952-1.709-4.185-2.288s-2.778-1-3.357-.593.621,1.85,2.778,2.66S51.946,310.016,51.669,309.578Z" transform="translate(-40.143 -286.143)" fill="#f0f0f0"/>
          <path id="Path_12393" data-name="Path 12393" d="M63.384,307.313c-.372-.179-1.12-2.58-1.634-4.924s-.546-5.254.3-5.033,1.539,1.808,1.827,4.326C64.2,304.475,63.751,307.488,63.384,307.313Z" transform="translate(-49.354 -281.28)" fill="#f0f0f0"/>
          <path id="Path_12394" data-name="Path 12394" d="M61.932,321.949c-.08-.249-2.18-.636-4.3-1.2s-3.008-.8-3.371-.245.471,1.808,2.858,2.2S62.017,322.2,61.932,321.949Z" transform="translate(-45.539 -293.369)" fill="#f0f0f0"/>
          <path id="Path_12395" data-name="Path 12395" d="M40,268.637a45.288,45.288,0,0,0,2.683,9.279,53.874,53.874,0,0,0,4.406,8.62,33.425,33.425,0,0,0,6.2,7.471,18.368,18.368,0,0,0,8.6,4.373.038.038,0,1,0,0-.071,21.33,21.33,0,0,1-8.149-4.83,39.751,39.751,0,0,1-6.176-7.273,53.043,53.043,0,0,1-4.552-8.427,44.9,44.9,0,0,1-2.938-9.152.038.038,0,0,0-.042-.028S40,268.618,40,268.637Z" transform="translate(-38.036 -266.066)" fill="#e0e0e0"/>
        </g>
        <g id="freepik--leaves--inject-104-8" data-name="freepik--leaves--inject-104" transform="translate(6.871)">
          <path id="Path_12396" data-name="Path 12396" d="M41.22,180.215c2.156-4.788,4.322-5.221,6.12-6.591a8.275,8.275,0,0,0,2.881-3.394c0,1.591-1.083,5.649-3.79,7.189C44.181,178.723,42.571,178.539,41.22,180.215Z" transform="translate(-36.399 -159.459)" fill="#e0e0e0"/>
          <path id="Path_12397" data-name="Path 12397" d="M35.264,160.315a8.116,8.116,0,0,1-3.743-7.786,10.526,10.526,0,0,0-.541-5.178A12.492,12.492,0,0,1,35.264,160.315Z" transform="translate(-30.98 -147.35)" fill="#e0e0e0"/>
        </g>
        <path id="freepik--leavesz--inject-104-2" data-name="freepik--leavesz--inject-104" d="M21.914,230.967a14.594,14.594,0,0,1-1.182-4.43c1.182-3.051,3.441-5.748,3.112-9.2,0-.127-.184-.24-.235-.071a18.757,18.757,0,0,1-1.488,2.467,14.788,14.788,0,0,0-.7,1.521,5.875,5.875,0,0,0-.127,3.418c-.226.471-.438.942-.621,1.412-.089-.777-.155-1.554-.217-2.33-.193-2.42-.32-4.84-.353-7.269a11.081,11.081,0,0,0,.664-1.342,5.927,5.927,0,0,0,.471-1.412,3.105,3.105,0,0,0,2.095-1.977c1.685-1.794,2.716-4.279,4.774-5.687a14.258,14.258,0,0,0,1.572-.97,8.592,8.592,0,0,0,1.384-1.262,7.957,7.957,0,0,0,1.045-1.412,8.536,8.536,0,0,0,.744-1.794c.071-.245.127-.471.2-.72a3.348,3.348,0,0,1,.226-.664c.061-.118.217-.287.1-.4-.024-.061-.071-.118-.141-.08a3.765,3.765,0,0,0-.424.188c-.146.094-.278.212-.428.292a6.224,6.224,0,0,0-.871.659c-.523.414-1.059.805-1.554,1.257a8.468,8.468,0,0,0-.942.942,3.964,3.964,0,0,0-.65.984c-.1.2-.184.386-.264.593-.113.282-.212.565-.311.852-.165.471-.32.942-.494,1.412-.038.108-.08.212-.127.315s-.141.217-.146.3a11.1,11.1,0,0,0-1.064,1.271c-.716.942-1.469,1.883-2.161,2.872a41.016,41.016,0,0,0,1.412-5.362c0-.1-.08-.287-.193-.184a10.568,10.568,0,0,0-3.884,8.229,8.54,8.54,0,0,1-.7,1.864c-.094.193-.217.391-.325.593a54.852,54.852,0,0,1,.3-7.09c.075-.612.16-1.219.254-1.827a.075.075,0,0,0,.052-.094.415.415,0,0,1-.024-.071c.085-.584.179-1.168.268-1.747a6.748,6.748,0,0,1,.546-.678c.617-.668,1.328-1.238,2-1.841a8.749,8.749,0,0,0,.805-.861,9.081,9.081,0,0,0,1.375-2.142c.118-.254.221-.518.339-.772l.226-.494a4.344,4.344,0,0,0,.32-.805c.071-.311-.235-.174-.381-.066-.381.287-.73.621-1.083.942s-.673.5-.984.786c-.094.085-.193.16-.292.24a.971.971,0,0,1-.245.174.727.727,0,0,1,0-.226,2.639,2.639,0,0,1,.066-.424,2.664,2.664,0,0,0,.066-.546c0-.16.033-.315.047-.471a1.568,1.568,0,0,0-.033-.367,3.912,3.912,0,0,1,.066-.942,7.612,7.612,0,0,1,.593-2.222c.038-.094.085-.193.132-.287s-.028-.358-.165-.231a12.668,12.668,0,0,0-2.128,2.721,8.582,8.582,0,0,0-.918,1.836c-.089.278-.188.537-.25.819a9.057,9.057,0,0,0-.141.9c-.118,1.045.16,1.911.137,2.933-.137.471-.254.942-.358,1.412a3.484,3.484,0,0,0-.358-.894,5.9,5.9,0,0,0-.942-1.149,9.848,9.848,0,0,1-1.488-1.977.094.094,0,0,0-.174.042,5.361,5.361,0,0,0,.174,3.079c.556,1.238,1.629,2.02,2.434,3.06-.1.739-.188,1.483-.292,2.2-.184,1.309-.3,2.622-.367,3.94a7.961,7.961,0,0,0-3.192-4.034c-.127-.08-.151.118-.085.193,1.026,1.153.471,3.244,1.012,4.661a4.341,4.341,0,0,0,.72,1.215,7.415,7.415,0,0,0,1.459,1.257v.819c.033,2.787.212,5.579.471,8.356a16.844,16.844,0,0,0,1.412,6.12C21.6,231.593,22.041,231.24,21.914,230.967ZM23.5,197.7a5.31,5.31,0,0,1-.217,1.676,4.5,4.5,0,0,1-.5.942c-.151.231-.32.471-.471.664a3.073,3.073,0,0,0-.273.33c-.085.141-.174.273-.268.41a3.912,3.912,0,0,0-.3.433,1.37,1.37,0,0,0-.2.5,12.626,12.626,0,0,0-.066-1.582,6.52,6.52,0,0,1,0-.8,5.536,5.536,0,0,1,.042-.734,4.279,4.279,0,0,1,.146-.636c.061-.16.113-.32.169-.471a4.919,4.919,0,0,1,.292-.711,18.71,18.71,0,0,1,1.045-1.648,16.139,16.139,0,0,1,1.116-1.474,7.062,7.062,0,0,0-.443,1.671A10.357,10.357,0,0,0,23.5,197.7Zm.777,3.366a18.4,18.4,0,0,1-1.6,1.742c-.264.268-.556.518-.829.786a5.841,5.841,0,0,0-.428.471c-.137.169-.325.334-.353.471a8.474,8.474,0,0,1,.7-2.264c.066-.137.132-.268.207-.4a5.32,5.32,0,0,1,.471-.668,20.473,20.473,0,0,1,1.572-1.624c.193-.2.4-.391.6-.579.386-.348.791-.673,1.172-1.026.052-.047.226-.245.311-.245s0,.254-.038.311c-.141.367-.358.7-.523,1.055-.066.141-.122.287-.2.424-.155.3-.353.579-.537.866-.094.146-.2.278-.306.41l-.089.113A1.4,1.4,0,0,0,24.277,201.064Zm-3.87,5.094a13.458,13.458,0,0,0-1.1-1.215c-.781-.88-1.845-2.354-1.45-3.644.231-.725.207-.113.5.292a8.092,8.092,0,0,0,.791.862,4.429,4.429,0,0,1,1.459,2.462C20.534,205.329,20.468,205.743,20.407,206.158Zm7.109,0c.033,0,.056-.141.075-.179s.052-.127.075-.193.1-.264.141-.4c.089-.264.174-.537.259-.805a8.366,8.366,0,0,1,.579-1.3,10.532,10.532,0,0,1,3.455-3.422c.108-.08.443-.358.6-.334s-.207,1.045-.25,1.172a10.672,10.672,0,0,1-1.163,2.354,7.645,7.645,0,0,1-1.266,1.459,9.009,9.009,0,0,1-1.554,1.139l-.518.3a2.528,2.528,0,0,0-.447.207Zm-6.181,7.335a12.2,12.2,0,0,1,.9-4.4,11.9,11.9,0,0,1,2.6-3.375,21.9,21.9,0,0,1-1.671,5.908c-.052.089-.113.174-.169.264h0a4.147,4.147,0,0,1-1.667,1.605Zm-2.891,1.083a4.759,4.759,0,0,1-1.1-2.617c-.094-.683-.061-1.384-.217-2.062,0,0-.226-.546-.325-.805.235.363,1.163,1.229,1.313,1.412a7.033,7.033,0,0,1,1.535,3.2c0,.626-.038,1.262-.033,1.883a13.444,13.444,0,0,1-1.172-1.007Zm3,9.811a6.544,6.544,0,0,1,.358-3.338,13.953,13.953,0,0,1,1.168-2.189c.212-.325.471-.631.654-.97.038,2.335-1.144,4.4-2.18,6.482Z" transform="translate(-16.384 -171.9)" fill="#e0e0e0"/>
      </g>
    </g>
    <g id="freepik--Potion--inject-104" transform="translate(61.284 42.819)">
      <g id="freepik--potion--inject-104-2" data-name="freepik--potion--inject-104">
        <g id="freepik--Bottle--inject-104" transform="translate(0 13.169)">
          <g id="freepik--Base--inject-104" transform="translate(36.884 140.767)">
            <path id="Path_12398" data-name="Path 12398" d="M244.5,392.983a10.448,10.448,0,0,0-1.092-13.45c-6.059-7.146-15.027-9.533-25.1-9.533s-19.028,2.391-25.082,9.514c-2.552,2.778-3.893,6.774-2.632,10.446C197.7,407.162,234.31,407.191,244.5,392.983Z" transform="translate(-190.109 -369.991)" fill="#c9ddff"/>
            <path id="Path_12399" data-name="Path 12399" d="M244.5,392.983a10.448,10.448,0,0,0-1.092-13.45c-6.059-7.146-15.027-9.533-25.1-9.533s-19.028,2.391-25.082,9.514c-2.552,2.778-3.893,6.774-2.632,10.446C197.7,407.162,234.31,407.191,244.5,392.983Z" transform="translate(-190.109 -369.991)" fill="#fff" opacity="0.7"/>
            <path id="Path_12400" data-name="Path 12400" d="M208.91,384.85c-3.634,2.693-9.928,10.889-10.715,12.212a4.181,4.181,0,0,0,.767,4.336c.767.57-1.313-.339-3.074-2.787s-1.436-4.515-1.332-3.592Z" transform="translate(-192.414 -377.85)" fill="#c9ddff" opacity="0.2"/>
            <path id="Path_12401" data-name="Path 12401" d="M226.2,390.44a49.8,49.8,0,0,0-3.667,16.27c-.094,1.572.758,3.71,2.519,3.95s-1.295.414-4.548-.57-5.612-2.763-4.444-2.283S226.2,390.44,226.2,390.44Z" transform="translate(-203.682 -380.808)" fill="#c9ddff" opacity="0.2"/>
            <path id="Path_12402" data-name="Path 12402" d="M196.886,380.28a30.506,30.506,0,0,1,12.8-6.12,7.99,7.99,0,0,0,3.013-.942c.245-.311-.315-.683-1.37-.739a13.255,13.255,0,0,0-1.921,0,22.016,22.016,0,0,0-9.509,4.077,21.588,21.588,0,0,0-3.733,3.46C195.351,381.081,195.756,381.222,196.886,380.28Zm13.422-3.041c1.233-.8,2.062-1.685,1.949-2.076s-1.257-.574-2.679-.2a34.192,34.192,0,0,0-12.956,6.991,7.236,7.236,0,0,0-2.443,4.421,8.276,8.276,0,0,0,.226,2.067c.334,1.412,1.681,1.511,2.627.381A59.113,59.113,0,0,1,210.307,377.239Zm20.911-3.088a31.022,31.022,0,0,1,12.8,6.12c1.13.942,1.535.8.716-.273a21.589,21.589,0,0,0-3.733-3.46,22.016,22.016,0,0,0-9.51-4.077,13.264,13.264,0,0,0-1.921,0c-1.055.056-1.61.41-1.37.739A7.578,7.578,0,0,0,231.219,374.151ZM214.85,377.4a4.316,4.316,0,0,0-3.488.734A50.45,50.45,0,0,0,198.044,390.5a3.154,3.154,0,0,0,.433,4.063,27.064,27.064,0,0,0,7.325,4.195,2.472,2.472,0,0,0,3.239-1.714,124.793,124.793,0,0,1,6.007-16.722C215.65,378.967,215.566,377.719,214.85,377.4Zm29.437,4.566a34.191,34.191,0,0,0-12.956-6.991c-1.412-.377-2.566-.193-2.679.2s.716,1.276,1.949,2.076a59.112,59.112,0,0,1,13.276,11.586c.942,1.13,2.293,1.05,2.627-.381a8.276,8.276,0,0,0,.226-2.067,7.236,7.236,0,0,0-2.443-4.435Zm-14.74-3.832a4.316,4.316,0,0,0-3.488-.734c-.711.325-.8,1.577-.2,2.919a124.146,124.146,0,0,1,6.007,16.722,2.472,2.472,0,0,0,3.239,1.714,27.066,27.066,0,0,0,7.325-4.195,3.154,3.154,0,0,0,.433-4.063,49.977,49.977,0,0,0-13.318-12.376Zm-5.579,1.784a2.307,2.307,0,0,0-2.3-1.412c-.358.024-.767.042-1.215.042a10.888,10.888,0,0,1-1.219-.042,2.3,2.3,0,0,0-2.293,1.412,157.657,157.657,0,0,0-6.031,17.969,2.443,2.443,0,0,0,1.935,3.1,44.868,44.868,0,0,0,15.215,0,2.443,2.443,0,0,0,1.935-3.1,158.594,158.594,0,0,0-6.031-17.983Z" transform="translate(-192.262 -371.275)" fill="#c9ddff"/>
            <path id="Path_12403" data-name="Path 12403" d="M196.886,380.291a30.506,30.506,0,0,1,12.8-6.12,7.989,7.989,0,0,0,3.013-.942c.245-.311-.315-.683-1.37-.739a13.26,13.26,0,0,0-1.921,0,22.016,22.016,0,0,0-9.509,4.077,21.588,21.588,0,0,0-3.733,3.46C195.351,381.091,195.756,381.232,196.886,380.291Zm34.333-6.12a31.022,31.022,0,0,1,12.8,6.12c1.13.942,1.535.8.716-.273a21.591,21.591,0,0,0-3.733-3.46,22.016,22.016,0,0,0-9.51-4.077,13.264,13.264,0,0,0-1.921,0c-1.055.056-1.61.41-1.37.739a7.621,7.621,0,0,0,3.013.942Zm-20.911,3.088c1.233-.8,2.062-1.685,1.949-2.076s-1.257-.574-2.679-.2a34.192,34.192,0,0,0-12.956,6.991,7.236,7.236,0,0,0-2.443,4.421,8.277,8.277,0,0,0,.226,2.067c.334,1.412,1.681,1.511,2.627.381a59.114,59.114,0,0,1,13.276-11.6Zm33.98,4.708a34.192,34.192,0,0,0-12.956-6.991c-1.412-.377-2.566-.193-2.679.2s.716,1.276,1.949,2.076a59.113,59.113,0,0,1,13.276,11.586c.942,1.13,2.293,1.05,2.627-.381a8.277,8.277,0,0,0,.226-2.067,7.24,7.24,0,0,0-2.443-4.42Zm-14.74-3.832a4.316,4.316,0,0,0-3.488-.734c-.711.325-.8,1.577-.2,2.919a124.147,124.147,0,0,1,6.007,16.722,2.472,2.472,0,0,0,3.239,1.714,27.065,27.065,0,0,0,7.325-4.195,3.154,3.154,0,0,0,.433-4.063A50.163,50.163,0,0,0,229.547,378.135Zm-5.579,1.784a2.307,2.307,0,0,0-2.3-1.412c-.358.024-.767.042-1.215.042a10.888,10.888,0,0,1-1.219-.042,2.3,2.3,0,0,0-2.293,1.412,157.66,157.66,0,0,0-6.031,17.969,2.443,2.443,0,0,0,1.935,3.1,44.87,44.87,0,0,0,15.215,0,2.443,2.443,0,0,0,1.935-3.1,158.59,158.59,0,0,0-6.031-17.969Zm-9.119-2.5a4.316,4.316,0,0,0-3.488.734,50.449,50.449,0,0,0-13.318,12.362,3.154,3.154,0,0,0,.433,4.063,27.065,27.065,0,0,0,7.325,4.195,2.472,2.472,0,0,0,3.239-1.714,124.793,124.793,0,0,1,6.007-16.722C215.65,378.977,215.566,377.73,214.85,377.415Z" transform="translate(-192.262 -371.285)" fill="#fff" opacity="0.8"/>
            <path id="Path_12404" data-name="Path 12404" d="M240.1,387c-1.073,0-1.172.617-1.845,2.354s-4.571,13.681-4.6,15.488,1.177,2.556,3.766,2.7,4.891.066,4.891-1.789-.377-13.986-.443-15.771c-.085-2.293.221-2.971-1.031-2.971C240.6,387.024,240.4,387,240.1,387Z" transform="translate(-213.152 -378.988)" fill="#fff" opacity="0.3"/>
            <path id="Path_12405" data-name="Path 12405" d="M262.754,384.359c-.692.353-.231,1.342.659,2.825a100.1,100.1,0,0,1,4.6,11.793c.885,2.9,1.478,4.133,2.537,4.5s4.293-1.544,5.348-2.2.362-1.252-.777-1.055-2.5.4-3.375-1.648a61.7,61.7,0,0,0-4.355-8.9C265.612,386.976,263.55,383.954,262.754,384.359Z" transform="translate(-228.378 -377.57)" fill="#fff" opacity="0.3"/>
            <path id="Path_12406" data-name="Path 12406" d="M286.192,388.657a7.667,7.667,0,0,1,0,3.055.683.683,0,0,1-.692.41,3.609,3.609,0,0,1-1.45-1.243,58.45,58.45,0,0,0-7.273-7.2c-1.648-1.238-5.56-3.9-6.12-4.171s-.362-.7.7-.424a27,27,0,0,1,7.782,4.477c1.765,1.361,5.235,4.967,5.814,5.221s.636-.7.876-.64S286.126,388.412,286.192,388.657Z" transform="translate(-232.576 -374.75)" fill="#fff" opacity="0.3"/>
            <path id="Path_12407" data-name="Path 12407" d="M217.091,385.026a54.528,54.528,0,0,0-7.372,5.889c-2.481,2.321-5.71,6.167-6.082,7.363s1.158,2.938,2.876,3.893,3.018,1.7,3.766,1.549.391-1.022-.979-2.076-1.8-3.4-.711-5.569,7.189-8.507,9.444-10.291C219.337,384.739,218.372,384.179,217.091,385.026Z" transform="translate(-197.239 -377.725)" fill="#fff" opacity="0.3"/>
            <path id="Path_12408" data-name="Path 12408" d="M210.384,378.587a37.747,37.747,0,0,0-8,3.766c-2.481,1.577-5.075,3.71-5.649,4.618a5.969,5.969,0,0,0-.993,3.182c-.028,1.29.325,1.77.838,1.695s.744-1.375,1.083-2.457a11.58,11.58,0,0,1,2.825-4.209c1.667-1.648,7.038-4.844,9.415-5.842C211.278,378.775,211.933,378.286,210.384,378.587Z" transform="translate(-193.087 -374.486)" fill="#fff" opacity="0.3"/>
            <path id="Path_12409" data-name="Path 12409" d="M247.6,374.532c-5.419-3.324-12.066-4.557-19.3-4.552s-13.869,1.229-19.3,4.552a11.709,11.709,0,0,0,5.273,5.47c7.739,4.468,20.281,4.468,28.02,0A11.706,11.706,0,0,0,247.6,374.532Z" transform="translate(-200.107 -369.98)" fill="#c9ddff" opacity="0.2"/>
          </g>
          <g id="freepik--Ring--inject-104" transform="translate(42.562 121.479)">
            <path id="Path_12410" data-name="Path 12410" d="M240.039,332.724a33.592,33.592,0,0,0-30.708,0c-4.614,2.665-7.16,6.374-7.16,10.442s2.547,7.777,7.165,10.446a33.62,33.62,0,0,0,30.7,0c4.618-2.669,7.165-6.379,7.165-10.446S244.657,335.389,240.039,332.724Zm-2.231,16.948c-7.245,4.18-19,4.18-26.241,0s-7.245-10.969,0-15.154,19-4.18,26.241,0S245.052,345.482,237.807,349.672Z" transform="translate(-202.17 -329.01)" fill="#c9ddff"/>
            <path id="Path_12411" data-name="Path 12411" d="M240.039,332.724a33.592,33.592,0,0,0-30.708,0c-4.614,2.665-7.16,6.374-7.16,10.442s2.547,7.777,7.165,10.446a33.62,33.62,0,0,0,30.7,0c4.618-2.669,7.165-6.379,7.165-10.446S244.657,335.389,240.039,332.724Zm-2.231,16.948c-7.245,4.18-19,4.18-26.241,0s-7.245-10.969,0-15.154,19-4.18,26.241,0S245.052,345.482,237.807,349.672Z" transform="translate(-202.17 -329.01)" fill="#fff" opacity="0.5"/>
            <path id="Path_12412" data-name="Path 12412" d="M240.06,364.192c3.352-1.935,5.607-4.421,6.591-7.189-.508,1.233-2.246,4.642-7.928,7.1-7.48,3.239-18.581,3.47-27.4-.541s-9.213-11.331-7.867-14.561h0a9.849,9.849,0,0,0-1.248,4.764c0,4.067,2.547,7.777,7.165,10.446a33.505,33.505,0,0,0,30.685-.019Z" transform="translate(-202.191 -339.589)" fill="#c9ddff" opacity="0.1"/>
            <path id="Path_12413" data-name="Path 12413" d="M240.06,364.192c3.352-1.935,5.607-4.421,6.591-7.189-.508,1.233-2.246,4.642-7.928,7.1-7.48,3.239-18.581,3.47-27.4-.541s-9.213-11.331-7.867-14.561h0a9.849,9.849,0,0,0-1.248,4.764c0,4.067,2.547,7.777,7.165,10.446a33.505,33.505,0,0,0,30.685-.019Z" transform="translate(-202.191 -339.589)" fill="#c9ddff" opacity="0.2"/>
            <path id="Path_12414" data-name="Path 12414" d="M210.9,342.046h0c.5-2.279,2.255-4.477,5.282-6.224,7.245-4.18,19-4.18,26.241,0,2.952,1.7,4.708,3.837,5.244,6.054h0c-.654-4.369-4.072-7.3-10.07-9.109a29.34,29.34,0,0,0-20.055,1.012C213.329,335.667,210.9,339.033,210.9,342.046Z" transform="translate(-206.79 -330.314)" fill="#c9ddff" opacity="0.1"/>
            <path id="Path_12415" data-name="Path 12415" d="M210.9,342.046h0c.5-2.279,2.255-4.477,5.282-6.224,7.245-4.18,19-4.18,26.241,0,2.952,1.7,4.708,3.837,5.244,6.054h0c-.654-4.369-4.072-7.3-10.07-9.109a29.34,29.34,0,0,0-20.055,1.012C213.329,335.667,210.9,339.033,210.9,342.046Z" transform="translate(-206.79 -330.314)" opacity="0.05"/>
            <path id="Path_12416" data-name="Path 12416" d="M267.9,349.958c-.358-.207-.97-.339-.857.537a11.331,11.331,0,0,1-.6,5.936c-1.728,4-7.594,8.06-20.436,8.53a27.853,27.853,0,0,0,14.034-1.163c6.2-2.354,7.9-5.221,8.888-8.8C269.505,352.868,268.832,350.495,267.9,349.958Z" transform="translate(-225.366 -340.016)" fill="#fff" opacity="0.6"/>
          </g>
          <path id="Path_12417" data-name="Path 12417" d="M209.383,125.634A32.676,32.676,0,0,0,197.36,127.9a4.237,4.237,0,0,1-5.748-3.94V101.154c0-2.18-1.441-4.364-4.326-6.031-5.767-3.328-15.121-3.328-20.893,0-2.886,1.667-4.326,3.851-4.326,6.031V123.9a4.237,4.237,0,0,1-5.753,3.936A32.605,32.605,0,0,0,111.76,158.1c-.038,34.178,34.488,56.276,47.482,64.594h0a32.568,32.568,0,0,0,35.058.038h0c13.012-8.29,47.58-30.317,47.618-64.5A32.563,32.563,0,0,0,209.383,125.634Z" transform="translate(-111.76 -82.429)" fill="#c9ddff"/>
          <path id="Path_12418" data-name="Path 12418" d="M209.383,125.634A32.676,32.676,0,0,0,197.36,127.9a4.237,4.237,0,0,1-5.748-3.94V101.154c0-2.18-1.441-4.364-4.326-6.031-5.767-3.328-15.121-3.328-20.893,0-2.886,1.667-4.326,3.851-4.326,6.031V123.9a4.237,4.237,0,0,1-5.753,3.936A32.605,32.605,0,0,0,111.76,158.1c-.038,34.178,34.488,56.276,47.482,64.594h0a32.568,32.568,0,0,0,35.058.038h0c13.012-8.29,47.58-30.317,47.618-64.5A32.563,32.563,0,0,0,209.383,125.634Z" transform="translate(-111.76 -82.429)" fill="#fff" opacity="0.7"/>
          <path id="Path_12419" data-name="Path 12419" d="M242.509,204.841a3.644,3.644,0,0,0-.042-.942h0a2.787,2.787,0,0,0-.984-1.648c-2.076-1.728-10.644-1.5-17.889-1.676-15.178-.381-26.071-1.85-35.308-4.439a89.921,89.921,0,0,1-9.924-3.4c-1.756-.716-3.465-1.412-5.15-2.133-9.886-4.124-18.76-7.758-28.952-8.2-6.657-.287-12.424,1.657-15.5,4.962-.061.066-.122.132-.174.2-.132.151-.264.306-.391.471a.2.2,0,0,1-.042.047,27.742,27.742,0,0,0-6.355,17.739c.047,31.6,33.048,52.6,45.467,60.508a27.87,27.87,0,0,0,29.866.033l.127-.08c12.4-7.942,45.33-29.046,45.283-60.649C242.524,205.363,242.519,205.1,242.509,204.841Z" transform="translate(-117.073 -129.93)" fill="#c9ddff"/>
          <path id="Path_12420" data-name="Path 12420" d="M203.818,264.353c4.962-3.79,10.512-9.039,12.88-13.4,1.563-2.886,2-7.758-.513-9.994-5.117-4.548-17.315-2.231-36.8-4.778-36.833-4.811-44.182-19.33-46.606-28.35l.052-20.968a13.45,13.45,0,0,0-4.049,2.881c-.061.066-.122.132-.174.2-.132.151-.264.306-.391.471a.2.2,0,0,1-.042.047A27.742,27.742,0,0,0,121.82,208.2c.047,31.6,33.048,52.6,45.467,60.508a27.869,27.869,0,0,0,29.865.033l.127-.08C199.054,267.493,201.295,266.057,203.818,264.353Z" transform="translate(-117.084 -132.3)" opacity="0.05"/>
          <g id="freepik--Bubbles--inject-104" transform="translate(10.71 81.12)">
            <path id="Path_12421" data-name="Path 12421" d="M177.435,278.823a3.182,3.182,0,0,0-2.674,3.441,3.182,3.182,0,0,0-3.926-1.883,3.3,3.3,0,0,0-1.973,4.26c1.017,2.848,4.435,4.053,5.767,4.519l.716.254a1.982,1.982,0,0,0,2.067-.471l.527-.546c.989-1.012,3.512-3.606,3.159-6.591a3.3,3.3,0,0,0-3.663-2.985Zm10.785,11.355a1.883,1.883,0,0,0-2.523.551,1.883,1.883,0,0,0-1.069-2.354,1.944,1.944,0,0,0-2.519,1.191c-.621,1.685.471,3.531.913,4.237l.231.386a1.163,1.163,0,0,0,1.125.56l.447-.042c.833-.089,2.971-.311,3.945-1.817a1.935,1.935,0,0,0-.551-2.712Zm-5.96-23.642.315.052a.819.819,0,0,0,.819-.348l.179-.264a3.725,3.725,0,0,0,.829-2.961,1.37,1.37,0,0,0-1.728-.942,1.332,1.332,0,0,0-.857,1.615,1.337,1.337,0,0,0-1.761-.5,1.375,1.375,0,0,0-.508,1.907A3.758,3.758,0,0,0,182.26,266.536Zm17.993,8.238a1.85,1.85,0,0,0-2.26,1.158,1.883,1.883,0,0,0-1.605-1.973,1.911,1.911,0,0,0-2.095,1.765c-.169,1.756,1.342,3.234,1.93,3.809l.315.311a1.139,1.139,0,0,0,1.21.254l.414-.155c.772-.292,2.745-1.04,3.3-2.712a1.907,1.907,0,0,0-1.205-2.457Zm-41.239-10.536a1.883,1.883,0,0,0-2.528.551,1.883,1.883,0,0,0-1.069-2.354,1.94,1.94,0,0,0-2.514,1.2c-.621,1.681.471,3.526.909,4.237l.231.386a1.172,1.172,0,0,0,1.125.565l.471-.047c.833-.089,2.971-.311,3.95-1.812a1.944,1.944,0,0,0-.574-2.721Zm69.881,1.506a1.883,1.883,0,0,0-2.523.556,1.883,1.883,0,0,0-1.069-2.354,1.94,1.94,0,0,0-2.519,1.191c-.617,1.685.471,3.531.913,4.237l.231.391a1.163,1.163,0,0,0,1.125.56l.447-.047c.833-.085,2.971-.306,3.945-1.812a1.94,1.94,0,0,0-.551-2.721Zm-11.614,1.332a18.24,18.24,0,1,1,.014.019Zm-21.114,1.412a3.8,3.8,0,1,0,.014.028Zm-49.506-13.412a4.628,4.628,0,1,0,4.628,4.628A4.628,4.628,0,0,0,146.661,255.077Zm75.954,19.4a1.591,1.591,0,1,0,1.13.466,1.6,1.6,0,0,0-1.13-.466Zm-15.375,12.569a1.6,1.6,0,1,0,1.6,1.6,1.6,1.6,0,0,0-1.6-1.6Zm-36.056-16.256a.662.662,0,1,0,.009,0ZM136.115,243.28a1.589,1.589,0,1,0,.009,0Zm10.526,24.3a1.591,1.591,0,1,0,.009,0Z" transform="translate(-134.51 -243.28)" fill="#c9ddff"/>
            <path id="Path_12422" data-name="Path 12422" d="M177.435,278.823a3.182,3.182,0,0,0-2.674,3.441,3.182,3.182,0,0,0-3.926-1.883,3.3,3.3,0,0,0-1.973,4.26c1.017,2.848,4.435,4.053,5.767,4.519l.716.254a1.982,1.982,0,0,0,2.067-.471l.527-.546c.989-1.012,3.512-3.606,3.159-6.591a3.3,3.3,0,0,0-3.663-2.985Zm10.785,11.355a1.883,1.883,0,0,0-2.523.551,1.883,1.883,0,0,0-1.069-2.354,1.944,1.944,0,0,0-2.519,1.191c-.621,1.685.471,3.531.913,4.237l.231.386a1.163,1.163,0,0,0,1.125.56l.447-.042c.833-.089,2.971-.311,3.945-1.817a1.935,1.935,0,0,0-.551-2.712Zm-5.96-23.642.315.052a.819.819,0,0,0,.819-.348l.179-.264a3.725,3.725,0,0,0,.829-2.961,1.37,1.37,0,0,0-1.728-.942,1.332,1.332,0,0,0-.857,1.615,1.337,1.337,0,0,0-1.761-.5,1.375,1.375,0,0,0-.508,1.907A3.758,3.758,0,0,0,182.26,266.536Zm17.993,8.238a1.85,1.85,0,0,0-2.26,1.158,1.883,1.883,0,0,0-1.605-1.973,1.911,1.911,0,0,0-2.095,1.765c-.169,1.756,1.342,3.234,1.93,3.809l.315.311a1.139,1.139,0,0,0,1.21.254l.414-.155c.772-.292,2.745-1.04,3.3-2.712a1.907,1.907,0,0,0-1.205-2.457Zm-41.239-10.536a1.883,1.883,0,0,0-2.528.551,1.883,1.883,0,0,0-1.069-2.354,1.94,1.94,0,0,0-2.514,1.2c-.621,1.681.471,3.526.909,4.237l.231.386a1.172,1.172,0,0,0,1.125.565l.471-.047c.833-.089,2.971-.311,3.95-1.812a1.944,1.944,0,0,0-.574-2.721Zm69.881,1.506a1.883,1.883,0,0,0-2.523.556,1.883,1.883,0,0,0-1.069-2.354,1.94,1.94,0,0,0-2.519,1.191c-.617,1.685.471,3.531.913,4.237l.231.391a1.163,1.163,0,0,0,1.125.56l.447-.047c.833-.085,2.971-.306,3.945-1.812a1.94,1.94,0,0,0-.551-2.721Zm-11.614,1.332a18.24,18.24,0,1,1,.014.019Zm-21.114,1.412a3.8,3.8,0,1,0,.014.028Zm-49.506-13.412a4.628,4.628,0,1,0,4.628,4.628A4.628,4.628,0,0,0,146.661,255.077Zm75.954,19.4a1.591,1.591,0,1,0,1.13.466,1.6,1.6,0,0,0-1.13-.466Zm-15.375,12.569a1.6,1.6,0,1,0,1.6,1.6,1.6,1.6,0,0,0-1.6-1.6Zm-36.056-16.256a.662.662,0,1,0,.009,0ZM136.115,243.28a1.589,1.589,0,1,0,.009,0Zm10.526,24.3a1.591,1.591,0,1,0,.009,0Z" transform="translate(-134.51 -243.28)" fill="#fff" opacity="0.1"/>
            <path id="Path_12423" data-name="Path 12423" d="M148.748,257.5a1.756,1.756,0,1,0,1.751,1.751,1.756,1.756,0,0,0-1.751-1.751Zm-.292,11.5a.5.5,0,1,1-.019,0Zm31,11.388a1.791,1.791,0,1,1-.019,0ZM137.9,244.71a.967.967,0,1,1-.019,0Zm79.56,24.838a1.767,1.767,0,1,1-.042,0ZM189,291.415a.905.905,0,1,1-.042,0Zm12.188-15.389a1.176,1.176,0,1,1-.042,0ZM194.5,266.5a2.354,2.354,0,1,0,1.691.688A2.377,2.377,0,0,0,194.5,266.5Z" transform="translate(-135.807 -244.037)" fill="#fff" opacity="0.1"/>
          </g>
          <path id="Path_12424" data-name="Path 12424" d="M182.131,266.257c-19.344,0-40.044-27.747-42.492-36.8s1.916-16.477,8.436-13.37V182.729c-1.266-.155-2.547-.264-3.856-.32-6.657-.287-12.424,1.657-15.5,4.962-.061.066-.122.132-.174.2-.132.151-.264.306-.391.471a.2.2,0,0,1-.042.047,27.742,27.742,0,0,0-6.355,17.739c.047,31.6,33.048,52.6,45.467,60.508a27.869,27.869,0,0,0,29.865.033l.127-.08c3.63-2.326,9.02-5.781,14.829-10.3C206.955,259.694,196,266.257,182.131,266.257Z" transform="translate(-117.052 -129.93)" opacity="0.15"/>
          <path id="Path_12425" data-name="Path 12425" d="M148.923,182.411c-14-.6-24.569,9.58-13.949,20.648,12.1,12.617,32.229,21.83,64.641,21.467,24.084-.273,37.958-7,44.648-14.123,1.883-2,4.388-6.12,1.883-8.163-2.076-1.728-10.644-1.5-17.889-1.676-20.907-.523-33.679-3.116-45.25-7.838C170.964,187.811,160.848,182.924,148.923,182.411Z" transform="translate(-121.755 -129.933)" fill="#c9ddff"/>
          <path id="Path_12426" data-name="Path 12426" d="M148.923,182.411c-14-.6-24.569,9.58-13.949,20.648,12.1,12.617,32.229,21.83,64.641,21.467,24.084-.273,37.958-7,44.648-14.123,1.883-2,4.388-6.12,1.883-8.163-2.076-1.728-10.644-1.5-17.889-1.676-20.907-.523-33.679-3.116-45.25-7.838C170.964,187.811,160.848,182.924,148.923,182.411Z" transform="translate(-121.755 -129.933)" fill="#fff" opacity="0.15"/>
          <path id="Path_12427" data-name="Path 12427" d="M206.862,216.991c3.653-.245,7.433-.179,11.035-1.087s6.3-1.883,7.429-4.43l-1.944-.08a11.905,11.905,0,0,1-3.62,2.5c-6.534,2.41-13.911,1.7-20.714,2.354-1.676.169-4.736.767-5.442,2.542-.64,1.6-.169,3.583-1,5.23-1.2,2.354-4.458,2.919-6.8,3.051-2.73.155-5.649-.706-8.756-1.619-1.21-.353-3.969-1.144-4.708.25-.593,1.139.706,2.457.231,3.6-.339.824-1.605,1.05-3.38.259-7.495-3.517-6.9-8.474,1.714-7.419,3.931.588,7.33,2.184,11.388,2.18,2.552,0,6.661.532,7.245-2.646.348-1.883-1.266-4.825,0-6.539,1.525-2.09,6.873-1.092,9.006-1.092,4.2,0,8.474.207,12.635-.2,2.354-.226,5.969-.88,7.838-2.707q-3.99-.261-7.561-.645c-6.934,1.12-14.123.089-21.062-.471-2.3-.3-6.369-.833-8.337.711-1.059.829-.777,1.723-1.412,2.8-3.8,4.59-18.831-4.948-25.864.739-9.269,6.482-19.542-2.236-23.623-11.11-.358,2.947-.169,6.12,4.044,10.889,11.082,12.5,29.324,20.285,57.542,21.363-5.32-.631-12.151-1.309-14.839-2.589-3.121-1.492-4.19-3-4.237-5.687-.146-2.354,4.764-.066,7.175.419a22.619,22.619,0,0,0,6.026.6c10.475-1.116,5.423-7.655,9.415-10.046C199.358,216.737,203.539,217.066,206.862,216.991Z" transform="translate(-121.96 -140.927)" fill="#fff" opacity="0.2"/>
          <path id="Path_12428" data-name="Path 12428" d="M199.956,212.847c1.356.791,3.079.772,4.581,1.073,1.266.259,2.533.471,3.766.843,1.1.334,2.49,1.083,3.639.56,1.04-.471.621-1.412.061-2.166-2.2-2.966-7.951-5.061-11.374-3C199.692,210.719,198.642,212.08,199.956,212.847Z" transform="translate(-158.109 -144.193)" fill="#fff" opacity="0.2"/>
          <path id="Path_12429" data-name="Path 12429" d="M285.577,236.609c-2.472.2-3.874.038-5.781.25-1.191.137-2.161,1.05-1.285,2.095a6.271,6.271,0,0,0,2.763,1.6,22.63,22.63,0,0,0,5.894,1,16.973,16.973,0,0,0,5.72-.607c1.111-.377,2.989-1.215,2.985-2.6,0-1.69-1.742-2.41-3.164-2.4C290.331,235.973,287.935,236.444,285.577,236.609Z" transform="translate(-199.831 -158.28)" fill="#fff" opacity="0.2"/>
          <path id="Path_12430" data-name="Path 12430" d="M148.475,182.347a27.448,27.448,0,0,0-4.736.344,22.973,22.973,0,0,0-4.562,1.186,16.674,16.674,0,0,0-4.105,2.208A11.214,11.214,0,0,0,132,189.455a8.385,8.385,0,0,0-1.144,4.293,10.282,10.282,0,0,0,1.083,4.34,25.063,25.063,0,0,0,5.8,7.156,57.8,57.8,0,0,0,15.648,10.23,83.208,83.208,0,0,0,17.927,5.649,123.344,123.344,0,0,0,18.746,2.283,144.163,144.163,0,0,0,18.92-.2c3.14-.254,6.266-.678,9.364-1.243a70.26,70.26,0,0,0,9.156-2.311,49.9,49.9,0,0,0,8.69-3.7,36.51,36.51,0,0,0,4-2.542,30.332,30.332,0,0,0,3.625-3.06,30.835,30.835,0,0,1-3.451,3.3,36.512,36.512,0,0,1-3.917,2.745,50.4,50.4,0,0,1-8.639,4.143,77.973,77.973,0,0,1-18.689,4.147,134.6,134.6,0,0,1-19.137.523,122.953,122.953,0,0,1-19.043-2.231,83.326,83.326,0,0,1-18.289-5.88A57.462,57.462,0,0,1,136.734,206.3a46.206,46.206,0,0,1-3.3-3.54,18.138,18.138,0,0,1-2.6-4.147,11.416,11.416,0,0,1-1.036-4.863,9.312,9.312,0,0,1,1.412-4.759,12.014,12.014,0,0,1,3.451-3.474,17.319,17.319,0,0,1,4.35-2.095,24.48,24.48,0,0,1,9.462-1.078Z" transform="translate(-121.307 -129.868)" fill="#c9ddff"/>
          <path id="Path_12431" data-name="Path 12431" d="M148.475,182.347a27.448,27.448,0,0,0-4.736.344,22.973,22.973,0,0,0-4.562,1.186,16.674,16.674,0,0,0-4.105,2.208A11.214,11.214,0,0,0,132,189.455a8.385,8.385,0,0,0-1.144,4.293,10.282,10.282,0,0,0,1.083,4.34,25.063,25.063,0,0,0,5.8,7.156,57.8,57.8,0,0,0,15.648,10.23,83.208,83.208,0,0,0,17.927,5.649,123.344,123.344,0,0,0,18.746,2.283,144.163,144.163,0,0,0,18.92-.2c3.14-.254,6.266-.678,9.364-1.243a70.26,70.26,0,0,0,9.156-2.311,49.9,49.9,0,0,0,8.69-3.7,36.51,36.51,0,0,0,4-2.542,30.332,30.332,0,0,0,3.625-3.06,30.835,30.835,0,0,1-3.451,3.3,36.512,36.512,0,0,1-3.917,2.745,50.4,50.4,0,0,1-8.639,4.143,77.973,77.973,0,0,1-18.689,4.147,134.6,134.6,0,0,1-19.137.523,122.953,122.953,0,0,1-19.043-2.231,83.326,83.326,0,0,1-18.289-5.88A57.462,57.462,0,0,1,136.734,206.3a46.206,46.206,0,0,1-3.3-3.54,18.138,18.138,0,0,1-2.6-4.147,11.416,11.416,0,0,1-1.036-4.863,9.312,9.312,0,0,1,1.412-4.759,12.014,12.014,0,0,1,3.451-3.474,17.319,17.319,0,0,1,4.35-2.095,24.48,24.48,0,0,1,9.462-1.078Z" transform="translate(-121.307 -129.868)" fill="#fff" opacity="0.6"/>
          <path id="Path_12432" data-name="Path 12432" d="M292.724,130a30.45,30.45,0,0,0-11.049,2.085,6.318,6.318,0,0,1-8.62-5.889V98.947a11.342,11.342,0,0,0-2.354-1.784c-.428-.245-.885-.471-1.351-.683v30.2a9.758,9.758,0,0,0,13.271,9.133,25.362,25.362,0,0,1,22.5,1.412c13.629,7.6,17.583,24.089,10.828,42.007-6.247,16.595-26.118,32.841-39.347,43.565,12.711-8.135,46.418-29.743,46.366-62.612A30.28,30.28,0,0,0,292.724,130Z" transform="translate(-195.162 -84.468)" fill="#fff" opacity="0.4"/>
          <path id="Path_12433" data-name="Path 12433" d="M312.052,183.941c-6.059-.659-13.483,4.971-7.062,10.357,8.074,6.817,17.418,9.354,19.989,20.714.744,3.3,2.415,4.887,4.053,5.127,1.841.273,3.766-.716,4.67-3.357C338.81,202.578,326.7,185.353,312.052,183.941Z" transform="translate(-212.715 -130.727)" fill="#fff" opacity="0.4"/>
          <circle id="Ellipse_437" data-name="Ellipse 437" cx="3.921" cy="3.921" r="3.921" transform="translate(109.657 98.857) rotate(-80.78)" fill="#fff" opacity="0.4"/>
          <path id="Path_12434" data-name="Path 12434" d="M261.074,93.81a20.472,20.472,0,0,1,2.128.584v31.758A10.994,10.994,0,0,0,278.535,136.2a25.642,25.642,0,0,1,9.792-1.968h0a21.514,21.514,0,0,0-8.945,3.841,11.352,11.352,0,0,1-18.322-8.945Z" transform="translate(-190.774 -83.055)" fill="#fff" opacity="0.4"/>
          <path id="Path_12435" data-name="Path 12435" d="M182.144,113.011c.73-.151,1.441-.33,2.128-.541.6-.184,1.186-.391,1.747-.621a17.27,17.27,0,0,0,1.987-.97,12.863,12.863,0,0,0,1.714-1.182,8.794,8.794,0,0,0,1.977-2.227v-4.83a5.042,5.042,0,0,0-.254-1.572,9.09,9.09,0,0,0-1.723-1.808,12.29,12.29,0,0,0-1.714-1.177,16.53,16.53,0,0,0-1.987-.97c-.565-.235-1.149-.443-1.747-.626-.692-.212-1.412-.391-2.128-.537a25.326,25.326,0,0,0-14.97,1.45V96.247l-.16.085-.278.146-.259.132-.344.212a11.769,11.769,0,0,0-1.488,1.083l-.193.174c-.184.165-.353.334-.518.5a5.208,5.208,0,0,0-.414.471h0c-.094.122-.188.24-.268.362l-.155.231-.146.235c-.052.089-.1.179-.151.268a.987.987,0,0,0-.061.122c-.038.071-.071.146-.108.221a2.1,2.1,0,0,0-.089.217,2.044,2.044,0,0,0-.094.235l-.056.179a1.3,1.3,0,0,0-.038.127,3.768,3.768,0,0,0-.094.381v.108c0,.028-.024.151-.033.226a.75.75,0,0,0,0,.108v.207a3.116,3.116,0,0,0,0,.362v22.743a4.237,4.237,0,0,1-5.753,3.936,32.605,32.605,0,0,0-44.553,30.266c-.024,22.371,14.759,39.544,28.618,51.107-9.674-9.415-18.9-26.269-20-42.369-.993-14.481,6.718-28.9,21.246-31.678,9.039-1.732,15.672-.73,20.412,1.723a4.557,4.557,0,0,0,6.586-4.067V112.178a26.113,26.113,0,0,0,13.365.833Z" transform="translate(-111.845 -83.915)" fill="#c9ddff" opacity="0.2"/>
          <path id="Path_12436" data-name="Path 12436" d="M135.542,134.726a35.159,35.159,0,0,1,22.983,1.356,4.538,4.538,0,0,0,6.12-4.265V100.68l-.193.174c-.184.165-.353.334-.518.5a9.776,9.776,0,0,0-.683.829l-.155.231-.146.235c-.052.089-.1.179-.151.268a.989.989,0,0,0-.061.122c-.038.071-.071.146-.108.221a2.1,2.1,0,0,0-.089.217c-.028.075-.042.108-.061.16q-.071.193-.127.381a3.763,3.763,0,0,0-.094.381v.108c0,.028-.024.151-.033.226a.754.754,0,0,0,0,.108v.207a3.116,3.116,0,0,0,0,.362V122.8h0v5.362a4.237,4.237,0,0,1-5.753,3.936,32.605,32.605,0,0,0-44.553,30.266A50.151,50.151,0,0,0,112.9,172.6C109.188,153.98,122.784,138.12,135.542,134.726Z" transform="translate(-111.843 -86.691)" fill="#c9ddff" opacity="0.3"/>
          <path id="Path_12437" data-name="Path 12437" d="M247.9,80.726c0-2.5-1.652-4.995-4.952-6.9-6.591-3.813-17.315-3.813-23.924,0-3.3,1.883-4.952,4.406-4.952,6.9h0v7.306h0c0,2.5,1.652,5,4.952,6.906,6.591,3.813,17.32,3.813,23.924,0,3.3-1.883,4.952-4.406,4.952-6.906h0Z" transform="translate(-165.906 -70.965)" fill="#c9ddff"/>
          <path id="Path_12438" data-name="Path 12438" d="M247.9,80.726c0-2.5-1.652-4.995-4.952-6.9-6.591-3.813-17.315-3.813-23.924,0-3.3,1.883-4.952,4.406-4.952,6.9h0v7.306h0c0,2.5,1.652,5,4.952,6.906,6.591,3.813,17.32,3.813,23.924,0,3.3-1.883,4.952-4.406,4.952-6.906h0Z" transform="translate(-165.906 -70.965)" fill="#fff" opacity="0.5"/>
          <path id="Path_12439" data-name="Path 12439" d="M244.048,98.961c-4.962,2.274-14.208,3.432-19.141,1.351-5.221-2.2-7.815-4.43-7.815-9.462V79.9a7.347,7.347,0,0,0-3.022,5.555h0v7.306h0c0,2.5,1.652,5,4.952,6.906,6.591,3.813,17.32,3.813,23.924,0Q243.531,99.329,244.048,98.961Z" transform="translate(-165.906 -75.694)" fill="#c9ddff" opacity="0.3"/>
          <path id="Path_12440" data-name="Path 12440" d="M219.019,87.633c6.591,3.818,17.32,3.818,23.924,0s6.591-9.994,0-13.808-17.315-3.813-23.924,0S212.414,83.819,219.019,87.633Z" transform="translate(-165.902 -70.965)" fill="#c9ddff"/>
          <path id="Path_12441" data-name="Path 12441" d="M219.019,87.633c6.591,3.818,17.32,3.818,23.924,0s6.591-9.994,0-13.808-17.315-3.813-23.924,0S212.414,83.819,219.019,87.633Z" transform="translate(-165.902 -70.965)" fill="#fff" opacity="0.7"/>
          <path id="Path_12442" data-name="Path 12442" d="M227.816,79.62c-5.339,1.412-7.09,5.437-4.755,8.582s6.746,5.7,14.693,4.651,9.594-5.31,9.594-6.327Z" transform="translate(-170.128 -75.546)" fill="#fff" opacity="0.7"/>
          <path id="Path_12443" data-name="Path 12443" d="M227.437,88.738c4.811,2.778,12.617,2.778,17.418,0s4.811-7.283,0-10.06-12.617-2.778-17.418,0S222.626,85.961,227.437,88.738Z" transform="translate(-171.072 -73.945)" fill="#c9ddff"/>
          <path id="Path_12444" data-name="Path 12444" d="M227.437,88.738c4.811,2.778,12.617,2.778,17.418,0s4.811-7.283,0-10.06-12.617-2.778-17.418,0S222.626,85.961,227.437,88.738Z" transform="translate(-171.072 -73.945)" fill="#fff" opacity="0.4"/>
          <path id="Path_12445" data-name="Path 12445" d="M230.347,97.174a10.025,10.025,0,0,0-1.017.673,9.307,9.307,0,0,0,1.017.678c4.811,2.778,12.617,2.778,17.418,0a9.856,9.856,0,0,0,1.022-.678,10.667,10.667,0,0,0-1.022-.673C242.963,94.392,235.158,94.392,230.347,97.174Z" transform="translate(-173.982 -83.731)" fill="#fff" opacity="0.4"/>
        </g>
        <g id="freepik--Cork--inject-104" transform="translate(50.705)">
          <path id="Path_12446" data-name="Path 12446" d="M245.988,76.458a4.129,4.129,0,0,0,.141-.678c.621-2.989,2.09-11.2,2.09-15.14H219.47c0,3.936,1.464,12.151,2.086,15.14a4.288,4.288,0,0,0,.141.683h0a6.905,6.905,0,0,0,3.427,3.813c4.811,2.778,12.617,2.778,17.418,0a6.9,6.9,0,0,0,3.427-3.813h0Z" transform="translate(-219.468 -52.332)" fill="#37474f"/>
          <path id="Path_12447" data-name="Path 12447" d="M223.677,57.165c5.612,3.244,14.716,3.244,20.328,0s5.616-8.474,0-11.736-14.716-3.239-20.328,0S218.06,53.927,223.677,57.165Z" transform="translate(-219.466 -42.991)" fill="#455a64"/>
          <path id="Path_12448" data-name="Path 12448" d="M228.643,63.942h0a1.85,1.85,0,0,1-.245.165,3.86,3.86,0,0,1-3.488,0c-.6-.344-.824-.824-.678-1.271h0a1.412,1.412,0,0,1,.673-.744,3.86,3.86,0,0,1,3.488,0C229.278,62.6,229.354,63.386,228.643,63.942Z" transform="translate(-221.966 -52.879)" fill="#263238"/>
          <path id="Path_12449" data-name="Path 12449" d="M228.643,64.593h0a1.851,1.851,0,0,1-.245.165,3.86,3.86,0,0,1-3.488,0c-.6-.344-.824-.824-.678-1.271h0a2.463,2.463,0,0,1,.245-.165,3.851,3.851,0,0,1,3.484,0C228.567,63.665,228.808,64.146,228.643,64.593Z" transform="translate(-221.966 -53.53)" fill="#37474f"/>
          <path id="Path_12450" data-name="Path 12450" d="M250.433,66.361h0a1.248,1.248,0,0,1-.174.118,2.763,2.763,0,0,1-2.49,0c-.428-.245-.588-.588-.471-.909h0a.979.979,0,0,1,.471-.527,2.735,2.735,0,0,1,2.49,0A.752.752,0,0,1,250.433,66.361Z" transform="translate(-234.176 -54.503)" fill="#263238"/>
          <path id="Path_12451" data-name="Path 12451" d="M250.433,66.825h0a1.248,1.248,0,0,1-.174.118,2.763,2.763,0,0,1-2.49,0c-.428-.245-.588-.588-.471-.909h0a1.249,1.249,0,0,1,.174-.118,2.763,2.763,0,0,1,2.49,0A.849.849,0,0,1,250.433,66.825Z" transform="translate(-234.176 -54.967)" fill="#37474f"/>
          <path id="Path_12452" data-name="Path 12452" d="M239.146,72.16h0l-.127.085a2.034,2.034,0,0,1-1.836,0c-.315-.184-.433-.433-.358-.668h0a.73.73,0,0,1,.358-.386,2.005,2.005,0,0,1,1.836,0C239.476,71.454,239.518,71.863,239.146,72.16Z" transform="translate(-228.642 -57.797)" fill="#263238"/>
          <path id="Path_12453" data-name="Path 12453" d="M239.146,72.5h0l-.127.085a2.034,2.034,0,0,1-1.836,0c-.315-.184-.433-.433-.358-.668h0l.132-.085a2.034,2.034,0,0,1,1.836,0A.58.58,0,0,1,239.146,72.5Z" transform="translate(-228.642 -58.14)" fill="#37474f"/>
          <path id="Path_12454" data-name="Path 12454" d="M230.938,52.836h0a1.475,1.475,0,0,1-.188.132,3.041,3.041,0,0,1-2.735,0c-.471-.273-.645-.65-.532-1h0a1.073,1.073,0,0,1,.527-.579,3.013,3.013,0,0,1,2.735,0C231.428,51.782,231.475,52.4,230.938,52.836Z" transform="translate(-223.691 -47.263)" fill="#263238"/>
          <path id="Path_12455" data-name="Path 12455" d="M230.938,53.343h0a1.476,1.476,0,0,1-.188.132,3.041,3.041,0,0,1-2.735,0c-.471-.273-.645-.65-.532-1h0a1.54,1.54,0,0,1,.193-.132,3.032,3.032,0,0,1,2.73,0C230.877,52.618,231.056,52.995,230.938,53.343Z" transform="translate(-223.691 -47.77)" fill="#37474f"/>
          <path id="Path_12456" data-name="Path 12456" d="M232.837,59.021h0l-.071.047a1.125,1.125,0,0,1-1.012,0c-.174-.1-.24-.24-.2-.367h0a.428.428,0,0,1,.2-.217,1.125,1.125,0,0,1,1.012,0C233.02,58.631,233.044,58.861,232.837,59.021Z" transform="translate(-225.858 -51.127)" fill="#263238"/>
          <path id="Path_12457" data-name="Path 12457" d="M232.837,59.208h0l-.071.047a1.125,1.125,0,0,1-1.012,0c-.174-.1-.24-.24-.2-.367h0l.075-.047a1.087,1.087,0,0,1,1.007,0C232.813,58.94,232.879,59.081,232.837,59.208Z" transform="translate(-225.858 -51.314)" fill="#37474f"/>
          <path id="Path_12458" data-name="Path 12458" d="M250.376,73.287h0l-.08.056a1.257,1.257,0,0,1-1.13,0c-.193-.113-.268-.268-.221-.414h0a.438.438,0,0,1,.217-.24,1.257,1.257,0,0,1,1.13,0C250.564,72.854,250.592,73.108,250.376,73.287Z" transform="translate(-235.06 -58.637)" fill="#263238"/>
          <path id="Path_12459" data-name="Path 12459" d="M250.376,73.495h0l-.08.056a1.257,1.257,0,0,1-1.13,0c-.193-.113-.268-.268-.221-.414h0a.334.334,0,0,1,.08-.052,1.219,1.219,0,0,1,1.125,0A.386.386,0,0,1,250.376,73.495Z" transform="translate(-235.06 -58.845)" fill="#37474f"/>
          <path id="Path_12460" data-name="Path 12460" d="M241,65.082h0l-.075.052a1.257,1.257,0,0,1-1.13,0c-.193-.113-.268-.268-.221-.414h0a.471.471,0,0,1,.221-.24,1.257,1.257,0,0,1,1.13,0C241.2,64.653,241.227,64.9,241,65.082Z" transform="translate(-230.101 -54.292)" fill="#263238"/>
          <path id="Path_12461" data-name="Path 12461" d="M241,65.294h0l-.075.052a1.257,1.257,0,0,1-1.13,0c-.193-.113-.268-.268-.221-.414h0l.08-.052a1.257,1.257,0,0,1,1.13,0C240.973,64.992,241.048,65.148,241,65.294Z" transform="translate(-230.101 -54.504)" fill="#37474f"/>
          <path id="Path_12462" data-name="Path 12462" d="M223.941,58.461h0l-.08.052a1.229,1.229,0,0,1-1.13,0c-.193-.113-.264-.268-.217-.41h0a.438.438,0,0,1,.221-.254,1.257,1.257,0,0,1,1.13,0C224.148,58.023,224.171,58.282,223.941,58.461Z" transform="translate(-221.072 -50.784)" fill="#263238"/>
          <path id="Path_12463" data-name="Path 12463" d="M223.941,58.684h0l-.08.052a1.229,1.229,0,0,1-1.13,0c-.193-.113-.264-.268-.217-.41h0l.08-.056a1.248,1.248,0,0,1,1.125,0C223.917,58.382,223.988,58.542,223.941,58.684Z" transform="translate(-221.072 -51.006)" fill="#37474f"/>
          <path id="Path_12464" data-name="Path 12464" d="M224.03,73.915h0a1.412,1.412,0,0,1,.188.094,2.749,2.749,0,0,1,1.248,2.156.807.807,0,0,1-.546.876h0a.97.97,0,0,1-.7-.151A2.749,2.749,0,0,1,223,74.73C222.97,74.01,223.432,73.68,224.03,73.915Z" transform="translate(-221.335 -59.318)" fill="#455a64"/>
          <path id="Path_12465" data-name="Path 12465" d="M224.56,74h0a1.413,1.413,0,0,1,.188.094A2.749,2.749,0,0,1,226,76.25a.807.807,0,0,1-.546.876h0c-.061,0-.127-.057-.193-.089A2.759,2.759,0,0,1,224,74.876.8.8,0,0,1,224.56,74Z" transform="translate(-221.866 -59.402)" fill="#263238"/>
          <path id="Path_12466" data-name="Path 12466" d="M234.3,86.725h0l.141.066a2.043,2.043,0,0,1,.918,1.591c0,.367-.16.593-.4.645h0a.706.706,0,0,1-.513-.113,2.015,2.015,0,0,1-.918-1.591C233.515,86.791,233.854,86.546,234.3,86.725Z" transform="translate(-226.904 -66.106)" fill="#455a64"/>
          <path id="Path_12467" data-name="Path 12467" d="M234.694,86.79h0l.141.066a2.043,2.043,0,0,1,.918,1.591c0,.367-.16.593-.4.645h0l-.137-.071a2.024,2.024,0,0,1-.942-1.586C234.289,87.068,234.449,86.837,234.694,86.79Z" transform="translate(-227.301 -66.171)" fill="#263238"/>
          <path id="Path_12468" data-name="Path 12468" d="M242.2,93.947h0a1.031,1.031,0,0,1,.155.057,1.69,1.69,0,0,1,.918,1.591.758.758,0,0,1-.532.706h0a.871.871,0,0,1-.593-.071,1.7,1.7,0,0,1-.942-1.591.734.734,0,0,1,.993-.692Z" transform="translate(-230.972 -69.934)" fill="#455a64"/>
          <path id="Path_12469" data-name="Path 12469" d="M242.775,94.036a1.032,1.032,0,0,0-.155-.056h-.08a.758.758,0,0,0-.541.706,1.7,1.7,0,0,0,.918,1.591.974.974,0,0,0,.235.075h.028a.758.758,0,0,0,.532-.72,1.69,1.69,0,0,0-.937-1.6Z" transform="translate(-231.39 -69.976)" fill="#263238"/>
          <path id="Path_12470" data-name="Path 12470" d="M247.91,101.529h0a.662.662,0,0,1,.1.028.814.814,0,0,1,.532.942.607.607,0,0,1-.414.471h0a.612.612,0,0,1-.4,0,.814.814,0,0,1-.532-.942.612.612,0,0,1,.711-.5Z" transform="translate(-234.134 -73.966)" fill="#455a64"/>
          <path id="Path_12471" data-name="Path 12471" d="M248.254,101.556l-.1-.028h0a.429.429,0,0,0-.541.428.814.814,0,0,0,.527.942.471.471,0,0,0,.65-.4.819.819,0,0,0-.532-.937Z" transform="translate(-234.35 -73.965)" fill="#263238"/>
          <path id="Path_12472" data-name="Path 12472" d="M227.033,90.744h0a1.414,1.414,0,0,1,.207.1,3.032,3.032,0,0,1,1.37,2.354c0,.541-.24.885-.6.942h0a1.1,1.1,0,0,1-.767-.169,3.027,3.027,0,0,1-1.365-2.354C225.875,90.843,226.379,90.48,227.033,90.744Z" transform="translate(-222.861 -68.218)" fill="#455a64"/>
          <path id="Path_12473" data-name="Path 12473" d="M227.663,90.84h0a1.413,1.413,0,0,1,.207.1,3.032,3.032,0,0,1,1.37,2.354c0,.541-.24.885-.6.942h0a1.7,1.7,0,0,1-.207-.1,3.022,3.022,0,0,1-1.365-2.354C227.065,91.254,227.3,90.915,227.663,90.84Z" transform="translate(-223.49 -68.314)" fill="#263238"/>
          <path id="Path_12474" data-name="Path 12474" d="M225.725,84.731h0l.085.038a1.262,1.262,0,0,1,.565.979c0,.226-.1.367-.245.4h0a.438.438,0,0,1-.315-.071,1.248,1.248,0,0,1-.565-.974C225.245,84.773,225.452,84.623,225.725,84.731Z" transform="translate(-222.527 -65.063)" fill="#455a64"/>
          <path id="Path_12475" data-name="Path 12475" d="M225.985,84.77h0l.085.038a1.262,1.262,0,0,1,.565.979c0,.226-.1.367-.245.4h0a.358.358,0,0,1-.085-.042,1.248,1.248,0,0,1-.565-.974C225.735,84.944,225.834,84.8,225.985,84.77Z" transform="translate(-222.786 -65.102)" fill="#263238"/>
          <path id="Path_12476" data-name="Path 12476" d="M231.94,78.1h0l.085.042a1.247,1.247,0,0,1,.565.979c0,.221-.1.362-.249.4h0a.438.438,0,0,1-.315-.071,1.233,1.233,0,0,1-.565-.979C231.46,78.143,231.667,77.993,231.94,78.1Z" transform="translate(-225.814 -61.554)" fill="#455a64"/>
          <path id="Path_12477" data-name="Path 12477" d="M232.226,78.14h0l.085.042a1.248,1.248,0,0,1,.565.979c0,.221-.1.362-.25.4h0l-.085-.042a1.248,1.248,0,0,1-.541-.97C232,78.314,232.075,78.173,232.226,78.14Z" transform="translate(-226.1 -61.593)" fill="#263238"/>
          <path id="Path_12478" data-name="Path 12478" d="M235.64,98.191h0a.358.358,0,0,1,.085.042,1.248,1.248,0,0,1,.565.979c0,.221-.1.362-.249.4h0a.471.471,0,0,1-.315-.071,1.262,1.262,0,0,1-.565-.979C235.16,98.233,235.367,98.083,235.64,98.191Z" transform="translate(-227.772 -72.186)" fill="#455a64"/>
          <path id="Path_12479" data-name="Path 12479" d="M235.9,98.23h0a.358.358,0,0,1,.085.042,1.248,1.248,0,0,1,.565.979c0,.221-.1.362-.249.4h0l-.085-.042a1.262,1.262,0,0,1-.565-.979C235.65,98.4,235.749,98.258,235.9,98.23Z" transform="translate(-228.031 -72.225)" fill="#263238"/>
        </g>
        <g id="freepik--Labell--inject-104" transform="translate(48.797 32.289)">
          <path id="Path_12480" data-name="Path 12480" d="M240.89,138.43a29.3,29.3,0,0,1-9.255-1.657c-6.831,2.354-13.968,2.222-16.053-.5a.706.706,0,1,1,1.12-.857c1.257,1.638,6.52,2.354,12.833.551l-.184-.08c-8.789-3.823-13.728-10.357-13.916-14.594a.706.706,0,0,1,1.2-.523c6.741,6.727,21.9,8.045,29.988,0a.706.706,0,0,1,1.205.532c-.188,4.237-5.131,10.781-13.916,14.594l-.188.08c6.318,1.817,11.581,1.087,12.838-.551a.706.706,0,1,1,1.12.857C246.577,137.715,244.049,138.43,240.89,138.43ZM217.3,123.187c1.3,3.427,5.386,8.257,12.612,11.4.579.25,1.153.471,1.723.687.57-.207,1.144-.438,1.718-.687,7.217-3.135,11.3-7.956,12.607-11.378a23.274,23.274,0,0,1-14.594,4.524A24.044,24.044,0,0,1,217.3,123.187Z" transform="translate(-215.414 -116.332)" fill="#37474f"/>
          <g id="freepik--Label--inject-104" transform="translate(37.514 0)">
            <g id="freepik--label--inject-104-2" data-name="freepik--label--inject-104">
              <path id="Path_12481" data-name="Path 12481" d="M335.351,133.518,308.517,111.58l-12.654,2.655-.763,2.457,1.812,15.027,26.857,21.957,1.205-.876,1.6-2.966-.777-.89,1.342-.151Zm-34.62-14.358a1.126,1.126,0,0,1,.212-.3,1.542,1.542,0,0,1,.165-.141h0a1.414,1.414,0,0,1,.179-.108,1.7,1.7,0,0,1,.814-.16,3.606,3.606,0,0,1,2.085.862c1.356,1.106,2.01,2.825,1.459,3.86-.433.791-1.459.942-2.537.424h0a2.423,2.423,0,0,1-.33-.169,2.771,2.771,0,0,1-.339-.221,2.941,2.941,0,0,1-.254-.188c-1.361-1.111-2.01-2.839-1.455-3.856Z" transform="translate(-295.1 -111.58)" fill="#37474f"/>
              <path id="Path_12482" data-name="Path 12482" d="M311.869,130.893a1.3,1.3,0,0,1-.753.626c.362-1.036-.292-2.608-1.549-3.644a3.662,3.662,0,0,0-2.071-.885,1.841,1.841,0,0,0-.636.089.824.824,0,0,1,.094-.207,1.126,1.126,0,0,1,.212-.3,1.186,1.186,0,0,1,.165-.141h0a1.99,1.99,0,0,1,.188-.113,1.7,1.7,0,0,1,.814-.16,3.606,3.606,0,0,1,2.076.866C311.765,128.139,312.42,129.872,311.869,130.893Z" transform="translate(-301.324 -119.294)" fill="#37474f"/>
              <path id="Path_12483" data-name="Path 12483" d="M336.208,133.518,309.374,111.58l-12.654,2.655,2.255,16.609,26.834,21.933,1.6-2.966-.777-.89,1.342-.151ZM306.5,123.161c-.433.791-1.459.942-2.537.424h0a2.423,2.423,0,0,1-.33-.169,2.771,2.771,0,0,1-.339-.221,2.938,2.938,0,0,1-.254-.188c-1.361-1.116-2.01-2.825-1.455-3.86a1.126,1.126,0,0,1,.212-.3,1.186,1.186,0,0,1,.165-.141h0a1.413,1.413,0,0,1,.179-.108,1.7,1.7,0,0,1,.814-.16,3.606,3.606,0,0,1,2.085.876c1.356,1.116,2.01,2.848,1.459,3.87Z" transform="translate(-295.957 -111.58)" fill="#455a64"/>
              <path id="Path_12484" data-name="Path 12484" d="M300.14,152.5l26.843,21.933-1.2.876L298.94,153.376Z" transform="translate(-297.132 -133.236)" fill="#263238"/>
              <path id="Path_12485" data-name="Path 12485" d="M358.835,189.271,356.1,186.14l3.3,2.09-1.337.155Z" transform="translate(-327.383 -151.04)" fill="#263238"/>
            </g>
            <g id="freepik--Heart--inject-104" transform="translate(11.821 10.448)">
              <path id="Path_12486" data-name="Path 12486" d="M331.674,145.179c-7.1,2.947-11.694-.32-11.454-2.778s2.754-3.6,5.376-2.189c-1.987-2.354-1.718-5.329.348-6.294s6.242,2.933,5.725,11.265Z" transform="translate(-320.211 -133.774)" fill="#c9ddff"/>
              <path id="Path_12487" data-name="Path 12487" d="M331.674,145.179c-7.1,2.947-11.694-.32-11.454-2.778s2.754-3.6,5.376-2.189c-1.987-2.354-1.718-5.329.348-6.294s6.242,2.933,5.725,11.265Z" transform="translate(-320.211 -133.774)" fill="#fff" opacity="0.3"/>
            </g>
            <g id="freepik--Text--inject-104" transform="translate(22.285 18.909)">
              <path id="Path_12488" data-name="Path 12488" d="M346.638,173.1a.668.668,0,0,1-.942.169.725.725,0,0,1-.075-.942,1.276,1.276,0,0,1,.5-.4.179.179,0,0,0-.042-.179c-.941-.758-1.883-.8-2.693-1.45a1.923,1.923,0,0,1-.683-2.57l.089-.122c.758-.217.8-.73,1.667,0,.419.339.8,1.036.471,1.549-.075.108-.306.419-.471.3.137-.654.2-1.125-.372-1.591a.814.814,0,0,0-1.224.033c-.386.584.047,1.313.518,1.7.777.636,1.812.654,2.589,1.29.278.226.41.6.678.819a.434.434,0,0,0,.1.061,1.648,1.648,0,0,0,1.158-.621.5.5,0,0,0-.108-.659c-.16-.132-.386-.061-.546-.179v-.066c.151-.217.725,0,.9.127a.942.942,0,0,1,.217,1.215c-.372.555-1.252.353-1.488.711C346.727,172.525,346.8,172.868,346.638,173.1Zm-3.827-3.766v-.056l-.047.024v.038Zm-.047-.2v-.056H342.7v.066Zm0-.2-.052-.042-.033.042a.052.052,0,0,0,.071.024Zm.287.791Zm0-.151a.081.081,0,0,0,0-.113c-.085.071-.085.1-.038.137Zm.268.377v-.071h-.056v.061Zm-.038-.226-.028-.024v.028Zm.282.377v-.057H343.5v.052Zm-.047-.155c0-.024.038-.071,0-.094h-.052v.024Zm.231.344h0l-.038.024Zm0-.235-.038-.028-.028.047c-.014.047.009.028.024,0Zm.217.212h0v-.057l-.066.052s.009.052.024.028Zm.245.381v-.071h-.042Zm0-.174v-.056h-.094v.061Zm-.033-.174c0-.024.042-.085,0-.108h-.061l-.024.033Zm.235.372v-.028a.071.071,0,0,0,0-.089h-.061c-.056.08-.014.122.009.141Zm0-.25v-.052h-.075v.056Zm.231.179-.047-.038-.024.038c-.038.042-.014.052.014.024Zm-.052-.2v-.056h-.052v.056Zm.264.4v-.056h-.066v.056Zm0-.169-.028-.1h-.056v.075Zm1.554,2.41c.1-.16.25-.551.057-.706l-.028-.028a.734.734,0,0,0-.57.292.362.362,0,0,0,.033.513.344.344,0,0,0,.447-.047Zm-1.125-2.086v-.085h-.056v.071Zm0-.212v-.085l-.061.024v.061Zm.2.188v-.042a.042.042,0,0,0-.052,0v.042a.038.038,0,0,0-.028.024Zm-.028-.2v-.042l-.066.028Zm.4.513-.024-.066-.042.061Zm-.942-2.6h0l-.1.024Zm1.106,2.387v-.061c-.061-.047-.146,0-.184.071a.122.122,0,0,0,.085.014Zm-1.106-2.594-.028-.028v.047c0,.047-.08.019-.071,0Zm1.483,3.616h0v-.066h-.052v.052Zm.334.781h-.028a.593.593,0,0,1-.071.024Zm-.428-1.224v-.028h-.038c-.038,0-.075.042-.061.052Zm0-.207-.024-.066-.042.061Zm-.033-.193-.024-.071-.042.066Zm.207.626v-.061h-.038v.052Zm.254.56v-.038c0-.014-.028,0-.033,0s0,0,0,.033a.038.038,0,0,0,.038,0Zm.551-.5H347.2v.042Zm.3-.226Zm.028,0h0l0-.009Zm.217.16Zm-.028-.165v-.071h-.056v.071Zm.174,0,.033-.047h-.061Zm-.042-.212v-.033h0l-.024.033Zm.339-.32h0l0-.028Zm-.033-.137.047-.038-.052-.042v.075Zm0-.259v-.042l-.056.038a.141.141,0,0,0,.071-.024Z" transform="translate(-342.437 -159.939)" fill="#fafafa"/>
              <path id="Path_12489" data-name="Path 12489" d="M351.091,166.759c-.419-.829-1.022-1.064-.965-2.151,0-.259.184-.471.184-.725.132-.193.471-.7.72-.471.047.038.1.108.061.169-.108.165-.334.188-.443.353-.57.847.362,1.841.975,2.354.381.315,1.135.866,1.506.311a.984.984,0,0,0-.146-1.168c-.075-.061-1.012.339-1.638-.174-.362-.292-.716-.763-.4-1.229.419-.626,1.219-.042,1.662.315.169.141.33.32.5.471a.2.2,0,0,0,.056-.052c.348-.518-.217-1.638-.141-1.756a.089.089,0,0,1,.113,0l.038.033c.414.8,0,1.29.057,2.062,0,.174.155.32.207.471a2.628,2.628,0,0,1-.028,1.116l-.169.25c-.188,0-.325.174-.471.268-.574.344-.862-.268-1.412-.207Zm-.523-1.158v-.052h-.052v.056Zm0-.24h-.075v.066Zm.268.861Zm.245.179-.047-.1c0,.024-.047.089,0,.113h0Zm-.734-2.076-.024-.052h-.042v.038Zm.97,2.227-.085-.028.024.066Zm.193.231s.028-.061,0-.075h-.033c0,.014.024.052.047.052Zm.217.179.028-.047H351.7Zm-.047-.221h.042v-.056h-.047v.056Zm0-.188.028-.047-.028-.024-.033.047Zm.259.165v-.042h-.047v.047a.038.038,0,0,0,.057-.019Zm.81-1.525c.075-.108-.108-.282-.184-.344l-.734-.6c-.193-.16-.551-.32-.716-.066s.146.5.306.626c.25.2,1.059.753,1.318.367Zm-1.271-.155s-.047-.033-.071,0v.056c.028-.024.071-.052.071-.071Zm.909,2.043v-.061h-.061v.056Zm.221-.071h-.071v.066Zm.132,0h0l-.009,0Z" transform="translate(-346.504 -157.695)" fill="#fafafa"/>
              <path id="Path_12490" data-name="Path 12490" d="M353.548,159.139a.239.239,0,0,1,0-.061l.188-.282c.212-.311,1.318.621,1.549.81s1.412,1.2,1.619.942c.1-.151-.6-1.351-.758-1.478-.348-.287-.814-.231-1.182-.532s-.716-.791-.424-1.233c.174-.259.471-.179.7,0,.447.367.5,1.022.942,1.379.179.146.391-.033.471-.179a1.446,1.446,0,0,0-.085-1.285c.033-.056.066-.118.137-.056.367.3.245,1.205,0,1.544-.08.127-.231.174-.315.3-.165.249,1.083,1.441.692,2.024-.471.7-2.825-1.219-3.3-1.61Zm.287.024V159.1h-.075v.071Zm.4.169c.024-.042,0-.071-.042-.094l-.028.061v.028S354.23,159.355,354.23,159.332Zm-.038-.226v-.033h-.052A.061.061,0,0,0,354.193,159.106Zm.254.438c0-.024.038-.075,0-.1H354.4C354.381,159.482,354.423,159.525,354.447,159.543Zm-.038-.235.024-.042s-.047-.028-.066,0h0Zm.278.372v-.033h-.052a.061.061,0,0,0,.066.033Zm-.056-.193v-.028H354.6Zm.282.377v-.047l-.094.033C354.842,159.868,354.889,159.9,354.913,159.864Zm-.108-.443h0v0Zm.33.626v-.038H355.1A.052.052,0,0,0,355.134,160.047Zm.207.217.028-.047-.042-.038-.033.047Zm-.038-.471-.042-.038-.038.052a.047.047,0,0,0,.08-.009Zm.254.607h0v0Zm-.1-.471Zm-.636-1.794V158.1h0Zm.942,2.241v-.033h-.047Zm-.692-2.071v-.038s-.038,0-.047.024a.061.061,0,0,0,.033.042Zm.471.118c.052.042.306.25.367.165a.233.233,0,0,0,0-.061,2.65,2.65,0,0,0-.739-1.031c-.1-.089-.292-.24-.4-.085-.179.268.282.65.471.786Zm.471,2.123v-.066l-.042.061Zm-.749-2.062h0a.033.033,0,0,0-.038,0h0A.042.042,0,0,0,355.266,158.484Zm.993,2.246-.08-.066-.023.1c.038.071.085.014.1-.019Zm-.075-.2v-.061h-.056v.061Zm.235.377Zm-.038-.188v-.047h-.028v.042Zm.235.2.052-.08v-.038l-.085.033v.08Zm-.042-.25v0Zm.24.193v-.028h-.066v.047Zm-.734-2.043h0v.019Zm.909,2.076c.042-.061.038-.089,0-.137-.061.075-.057.108,0,.155Z" transform="translate(-348.316 -154.598)" fill="#fafafa"/>
              <path id="Path_12491" data-name="Path 12491" d="M359.306,154.77c-.052-.2-.315-.358-.433-.527a2.2,2.2,0,0,1-.424-1.37c0-.2.137-.4.137-.588l.193-.282c.414-.085.626-.471,1.069-.094.857.7-.165,2.264.259,2.613a.909.909,0,0,0,1.365-.052,2.307,2.307,0,0,0,.155-1.474h.146c.4.339-.137,1.412-.108,1.784l-.179.268c-.155.042-.259.184-.4.254a1.681,1.681,0,0,1-1.643-.4Zm-.664-1.375h.042v-.052h-.061v.056Zm.1.179Zm-.1-.372a.042.042,0,0,0,0-.052v.028Zm.325.8v-.033l-.028-.024a.038.038,0,0,0,.028.056Zm0-.193v-.071h-.061v.061Zm-.028-.231a.061.061,0,0,0,0-.075h-.061v.08Zm.282.612v-.061h-.061v.089Zm-.315-.843a.061.061,0,0,0-.061,0l.024.042Zm.311.64v-.075h-.075v.066Zm-.089-.207v-.033h-.038c-.038,0,0,.024.024.033Zm.758.471a1.624,1.624,0,0,0-.372-1.93c-.221-.184-.424-.226-.607.047-.391.584.353,1.441.777,1.789l.155.132a.207.207,0,0,0,.033-.071Zm-.414.344h0l-.033-.024h0Zm0-.188v-.08h-.033Zm-.028-.221v-.061H359.4v.052Zm.264.579v-.075h-.028a.089.089,0,0,0,0,.038Zm0-.207-.024-.066-.042.061Zm.3.386V154.9h-.08v.075Zm-.1-.179c.042-.061.075-.193,0-.25h-.052a.174.174,0,0,0,.014.231Zm.311.386-.023-.089h-.066v.061Zm-.056-.188h0a.057.057,0,0,0,0-.071h-.061v.085Zm-.033-.235v-.047c-.028-.024-.057,0-.071.024s.014.038.033-.014Zm.268.4h0l-.033-.052H360.3v.052a.042.042,0,0,0,.047-.019Zm-.061-.221v-.028l-.028-.024v.028Zm-1.017-2.867V152h-.042v.056Zm1.238,3.051v-.071h-.056v.071Zm-.824-2.9s-.042-.038-.066,0v.057c-.009-.028.019-.061.028-.075Zm.231.188-.038-.08-.052.08Zm1.356,2.6v-.028h-.024Z" transform="translate(-350.91 -151.746)" fill="#fafafa"/>
            </g>
          </g>
          <path id="Path_12492" data-name="Path 12492" d="M294,123.089h0a.706.706,0,0,1-.706-.706,3.682,3.682,0,0,0-2.33-3.3c-2.589-1.233-6.5-.88-8.53.767a.708.708,0,0,1-.894-1.1c2.457-1.987,6.953-2.41,10.037-.942a4.941,4.941,0,0,1,3.131,4.552.706.706,0,0,1-.706.72Z" transform="translate(-250.271 -114.417)" fill="#37474f"/>
        </g>
      </g>
    </g>
    <g id="freepik--Sparkles--inject-104" transform="translate(41.295 42.666)">
      <g id="freepik--Shine--inject-104" opacity="0.5">
        <g id="freepik--shine--inject-104-2" data-name="freepik--shine--inject-104" transform="translate(147.997 35.146)">
          <path id="Path_12493" data-name="Path 12493" d="M405.11,144.285l-.471-5.315a.942.942,0,0,0-.833-.852l-4.166-.471a.193.193,0,0,1-.169-.193.184.184,0,0,1,.169-.188l4.166-.471a.942.942,0,0,0,.833-.852l.471-5.31a.193.193,0,1,1,.386,0l.471,5.31a.942.942,0,0,0,.838.852l4.162.471a.184.184,0,0,1,.169.188.193.193,0,0,1-.169.193l-4.162.471a.942.942,0,0,0-.838.852l-.471,5.315a.193.193,0,1,1-.386,0Zm1.657-7.062a1.332,1.332,0,0,1-1.177-1.2h0l-.287-3.192-.287,3.192a1.332,1.332,0,0,1-1.177,1.2l-2.434.268,2.434.268a1.332,1.332,0,0,1,1.177,1.2l.287,3.192.287-3.192a1.332,1.332,0,0,1,1.177-1.2l2.439-.268Zm-.989-1.215Z" transform="translate(-392.034 -124.265)" fill="#c9ddff"/>
          <g id="Group_5236" data-name="Group 5236" transform="translate(0 0)" opacity="0.5">
            <path id="Path_12494" data-name="Path 12494" d="M387.5,126.775l-.325-3.615a.579.579,0,0,0-.513-.523l-2.825-.315a.193.193,0,0,1,0-.381l2.825-.315a.579.579,0,0,0,.513-.523l.325-3.616a.193.193,0,0,1,.381,0l.325,3.615a.584.584,0,0,0,.518.523l2.825.315a.193.193,0,0,1,0,.381l-2.825.315a.584.584,0,0,0-.518.523l-.325,3.615a.193.193,0,0,1-.381,0Zm1.182-4.769a.941.941,0,0,1-.857-.871h0l-.132-1.5-.137,1.5a.942.942,0,0,1-.852.871l-1.111.122,1.111.127a.942.942,0,0,1,.852.871l.137,1.5.132-1.5a.941.941,0,0,1,.857-.871l1.111-.127Zm-.668-.885Z" transform="translate(-383.674 -117.324)" fill="#c9ddff"/>
          </g>
        </g>
        <g id="freepik--shine--inject-104-3" data-name="freepik--shine--inject-104" transform="translate(118.243 1.513)">
          <path id="Path_12495" data-name="Path 12495" d="M325.126,57.273l-.4-4.383a.781.781,0,0,0-.687-.706l-3.437-.377a.16.16,0,0,1-.136-.16.155.155,0,0,1,.137-.155l3.437-.381a.772.772,0,0,0,.687-.7h0l.4-4.383a.165.165,0,0,1,.16-.146.16.16,0,0,1,.155.146l.4,4.383a.777.777,0,0,0,.687.706l3.437.381a.155.155,0,0,1,.141.155.16.16,0,0,1-.141.16l-3.437.377a.786.786,0,0,0-.687.706l-.41,4.378a.155.155,0,0,1-.155.141A.16.16,0,0,1,325.126,57.273Zm1.365-5.847a1.1,1.1,0,0,1-.97-.989l-.235-2.636-.24,2.636a1.092,1.092,0,0,1-.97.989l-2.01.221,2.01.226a1.092,1.092,0,0,1,.97.989l.24,2.632.235-2.632a1.1,1.1,0,0,1,.97-.989l2.01-.226Z" transform="translate(-320.47 -45.88)" fill="#c9ddff"/>
          <g id="Group_5237" data-name="Group 5237" transform="translate(10.023 6.53)" opacity="0.5">
            <path id="Path_12496" data-name="Path 12496" d="M344.368,66.115l-.217-2.439a.391.391,0,0,0-.348-.353l-1.93-.212a.132.132,0,0,1-.113-.132.127.127,0,0,1,.113-.127l1.911-.212a.4.4,0,0,0,.348-.353l.235-2.42a.132.132,0,0,1,.132-.118h0a.127.127,0,0,1,.127.118l.221,2.439a.386.386,0,0,0,.344.353l1.911.212a.132.132,0,0,1,.118.127.136.136,0,0,1-.118.132l-1.911.212a.381.381,0,0,0-.344.353l-.221,2.439a.127.127,0,0,1-.127.118.132.132,0,0,1-.132-.137Zm.8-3.215a.65.65,0,0,1-.574-.588L344.5,61.3l-.094,1.007h0a.65.65,0,0,1-.574.588l-.749.08.749.085a.65.65,0,0,1,.57.57l.094,1.007.089-1.007a.65.65,0,0,1,.579-.57l.749-.085Z" transform="translate(-341.76 -59.75)" fill="#c9ddff"/>
          </g>
        </g>
        <g id="freepik--shine--inject-104-4" data-name="freepik--shine--inject-104" transform="translate(153.127 108.904)">
          <path id="Path_12497" data-name="Path 12497" d="M409.425,285.388l-.4-4.383a.782.782,0,0,0-.692-.7l-3.432-.381a.155.155,0,1,1,0-.311l3.432-.381a.781.781,0,0,0,.692-.7h0l.4-4.383a.155.155,0,0,1,.151-.146.165.165,0,0,1,.16.146l.4,4.383a.772.772,0,0,0,.687.7l3.432.381a.155.155,0,1,1,0,.311l-3.432.381a.772.772,0,0,0-.687.7l-.4,4.383a.165.165,0,0,1-.16.146A.155.155,0,0,1,409.425,285.388Zm1.361-5.842a1.092,1.092,0,0,1-.965-.989l-.24-2.636-.235,2.636a1.1,1.1,0,0,1-.97.989l-2.01.221,2.01.221a1.1,1.1,0,0,1,.97.989l.235,2.636.24-2.636a1.092,1.092,0,0,1,.965-.989l2.015-.221Z" transform="translate(-399.958 -274)" fill="#c9ddff"/>
          <g id="Group_5238" data-name="Group 5238" transform="translate(0 12.626)" opacity="0.5">
            <path id="Path_12498" data-name="Path 12498" d="M397.159,307.2l-.217-2.439a.4.4,0,0,0-.348-.353l-1.911-.212a.127.127,0,0,1-.113-.127.132.132,0,0,1,.113-.132l1.911-.212a.4.4,0,0,0,.348-.353l.217-2.439a.132.132,0,0,1,.132-.118h0a.127.127,0,0,1,.127.118l.221,2.439a.386.386,0,0,0,.344.353l1.911.212a.137.137,0,0,1,.118.132.132.132,0,0,1-.118.127l-1.911.212a.386.386,0,0,0-.344.353l-.221,2.439a.127.127,0,0,1-.127.118A.132.132,0,0,1,397.159,307.2Zm.8-3.215a.65.65,0,0,1-.574-.588l-.089-1.007L397.2,303.4h0a.65.65,0,0,1-.574.588l-.749.085.749.08a.65.65,0,0,1,.574.588l.094,1.007.089-1.007a.65.65,0,0,1,.574-.588l.749-.08Z" transform="translate(-394.57 -300.82)" fill="#c9ddff"/>
          </g>
        </g>
        <g id="freepik--shine--inject-104-5" data-name="freepik--shine--inject-104" transform="translate(0 78.441)">
          <path id="Path_12499" data-name="Path 12499" d="M72.454,216.964l-.268-2.956a.523.523,0,0,0-.471-.471l-2.321-.254a.113.113,0,0,1-.094-.108.108.108,0,0,1,.094-.1l2.321-.259a.523.523,0,0,0,.471-.471h0l.268-2.956a.107.107,0,0,1,.212,0l.268,2.956a.527.527,0,0,0,.471.471l2.316.259a.108.108,0,0,1,.094.1.113.113,0,0,1-.094.108l-2.326.249a.527.527,0,0,0-.471.471l-.268,2.956a.108.108,0,0,1-.212,0Zm.942-3.945a.734.734,0,0,1-.654-.664l-.188-1.789-.16,1.779a.739.739,0,0,1-.654.664l-1.361.151,1.361.151a.744.744,0,0,1,.654.668l.16,1.775.16-1.775a.739.739,0,0,1,.654-.668l1.356-.151Z" transform="translate(-69.3 -209.29)" fill="#c9ddff"/>
        </g>
        <g id="freepik--shine--inject-104-6" data-name="freepik--shine--inject-104" transform="translate(11.341 27.033)">
          <path id="Path_12500" data-name="Path 12500" d="M105.475,112.057l-.414-4.609a.824.824,0,0,0-.725-.739l-3.611-.4a.165.165,0,1,1,0-.33l3.611-.4a.824.824,0,0,0,.725-.739l.414-4.609a.169.169,0,0,1,.334,0l.414,4.609a.819.819,0,0,0,.725.739l3.611.4a.165.165,0,1,1,0,.33l-3.611.4a.819.819,0,0,0-.725.739l-.414,4.609a.169.169,0,0,1-.334,0Zm1.412-6.148a1.153,1.153,0,0,1-1.022-1.04l-.25-2.768-.25,2.768h0a1.144,1.144,0,0,1-1.017,1.04l-2.118.235,2.118.235a1.144,1.144,0,0,1,1.017,1.04l.25,2.768.25-2.768a1.153,1.153,0,0,1,1.022-1.04l2.114-.235Z" transform="translate(-97.185 -100.09)" fill="#c9ddff"/>
          <g id="Group_5239" data-name="Group 5239" transform="translate(12.301 7.537)" opacity="0.5">
            <path id="Path_12501" data-name="Path 12501" d="M122.853,124.334l-.282-3.14a.5.5,0,0,0-.443-.471l-2.462-.273a.165.165,0,0,1-.146-.165.16.16,0,0,1,.146-.165l2.462-.273a.5.5,0,0,0,.443-.471h0l.282-3.135a.169.169,0,0,1,.334,0l.282,3.135a.5.5,0,0,0,.471.471l2.457.273a.165.165,0,0,1,.151.165.169.169,0,0,1-.151.165l-2.457.273a.5.5,0,0,0-.471.471l-.282,3.14a.169.169,0,0,1-.334,0Zm1.026-4.138a.833.833,0,0,1-.739-.758l-.118-1.3-.118,1.3a.843.843,0,0,1-.739.758l-.942.108.942.1a.847.847,0,0,1,.739.758l.118,1.3.118-1.3a.838.838,0,0,1,.739-.758l.942-.1Z" transform="translate(-119.52 -116.1)" fill="#c9ddff"/>
          </g>
          <g id="Group_5240" data-name="Group 5240" transform="translate(0 13.45)" opacity="0.5">
            <path id="Path_12502" data-name="Path 12502" d="M96.747,136.889l-.282-3.14a.508.508,0,0,0-.471-.471l-2.457-.268a.165.165,0,0,1-.146-.165.169.169,0,0,1,.146-.169l2.457-.268a.5.5,0,0,0,.471-.471h0l.282-3.135a.169.169,0,0,1,.334,0l.282,3.135a.5.5,0,0,0,.443.471l2.462.268a.169.169,0,0,1,.146.169.165.165,0,0,1-.146.165l-2.462.268a.5.5,0,0,0-.443.471l-.282,3.14a.169.169,0,0,1-.334,0Zm1.026-4.138a.843.843,0,0,1-.744-.758l-.118-1.3-.118,1.3a.833.833,0,0,1-.739.758l-.942.108.942.1a.838.838,0,0,1,.739.758l.118,1.3.118-1.3a.843.843,0,0,1,.744-.758l.942-.1Z" transform="translate(-93.39 -128.66)" fill="#c9ddff"/>
          </g>
        </g>
        <g id="freepik--shine--inject-104-7" data-name="freepik--shine--inject-104" transform="translate(46.356 8.815)" opacity="0.5">
          <path id="Path_12503" data-name="Path 12503" d="M171.051,69.435l-.273-3.051a.494.494,0,0,0-.438-.447l-2.41-.268a.16.16,0,1,1,0-.32l2.41-.268a.494.494,0,0,0,.438-.471l.273-3.069a.169.169,0,0,1,.165-.151.16.16,0,0,1,.16.151l.278,3.069a.494.494,0,0,0,.438.471l2.41.268a.16.16,0,1,1,0,.32l-2.387.245a.494.494,0,0,0-.471.471l-.278,3.069a.16.16,0,0,1-.16.151A.169.169,0,0,1,171.051,69.435Zm1-4.049a.824.824,0,0,1-.725-.739l-.113-1.276-.118,1.276h0a.819.819,0,0,1-.725.739l-.942.1.942.1a.819.819,0,0,1,.725.739l.118,1.276.113-1.276a.824.824,0,0,1,.725-.739l.942-.1Z" transform="translate(-167.77 -61.39)" fill="#c9ddff"/>
        </g>
        <g id="freepik--shine--inject-104-8" data-name="freepik--shine--inject-104" transform="translate(36.762)" opacity="0.5">
          <path id="Path_12504" data-name="Path 12504" d="M151.49,52.757l-.348-3.856a.617.617,0,0,0-.546-.56L147.569,48a.2.2,0,0,1-.179-.2.2.2,0,0,1,.179-.2l3.027-.339a.612.612,0,0,0,.546-.556l.348-3.86a.207.207,0,0,1,.41,0l.344,3.86a.617.617,0,0,0,.551.556l3.022.339a.2.2,0,0,1,.184.2.207.207,0,0,1-.184.2l-3.022.334a.626.626,0,0,0-.551.56l-.33,3.86a.207.207,0,0,1-.41,0Zm1.257-5.084a1.026,1.026,0,0,1-.909-.942l-.146-1.6-.141,1.6h0a1.031,1.031,0,0,1-.913.942l-1.182.132,1.182.132a1.031,1.031,0,0,1,.913.942l.141,1.6.146-1.6a1.026,1.026,0,0,1,.909-.942l1.186-.132Z" transform="translate(-147.39 -42.666)" fill="#c9ddff"/>
        </g>
        <g id="freepik--shine--inject-104-9" data-name="freepik--shine--inject-104" transform="translate(162.546 79.015)" opacity="0.5">
          <path id="Path_12505" data-name="Path 12505" d="M417.837,218.574l-.278-3.069a.471.471,0,0,0-.433-.471l-2.41-.264a.165.165,0,0,1,0-.325l2.41-.268a.471.471,0,0,0,.433-.443l.278-3.074a.169.169,0,0,1,.165-.151.16.16,0,0,1,.16.151l.278,3.069a.471.471,0,0,0,.438.447l2.406.268a.165.165,0,0,1,0,.325l-2.406.264a.471.471,0,0,0-.438.471l-.278,3.069a.16.16,0,0,1-.16.151A.169.169,0,0,1,417.837,218.574Zm1-4.049a.819.819,0,0,1-.725-.739L418,212.511l-.118,1.276h0a.819.819,0,0,1-.725.739l-.942.1.942.1a.819.819,0,0,1,.725.744l.118,1.271.113-1.271a.819.819,0,0,1,.725-.744l.942-.1Z" transform="translate(-414.579 -210.51)" fill="#c9ddff"/>
        </g>
        <g id="freepik--shine--inject-104-10" data-name="freepik--shine--inject-104" transform="translate(13.271 119.44)" opacity="0.5">
          <path id="Path_12506" data-name="Path 12506" d="M100.771,304.444l-.278-3.069a.471.471,0,0,0-.438-.447l-2.406-.268a.16.16,0,1,1,0-.32l2.406-.268a.471.471,0,0,0,.438-.471l.278-3.069a.16.16,0,0,1,.16-.151.169.169,0,0,1,.165.151l.278,3.069a.471.471,0,0,0,.433.471l2.41.268a.16.16,0,1,1,0,.32l-2.41.268a.471.471,0,0,0-.433.447l-.278,3.069a.169.169,0,0,1-.165.151.16.16,0,0,1-.16-.151Zm1-4.049a.819.819,0,0,1-.725-.744l-.118-1.271-.113,1.271h0a.819.819,0,0,1-.725.739l-.942.1.942.1a.819.819,0,0,1,.725.739l.113,1.276.118-1.276a.819.819,0,0,1,.725-.739l.942-.1Z" transform="translate(-97.49 -296.38)" fill="#c9ddff"/>
        </g>
        <g id="freepik--shine--inject-104-11" data-name="freepik--shine--inject-104" transform="translate(4.355 89.258)" opacity="0.5">
          <path id="Path_12507" data-name="Path 12507" d="M82.806,242.715l-.362-3.983a.64.64,0,0,0-.565-.579l-3.116-.362a.212.212,0,1,1,0-.424l3.135-.348a.636.636,0,0,0,.565-.579l.362-3.992a.212.212,0,0,1,.419,0l.362,3.992a.636.636,0,0,0,.565.579l3.135.348a.212.212,0,1,1,0,.424l-3.135.344a.64.64,0,0,0-.565.579l-.362,4a.212.212,0,0,1-.419,0Zm1.3-5.268a1.073,1.073,0,0,1-.942-.965L83,234.829l-.151,1.652h0a1.073,1.073,0,0,1-.942.942l-1.224.137,1.224.132a1.073,1.073,0,0,1,.942.942l.151,1.7.146-1.652a1.073,1.073,0,0,1,.942-.942l1.224-.132Z" transform="translate(-78.55 -232.267)" fill="#c9ddff"/>
        </g>
      </g>
    </g>
  </g>
</svg>
